<svg width="248" height="176" viewBox="0 0 248 176" fill="none" xmlns="http://www.w3.org/2000/svg">
<path d="M48.0077 130.664H50.3757V129.56H48.0077V123.848H46.6957V138.184H48.0077V130.664ZM40.7917 124.936C40.2584 124.936 39.7677 125.053 39.3197 125.288C38.8824 125.523 38.5037 125.859 38.1837 126.296C37.8637 126.733 37.613 127.261 37.4317 127.88C37.261 128.488 37.1757 129.176 37.1757 129.944C37.1757 130.712 37.261 131.405 37.4317 132.024C37.613 132.632 37.8637 133.155 38.1837 133.592C38.5037 134.029 38.8824 134.365 39.3197 134.6C39.7677 134.835 40.2584 134.952 40.7917 134.952C41.325 134.952 41.8104 134.835 42.2477 134.6C42.685 134.365 43.0637 134.029 43.3837 133.592C43.7037 133.155 43.949 132.632 44.1197 132.024C44.301 131.405 44.3917 130.712 44.3917 129.944C44.3917 129.176 44.301 128.488 44.1197 127.88C43.949 127.261 43.7037 126.733 43.3837 126.296C43.0637 125.859 42.685 125.523 42.2477 125.288C41.8104 125.053 41.325 124.936 40.7917 124.936ZM40.7917 133.784C40.4397 133.784 40.1197 133.693 39.8317 133.512C39.5437 133.331 39.293 133.075 39.0797 132.744C38.877 132.403 38.717 131.997 38.5997 131.528C38.4824 131.059 38.4237 130.531 38.4237 129.944C38.4237 129.368 38.4824 128.845 38.5997 128.376C38.717 127.896 38.877 127.491 39.0797 127.16C39.293 126.829 39.5437 126.573 39.8317 126.392C40.1197 126.211 40.4397 126.12 40.7917 126.12C41.133 126.12 41.4477 126.211 41.7357 126.392C42.0237 126.573 42.269 126.829 42.4717 127.16C42.685 127.491 42.8504 127.896 42.9677 128.376C43.085 128.845 43.1437 129.368 43.1437 129.944C43.1437 130.531 43.085 131.059 42.9677 131.528C42.8504 131.997 42.685 132.403 42.4717 132.744C42.269 133.075 42.0237 133.331 41.7357 133.512C41.4477 133.693 41.133 133.784 40.7917 133.784ZM63.7024 132.52V123.832H62.3904V132.52H63.7024ZM60.0544 131.88L60.6944 130.84C60.1718 130.669 59.6864 130.435 59.2384 130.136C58.8011 129.837 58.4224 129.496 58.1024 129.112C57.7824 128.728 57.5318 128.312 57.3504 127.864C57.1798 127.416 57.0944 126.952 57.0944 126.472V125.896H60.3424V124.84H52.4704V125.896H55.7504V126.472C55.7504 126.973 55.6598 127.464 55.4784 127.944C55.3078 128.413 55.0624 128.856 54.7424 129.272C54.4331 129.677 54.0544 130.04 53.6064 130.36C53.1584 130.68 52.6624 130.936 52.1184 131.128L52.8064 132.152C53.6704 131.843 54.4118 131.384 55.0304 130.776C55.6598 130.168 56.1291 129.448 56.4384 128.616C56.7691 129.384 57.2438 130.051 57.8624 130.616C58.4918 131.171 59.2224 131.592 60.0544 131.88ZM63.7024 133.272H54.1024V134.328H62.3904V138.184H63.7024V133.272ZM72.3353 129.288H82.1753V128.232H73.6473V125.464H82.0793V124.408H72.3353V129.288ZM83.6953 131.752V130.664H70.7033V131.752H83.6953ZM77.1833 132.984C76.4153 132.984 75.7273 133.043 75.1193 133.16C74.522 133.267 74.01 133.432 73.5833 133.656C73.1566 133.88 72.8313 134.152 72.6073 134.472C72.3833 134.792 72.2713 135.16 72.2713 135.576C72.2713 135.992 72.3833 136.36 72.6073 136.68C72.8313 137 73.1566 137.272 73.5833 137.496C74.01 137.72 74.522 137.885 75.1193 137.992C75.7273 138.109 76.4153 138.168 77.1833 138.168C77.9513 138.168 78.634 138.109 79.2313 137.992C79.8393 137.885 80.3566 137.72 80.7833 137.496C81.21 137.272 81.5353 137 81.7593 136.68C81.9833 136.36 82.0953 135.992 82.0953 135.576C82.0953 135.16 81.9833 134.792 81.7593 134.472C81.5353 134.152 81.21 133.88 80.7833 133.656C80.3566 133.432 79.8393 133.267 79.2313 133.16C78.634 133.043 77.9513 132.984 77.1833 132.984ZM77.1833 137.144C76.0526 137.144 75.1726 137.011 74.5433 136.744C73.914 136.477 73.5993 136.088 73.5993 135.576C73.5993 135.064 73.914 134.675 74.5433 134.408C75.1726 134.141 76.0526 134.008 77.1833 134.008C78.314 134.008 79.194 134.141 79.8233 134.408C80.4527 134.675 80.7673 135.064 80.7673 135.576C80.7673 136.088 80.4527 136.477 79.8233 136.744C79.194 137.011 78.314 137.144 77.1833 137.144ZM98.6701 132.792V131.72H92.8301V130.216H97.3101V129.192H88.6221V127.688H97.0061V124.2H87.2941V125.224H95.7101V126.712H87.3261V130.216H91.5021V131.72H85.6461V132.792H98.6701ZM97.0861 133.896H87.1021V134.968H95.7741V138.056H97.0861V133.896ZM111.053 134.568H112.365V123.832H111.053V134.568ZM109.997 132.232L109.901 131.288C109.282 131.363 108.653 131.421 108.013 131.464C107.373 131.507 106.717 131.544 106.045 131.576V129.592H108.893V128.536H103.277V125.832H108.797V124.76H101.965V129.592H104.733V131.624C104.029 131.645 103.335 131.661 102.653 131.672C101.981 131.683 101.325 131.688 100.685 131.688L100.877 132.76C101.549 132.76 102.258 132.755 103.005 132.744C103.751 132.723 104.514 132.696 105.293 132.664C106.082 132.621 106.871 132.568 107.661 132.504C108.461 132.429 109.239 132.339 109.997 132.232ZM112.845 137.864V136.792H104.397V133.864H103.085V137.864H112.845ZM120.95 125.624H129.43V125.784C129.43 126.339 129.414 126.904 129.382 127.48C129.35 128.045 129.238 128.696 129.046 129.432L130.326 129.576C130.528 128.84 130.646 128.168 130.678 127.56C130.71 126.952 130.726 126.36 130.726 125.784V124.568H120.95V125.624ZM132.342 131.592V130.52H126.038V127.768H124.726V130.52H119.43V131.592H132.342ZM125.83 132.904C125.062 132.904 124.368 132.963 123.75 133.08C123.142 133.197 122.619 133.373 122.182 133.608C121.755 133.832 121.424 134.109 121.19 134.44C120.955 134.76 120.838 135.128 120.838 135.544C120.838 135.949 120.955 136.317 121.19 136.648C121.424 136.968 121.755 137.24 122.182 137.464C122.619 137.688 123.142 137.859 123.75 137.976C124.368 138.104 125.062 138.168 125.83 138.168C126.598 138.168 127.286 138.104 127.894 137.976C128.512 137.859 129.04 137.688 129.478 137.464C129.915 137.24 130.251 136.968 130.486 136.648C130.72 136.317 130.838 135.949 130.838 135.544C130.838 135.128 130.72 134.76 130.486 134.44C130.251 134.109 129.915 133.832 129.478 133.608C129.04 133.373 128.512 133.197 127.894 133.08C127.286 132.963 126.598 132.904 125.83 132.904ZM125.83 137.144C124.71 137.144 123.814 137.005 123.142 136.728C122.48 136.44 122.15 136.045 122.15 135.544C122.15 135.032 122.48 134.632 123.142 134.344C123.814 134.056 124.71 133.912 125.83 133.912C126.96 133.912 127.856 134.056 128.518 134.344C129.19 134.632 129.526 135.032 129.526 135.544C129.526 136.056 129.19 136.451 128.518 136.728C127.856 137.005 126.96 137.144 125.83 137.144ZM146.1 138.184V123.848H144.788V138.184H146.1ZM139.476 128.216V126.392H142.852V125.304H134.836V126.392H138.164V128.216C138.164 128.835 138.063 129.459 137.86 130.088C137.658 130.717 137.38 131.309 137.028 131.864C136.687 132.408 136.282 132.904 135.812 133.352C135.354 133.789 134.868 134.131 134.356 134.376L135.124 135.432C135.53 135.229 135.919 134.968 136.292 134.648C136.666 134.328 137.012 133.96 137.332 133.544C137.652 133.128 137.94 132.68 138.196 132.2C138.452 131.72 138.66 131.219 138.82 130.696C138.991 131.187 139.204 131.656 139.46 132.104C139.716 132.552 140.004 132.963 140.324 133.336C140.655 133.709 141.007 134.045 141.38 134.344C141.764 134.643 142.164 134.888 142.58 135.08L143.316 134.024C142.794 133.8 142.298 133.485 141.828 133.08C141.359 132.675 140.948 132.216 140.596 131.704C140.255 131.181 139.983 130.621 139.78 130.024C139.578 129.427 139.476 128.824 139.476 128.216ZM160.355 130.744H162.659V129.656H160.355V123.832H159.043V138.184H160.355V130.744ZM156.643 125.368H150.083V126.456H155.347C155.198 128.184 154.638 129.715 153.667 131.048C152.697 132.371 151.278 133.501 149.411 134.44L150.131 135.464C151.294 134.888 152.286 134.232 153.107 133.496C153.929 132.749 154.601 131.944 155.123 131.08C155.646 130.216 156.03 129.304 156.275 128.344C156.521 127.384 156.643 126.392 156.643 125.368ZM175.66 128.28H178.588V131.432H179.916V123.848H178.588V127.208H175.66C175.596 126.792 175.457 126.419 175.244 126.088C175.041 125.747 174.78 125.459 174.46 125.224C174.14 124.979 173.772 124.792 173.356 124.664C172.94 124.536 172.492 124.472 172.012 124.472C171.479 124.472 170.983 124.552 170.524 124.712C170.076 124.872 169.687 125.096 169.356 125.384C169.036 125.672 168.78 126.019 168.588 126.424C168.407 126.829 168.316 127.277 168.316 127.768C168.316 128.259 168.407 128.707 168.588 129.112C168.78 129.517 169.036 129.869 169.356 130.168C169.687 130.456 170.076 130.68 170.524 130.84C170.983 131 171.479 131.08 172.012 131.08C172.513 131.08 172.972 131.016 173.388 130.888C173.804 130.749 174.167 130.557 174.476 130.312C174.796 130.067 175.057 129.773 175.26 129.432C175.463 129.08 175.596 128.696 175.66 128.28ZM172.012 129.992C171.66 129.992 171.329 129.939 171.02 129.832C170.721 129.715 170.465 129.56 170.252 129.368C170.039 129.165 169.868 128.931 169.74 128.664C169.623 128.387 169.564 128.088 169.564 127.768C169.564 127.448 169.623 127.155 169.74 126.888C169.868 126.611 170.039 126.376 170.252 126.184C170.465 125.981 170.721 125.827 171.02 125.72C171.329 125.613 171.66 125.56 172.012 125.56C172.364 125.56 172.689 125.613 172.988 125.72C173.297 125.827 173.559 125.981 173.772 126.184C173.985 126.376 174.151 126.611 174.268 126.888C174.396 127.155 174.46 127.448 174.46 127.768C174.46 128.088 174.396 128.387 174.268 128.664C174.151 128.931 173.985 129.165 173.772 129.368C173.559 129.56 173.297 129.715 172.988 129.832C172.689 129.939 172.364 129.992 172.012 129.992ZM178.764 133.368V132.152H177.484V133.368C177.484 133.731 177.425 134.099 177.308 134.472C177.201 134.845 177.036 135.197 176.812 135.528C176.599 135.859 176.327 136.163 175.996 136.44C175.676 136.717 175.303 136.947 174.876 137.128L175.548 138.12C176.188 137.843 176.716 137.469 177.132 137C177.559 136.531 177.889 136.003 178.124 135.416C178.337 136.024 178.657 136.557 179.084 137.016C179.521 137.475 180.065 137.843 180.716 138.12L181.372 137.128C180.945 136.957 180.567 136.739 180.236 136.472C179.916 136.195 179.644 135.891 179.42 135.56C179.207 135.229 179.041 134.877 178.924 134.504C178.817 134.131 178.764 133.752 178.764 133.368ZM174.7 132.248H173.484V134.056H170.956V132.248H169.724V137.992H174.7V132.248ZM170.956 135.032H173.484V136.968H170.956V135.032ZM194.875 138.216V123.832H193.563V129.304H190.443C190.389 128.632 190.267 128.029 190.075 127.496C189.883 126.952 189.627 126.493 189.307 126.12C188.997 125.736 188.635 125.443 188.219 125.24C187.813 125.037 187.371 124.936 186.891 124.936C186.368 124.936 185.888 125.053 185.451 125.288C185.013 125.523 184.635 125.859 184.315 126.296C183.995 126.733 183.744 127.261 183.563 127.88C183.392 128.488 183.307 129.176 183.307 129.944C183.307 130.712 183.392 131.405 183.563 132.024C183.744 132.632 183.995 133.155 184.315 133.592C184.635 134.029 185.013 134.365 185.451 134.6C185.888 134.835 186.368 134.952 186.891 134.952C187.392 134.952 187.851 134.845 188.267 134.632C188.693 134.419 189.061 134.115 189.371 133.72C189.68 133.325 189.925 132.845 190.107 132.28C190.299 131.715 190.411 131.08 190.443 130.376H193.563V138.216H194.875ZM186.891 133.784C186.549 133.784 186.235 133.693 185.947 133.512C185.659 133.331 185.408 133.075 185.195 132.744C184.992 132.403 184.832 131.997 184.715 131.528C184.608 131.059 184.555 130.531 184.555 129.944C184.555 129.368 184.608 128.845 184.715 128.376C184.832 127.896 184.992 127.491 185.195 127.16C185.408 126.829 185.659 126.573 185.947 126.392C186.235 126.211 186.549 126.12 186.891 126.12C187.232 126.12 187.541 126.211 187.819 126.392C188.107 126.573 188.352 126.829 188.555 127.16C188.768 127.491 188.928 127.896 189.035 128.376C189.152 128.845 189.211 129.368 189.211 129.944C189.211 130.531 189.152 131.059 189.035 131.528C188.928 131.997 188.768 132.403 188.555 132.744C188.352 133.075 188.107 133.331 187.819 133.512C187.541 133.693 187.232 133.784 186.891 133.784ZM211.034 136.344V135.256H207.818V131.368C208.426 131.059 208.89 130.653 209.21 130.152C209.54 129.651 209.706 129.075 209.706 128.424C209.706 127.869 209.578 127.368 209.322 126.92C209.066 126.461 208.703 126.072 208.234 125.752C207.775 125.432 207.226 125.187 206.586 125.016C205.956 124.835 205.258 124.744 204.49 124.744C203.732 124.744 203.034 124.835 202.394 125.016C201.754 125.187 201.199 125.432 200.73 125.752C200.271 126.072 199.914 126.461 199.658 126.92C199.402 127.368 199.274 127.869 199.274 128.424C199.274 129.075 199.439 129.656 199.77 130.168C200.111 130.669 200.586 131.075 201.194 131.384V135.256H197.994V136.344H211.034ZM204.49 125.768C205.066 125.768 205.594 125.832 206.074 125.96C206.564 126.088 206.986 126.269 207.338 126.504C207.69 126.728 207.962 127.005 208.154 127.336C208.356 127.656 208.458 128.019 208.458 128.424C208.458 128.819 208.356 129.181 208.154 129.512C207.962 129.843 207.69 130.125 207.338 130.36C206.986 130.584 206.564 130.76 206.074 130.888C205.594 131.016 205.066 131.08 204.49 131.08C203.914 131.08 203.38 131.016 202.89 130.888C202.41 130.76 201.994 130.584 201.642 130.36C201.3 130.125 201.028 129.843 200.826 129.512C200.634 129.181 200.538 128.819 200.538 128.424C200.538 128.019 200.634 127.656 200.826 127.336C201.028 127.005 201.3 126.728 201.642 126.504C201.994 126.269 202.41 126.088 202.89 125.96C203.38 125.832 203.914 125.768 204.49 125.768ZM206.506 135.256H202.506V131.88C202.815 131.955 203.135 132.013 203.466 132.056C203.796 132.088 204.138 132.104 204.49 132.104C205.119 132.104 205.791 132.029 206.506 131.88V135.256Z" fill="#9FB0C6"/>
<path d="M11.7681 168.036V155.478H10.6761V160.532H9.01012V155.758H7.91812V167.406H9.01012V161.47H10.6761V168.036H11.7681ZM4.85212 159.006V156.654H3.74612V159.048C3.74612 159.589 3.68079 160.131 3.55012 160.672C3.41946 161.204 3.23279 161.713 2.99012 162.198C2.75679 162.674 2.46746 163.108 2.12212 163.5C1.77679 163.892 1.38946 164.214 0.960124 164.466L1.68812 165.334C2.30412 164.942 2.83612 164.415 3.28412 163.752C3.73212 163.089 4.06812 162.347 4.29212 161.526C4.51612 162.282 4.83812 162.963 5.25812 163.57C5.68746 164.177 6.20079 164.657 6.79812 165.012L7.48412 164.102C7.06412 163.869 6.69079 163.57 6.36412 163.206C6.03746 162.833 5.76212 162.422 5.53812 161.974C5.31412 161.526 5.14146 161.05 5.02012 160.546C4.90812 160.033 4.85212 159.519 4.85212 159.006ZM25.515 166.482V165.544H20.377V163.178H24.395V162.254H16.667V160.224H24.101V156.402H15.505V157.34H22.981V159.3H15.533V163.178H19.215V165.544H14.105V166.482H25.515ZM32.8079 160.84C33.4706 160.84 34.0726 160.784 34.6139 160.672C35.1553 160.551 35.6173 160.383 35.9999 160.168C36.3826 159.944 36.6766 159.678 36.8819 159.37C37.0966 159.062 37.2039 158.712 37.2039 158.32C37.2039 157.928 37.0966 157.578 36.8819 157.27C36.6766 156.962 36.3826 156.701 35.9999 156.486C35.6173 156.262 35.1553 156.094 34.6139 155.982C34.0726 155.861 33.4706 155.8 32.8079 155.8C32.1453 155.8 31.5433 155.861 31.0019 155.982C30.4606 156.094 29.9986 156.262 29.6159 156.486C29.2333 156.701 28.9346 156.962 28.7199 157.27C28.5146 157.578 28.4119 157.928 28.4119 158.32C28.4119 158.712 28.5146 159.062 28.7199 159.37C28.9346 159.678 29.2333 159.944 29.6159 160.168C29.9986 160.383 30.4606 160.551 31.0019 160.672C31.5433 160.784 32.1453 160.84 32.8079 160.84ZM32.8079 156.724C33.7879 156.724 34.5626 156.864 35.1319 157.144C35.7106 157.424 35.9999 157.816 35.9999 158.32C35.9999 158.563 35.9253 158.782 35.7759 158.978C35.6266 159.174 35.4119 159.342 35.1319 159.482C34.8519 159.613 34.5159 159.715 34.1239 159.79C33.7319 159.865 33.2933 159.902 32.8079 159.902C32.3319 159.902 31.8979 159.865 31.5059 159.79C31.1139 159.715 30.7779 159.613 30.4979 159.482C30.2179 159.342 29.9986 159.174 29.8399 158.978C29.6906 158.782 29.6159 158.563 29.6159 158.32C29.6159 158.068 29.6906 157.844 29.8399 157.648C29.9986 157.452 30.2179 157.289 30.4979 157.158C30.7779 157.018 31.1139 156.911 31.5059 156.836C31.8979 156.761 32.3319 156.724 32.8079 156.724ZM38.5059 162.786V161.848H27.1239V162.786H32.3319V165.32H33.4939V162.786H38.5059ZM37.2599 166.804H29.7279V164.088H28.5799V167.756H37.2599V166.804ZM44.7857 157.046H52.2057V157.186C52.2057 157.671 52.1917 158.166 52.1637 158.67C52.1357 159.165 52.0377 159.734 51.8697 160.378L52.9897 160.504C53.167 159.86 53.2697 159.272 53.2977 158.74C53.3257 158.208 53.3397 157.69 53.3397 157.186V156.122H44.7857V157.046ZM54.7537 162.268V161.33H49.2377V158.922H48.0897V161.33H43.4557V162.268H54.7537ZM49.0557 163.416C48.3837 163.416 47.777 163.467 47.2357 163.57C46.7037 163.673 46.2464 163.827 45.8637 164.032C45.4904 164.228 45.201 164.471 44.9957 164.76C44.7904 165.04 44.6877 165.362 44.6877 165.726C44.6877 166.081 44.7904 166.403 44.9957 166.692C45.201 166.972 45.4904 167.21 45.8637 167.406C46.2464 167.602 46.7037 167.751 47.2357 167.854C47.777 167.966 48.3837 168.022 49.0557 168.022C49.7277 168.022 50.3297 167.966 50.8617 167.854C51.403 167.751 51.865 167.602 52.2477 167.406C52.6304 167.21 52.9244 166.972 53.1297 166.692C53.335 166.403 53.4377 166.081 53.4377 165.726C53.4377 165.362 53.335 165.04 53.1297 164.76C52.9244 164.471 52.6304 164.228 52.2477 164.032C51.865 163.827 51.403 163.673 50.8617 163.57C50.3297 163.467 49.7277 163.416 49.0557 163.416ZM49.0557 167.126C48.0757 167.126 47.2917 167.005 46.7037 166.762C46.125 166.51 45.8357 166.165 45.8357 165.726C45.8357 165.278 46.125 164.928 46.7037 164.676C47.2917 164.424 48.0757 164.298 49.0557 164.298C50.045 164.298 50.829 164.424 51.4077 164.676C51.9957 164.928 52.2897 165.278 52.2897 165.726C52.2897 166.174 51.9957 166.519 51.4077 166.762C50.829 167.005 50.045 167.126 49.0557 167.126ZM66.7226 168.036V155.492H65.5746V168.036H66.7226ZM60.9266 159.314V157.718H63.8806V156.766H56.8666V157.718H59.7786V159.314C59.7786 159.855 59.6899 160.401 59.5126 160.952C59.3353 161.503 59.0926 162.021 58.7846 162.506C58.4859 162.982 58.1313 163.416 57.7206 163.808C57.3193 164.191 56.8946 164.489 56.4466 164.704L57.1186 165.628C57.4733 165.451 57.8139 165.222 58.1406 164.942C58.4673 164.662 58.7706 164.34 59.0506 163.976C59.3306 163.612 59.5826 163.22 59.8066 162.8C60.0306 162.38 60.2126 161.941 60.3526 161.484C60.5019 161.913 60.6886 162.324 60.9126 162.716C61.1366 163.108 61.3886 163.467 61.6686 163.794C61.9579 164.121 62.2659 164.415 62.5926 164.676C62.9286 164.937 63.2786 165.152 63.6426 165.32L64.2866 164.396C63.8293 164.2 63.3953 163.925 62.9846 163.57C62.5739 163.215 62.2146 162.814 61.9066 162.366C61.6079 161.909 61.3699 161.419 61.1926 160.896C61.0153 160.373 60.9266 159.846 60.9266 159.314ZM79.1255 161.526H81.1415V160.574H79.1255V155.478H77.9775V168.036H79.1255V161.526ZM75.8775 156.822H70.1375V157.774H74.7435C74.6128 159.286 74.1228 160.625 73.2735 161.792C72.4242 162.949 71.1828 163.939 69.5495 164.76L70.1795 165.656C71.1968 165.152 72.0648 164.578 72.7835 163.934C73.5022 163.281 74.0902 162.576 74.5475 161.82C75.0048 161.064 75.3408 160.266 75.5555 159.426C75.7702 158.586 75.8775 157.718 75.8775 156.822ZM97.0953 161.848V160.924H91.9993V159.972C93.2406 159.925 94.1879 159.72 94.8413 159.356C95.504 158.992 95.8353 158.474 95.8353 157.802C95.8353 157.093 95.4526 156.551 94.6873 156.178C93.9313 155.805 92.8439 155.618 91.4253 155.618C90.0439 155.618 88.9613 155.805 88.1773 156.178C87.4026 156.551 87.0153 157.093 87.0153 157.802C87.0153 158.455 87.3419 158.969 87.9953 159.342C88.6486 159.715 89.6006 159.925 90.8513 159.972V160.924H85.7553V161.848H97.0953ZM88.1913 157.802C88.1913 157.382 88.4666 157.06 89.0173 156.836C89.5773 156.603 90.3799 156.486 91.4253 156.486C92.4706 156.486 93.2686 156.603 93.8193 156.836C94.3793 157.06 94.6593 157.382 94.6593 157.802C94.6593 158.222 94.3793 158.549 93.8193 158.782C93.2686 159.006 92.4706 159.118 91.4253 159.118C90.3799 159.118 89.5773 159.006 89.0173 158.782C88.4666 158.549 88.1913 158.222 88.1913 157.802ZM96.0313 167H88.2753V165.74H95.6533V162.898H87.1133V163.766H94.5193V164.886H87.1553V167.896H96.0313V167ZM108.448 161.428H110.506V160.462H108.448V155.464H107.3V168.05H108.448V161.428ZM100.412 164.06V161.148H104.934V156.64H99.2502V157.578H103.8V160.21H99.2922V165.012H100.286C100.884 165.012 101.439 165.007 101.952 164.998C102.475 164.979 102.974 164.951 103.45 164.914C103.936 164.877 104.412 164.83 104.878 164.774C105.345 164.718 105.826 164.648 106.32 164.564L106.194 163.612C105.728 163.705 105.27 163.785 104.822 163.85C104.374 163.906 103.917 163.953 103.45 163.99C102.993 164.018 102.512 164.037 102.008 164.046C101.514 164.055 100.982 164.06 100.412 164.06ZM123.133 161.848V160.924H118.037V159.972C119.278 159.925 120.226 159.72 120.879 159.356C121.542 158.992 121.873 158.474 121.873 157.802C121.873 157.093 121.49 156.551 120.725 156.178C119.969 155.805 118.882 155.618 117.463 155.618C116.082 155.618 114.999 155.805 114.215 156.178C113.44 156.551 113.053 157.093 113.053 157.802C113.053 158.455 113.38 158.969 114.033 159.342C114.686 159.715 115.638 159.925 116.889 159.972V160.924H111.793V161.848H123.133ZM114.229 157.802C114.229 157.382 114.504 157.06 115.055 156.836C115.615 156.603 116.418 156.486 117.463 156.486C118.508 156.486 119.306 156.603 119.857 156.836C120.417 157.06 120.697 157.382 120.697 157.802C120.697 158.222 120.417 158.549 119.857 158.782C119.306 159.006 118.508 159.118 117.463 159.118C116.418 159.118 115.615 159.006 115.055 158.782C114.504 158.549 114.229 158.222 114.229 157.802ZM122.069 167H114.313V165.74H121.691V162.898H113.151V163.766H120.557V164.886H113.193V167.896H122.069V167ZM138.905 168.022V155.478H137.813V160.602H136.343V155.758H135.279V167.406H136.343V161.54H137.813V168.022H138.905ZM129.511 163.794V157.998H131.149V157.06H128.461V164.76H128.965C129.226 164.76 129.553 164.751 129.945 164.732C130.337 164.713 130.799 164.643 131.331 164.522L131.219 163.57C130.892 163.645 130.584 163.701 130.295 163.738C130.006 163.766 129.744 163.785 129.511 163.794ZM132.731 163.808V157.998H134.453V157.06H131.681V164.76H132.199C132.563 164.76 132.955 164.746 133.375 164.718C133.804 164.69 134.285 164.611 134.817 164.48L134.719 163.528C134.355 163.631 134.005 163.701 133.669 163.738C133.333 163.766 133.02 163.789 132.731 163.808ZM150.972 161.61H152.834V160.658H150.972V155.478H149.824V168.036H150.972V161.61ZM144.868 156.836H141.466V157.788H143.776C143.71 159.067 143.472 160.271 143.062 161.4C142.66 162.529 141.993 163.584 141.06 164.564L141.956 165.208C142.525 164.611 142.996 163.981 143.37 163.318C143.743 162.646 144.042 161.96 144.266 161.26C144.49 160.551 144.644 159.827 144.728 159.09C144.821 158.343 144.868 157.592 144.868 156.836ZM148.298 156.836H145.288V157.788H147.22C147.192 158.46 147.131 159.132 147.038 159.804C146.954 160.467 146.814 161.125 146.618 161.778C146.431 162.422 146.174 163.052 145.848 163.668C145.53 164.275 145.124 164.858 144.63 165.418L145.554 166.048C146.132 165.367 146.599 164.648 146.954 163.892C147.318 163.127 147.598 162.347 147.794 161.554C147.99 160.761 148.12 159.967 148.186 159.174C148.26 158.371 148.298 157.592 148.298 156.836ZM164.397 168.036V155.492H163.249V168.036H164.397ZM158.601 159.314V157.718H161.555V156.766H154.541V157.718H157.453V159.314C157.453 159.855 157.364 160.401 157.187 160.952C157.009 161.503 156.767 162.021 156.459 162.506C156.16 162.982 155.805 163.416 155.395 163.808C154.993 164.191 154.569 164.489 154.121 164.704L154.793 165.628C155.147 165.451 155.488 165.222 155.815 164.942C156.141 164.662 156.445 164.34 156.725 163.976C157.005 163.612 157.257 163.22 157.481 162.8C157.705 162.38 157.887 161.941 158.027 161.484C158.176 161.913 158.363 162.324 158.587 162.716C158.811 163.108 159.063 163.467 159.343 163.794C159.632 164.121 159.94 164.415 160.267 164.676C160.603 164.937 160.953 165.152 161.317 165.32L161.961 164.396C161.503 164.2 161.069 163.925 160.659 163.57C160.248 163.215 159.889 162.814 159.581 162.366C159.282 161.909 159.044 161.419 158.867 160.896C158.689 160.373 158.601 159.846 158.601 159.314ZM180.714 168.036V155.478H179.566V168.036H180.714ZM177.032 156.836H171.152V157.76H175.87C175.749 159.253 175.259 160.593 174.4 161.778C173.542 162.963 172.268 163.957 170.578 164.76L171.194 165.698C172.24 165.185 173.131 164.606 173.868 163.962C174.606 163.309 175.208 162.609 175.674 161.862C176.15 161.106 176.496 160.308 176.71 159.468C176.925 158.619 177.032 157.741 177.032 156.836ZM193.089 161.386H195.161V160.434H193.089V155.478H191.941V168.064H193.089V161.386ZM185.109 163.948V157.634H189.799V156.682H183.961V164.928H184.955C185.543 164.928 186.094 164.923 186.607 164.914C187.121 164.905 187.615 164.886 188.091 164.858C188.567 164.821 189.034 164.774 189.491 164.718C189.949 164.653 190.415 164.573 190.891 164.48L190.765 163.528C190.317 163.612 189.874 163.682 189.435 163.738C188.997 163.794 188.549 163.836 188.091 163.864C187.643 163.892 187.172 163.915 186.677 163.934C186.192 163.943 185.669 163.948 185.109 163.948ZM206.78 168.05V155.464H205.632V158.334H203.154V159.272H205.632V161.778H203.07V162.716H205.632V168.05H206.78ZM198.044 164.172V161.106H202.37V156.612H196.882V157.536H201.236V160.168H196.91V165.124H197.862C198.357 165.124 198.828 165.119 199.276 165.11C199.734 165.091 200.186 165.068 200.634 165.04C201.082 165.012 201.53 164.975 201.978 164.928C202.436 164.881 202.912 164.821 203.406 164.746L203.308 163.794C202.842 163.869 202.389 163.929 201.95 163.976C201.521 164.023 201.092 164.06 200.662 164.088C200.242 164.116 199.813 164.139 199.374 164.158C198.945 164.167 198.502 164.172 198.044 164.172ZM210.153 160.672L210.587 161.582C211.082 161.498 211.558 161.372 212.015 161.204C212.482 161.036 212.911 160.831 213.303 160.588C213.704 160.336 214.064 160.056 214.381 159.748C214.698 159.431 214.955 159.085 215.151 158.712C215.338 159.085 215.59 159.431 215.907 159.748C216.224 160.056 216.584 160.336 216.985 160.588C217.386 160.831 217.82 161.036 218.287 161.204C218.754 161.372 219.23 161.498 219.715 161.582L220.163 160.672C219.612 160.588 219.071 160.443 218.539 160.238C218.016 160.023 217.55 159.767 217.139 159.468C216.728 159.16 216.397 158.819 216.145 158.446C215.902 158.063 215.781 157.667 215.781 157.256V157.186H219.715V156.262H210.545V157.186H214.507V157.256C214.507 157.667 214.381 158.063 214.129 158.446C213.886 158.819 213.56 159.16 213.149 159.468C212.738 159.767 212.272 160.023 211.749 160.238C211.236 160.443 210.704 160.588 210.153 160.672ZM215.697 163.57H220.835L220.821 162.632H209.481V163.57H214.549V168.036H215.697V163.57ZM233.154 168.036V155.478H232.062V168.036H233.154ZM230.592 155.758H229.514V159.986H227.442V160.938H229.514V167.42H230.592V155.758ZM226.21 159.02V156.668H225.104V159.062C225.104 159.603 225.039 160.145 224.908 160.686C224.787 161.218 224.605 161.727 224.362 162.212C224.129 162.688 223.839 163.122 223.494 163.514C223.158 163.906 222.775 164.228 222.346 164.48L223.06 165.348C223.685 164.956 224.217 164.429 224.656 163.766C225.104 163.094 225.44 162.333 225.664 161.484C225.888 162.249 226.205 162.949 226.616 163.584C227.036 164.209 227.545 164.704 228.142 165.068L228.8 164.172C228.389 163.92 228.021 163.607 227.694 163.234C227.377 162.851 227.106 162.431 226.882 161.974C226.667 161.517 226.499 161.036 226.378 160.532C226.266 160.028 226.21 159.524 226.21 159.02ZM246.901 166.426V165.474H244.087V162.072C244.619 161.801 245.025 161.447 245.305 161.008C245.594 160.569 245.739 160.065 245.739 159.496C245.739 159.011 245.627 158.572 245.403 158.18C245.179 157.779 244.862 157.438 244.451 157.158C244.05 156.878 243.569 156.663 243.009 156.514C242.458 156.355 241.847 156.276 241.175 156.276C240.512 156.276 239.901 156.355 239.341 156.514C238.781 156.663 238.296 156.878 237.885 157.158C237.484 157.438 237.171 157.779 236.947 158.18C236.723 158.572 236.611 159.011 236.611 159.496C236.611 160.065 236.756 160.574 237.045 161.022C237.344 161.461 237.759 161.815 238.291 162.086V165.474H235.491V166.426H246.901ZM241.175 157.172C241.679 157.172 242.141 157.228 242.561 157.34C242.99 157.452 243.359 157.611 243.667 157.816C243.975 158.012 244.213 158.255 244.381 158.544C244.558 158.824 244.647 159.141 244.647 159.496C244.647 159.841 244.558 160.159 244.381 160.448C244.213 160.737 243.975 160.985 243.667 161.19C243.359 161.386 242.99 161.54 242.561 161.652C242.141 161.764 241.679 161.82 241.175 161.82C240.671 161.82 240.204 161.764 239.775 161.652C239.355 161.54 238.991 161.386 238.683 161.19C238.384 160.985 238.146 160.737 237.969 160.448C237.801 160.159 237.717 159.841 237.717 159.496C237.717 159.141 237.801 158.824 237.969 158.544C238.146 158.255 238.384 158.012 238.683 157.816C238.991 157.611 239.355 157.452 239.775 157.34C240.204 157.228 240.671 157.172 241.175 157.172ZM242.939 165.474H239.439V162.52C239.71 162.585 239.99 162.637 240.279 162.674C240.568 162.702 240.867 162.716 241.175 162.716C241.726 162.716 242.314 162.651 242.939 162.52V165.474Z" fill="#A3B9D6"/>
<rect x="73" y="20.037" width="100" height="60.111" rx="10.2" stroke="#A3B9D6" stroke-width="2"/>
<path d="M90.647 42.9362H155.353" stroke="#A3B9D6" stroke-width="2" stroke-linecap="round"/>
<path d="M90.647 57.2482H155.353" stroke="#A3B9D6" stroke-width="2" stroke-linecap="round"/>
<path d="M151.979 10.3649L91.08 89.6351" stroke="#A3B9D6" stroke-width="2" stroke-linecap="round"/>
</svg>
