<svg width="240" height="146" viewBox="0 0 240 146" fill="none" xmlns="http://www.w3.org/2000/svg">
<rect x="0.5" y="0.5" width="239" height="53" rx="6.23239" fill="#F3F4F9" stroke="#A3B9D6"/>
<path d="M215.681 42.9892C215.579 42.9893 215.48 42.9546 215.401 42.8911C215.321 42.8257 215.262 42.7378 215.233 42.6388C215.205 42.5399 215.206 42.4345 215.238 42.3365L216.607 38.0663L213.156 35.4817C213.074 35.418 213.013 35.331 212.982 35.2321C212.95 35.1333 212.95 35.0272 212.98 34.928C213.007 34.8303 213.065 34.744 213.145 34.6819C213.226 34.6198 213.324 34.5853 213.425 34.5835H217.727L219.184 30.0316C219.212 29.9353 219.27 29.8507 219.351 29.7908C219.431 29.731 219.529 29.6991 219.63 29.7001C219.73 29.7011 219.827 29.7349 219.907 29.7964C219.986 29.8579 220.043 29.9436 220.069 30.0404L221.439 34.5835H225.667C225.768 34.5855 225.867 34.6202 225.947 34.6825C226.027 34.7448 226.085 34.8312 226.112 34.929C226.142 35.0283 226.142 35.1344 226.11 35.2333C226.078 35.3322 226.017 35.4191 225.935 35.4826L222.481 38.0467L223.775 42.3443C223.805 42.4422 223.805 42.5468 223.775 42.6447C223.745 42.7425 223.686 42.8291 223.606 42.893C223.529 42.9542 223.433 42.9878 223.334 42.9887C223.235 42.9896 223.139 42.9577 223.06 42.898L219.521 40.2475L215.948 42.8989C215.871 42.9572 215.777 42.9889 215.681 42.9892V42.9892Z" stroke="#A3B9D6" stroke-miterlimit="10"/>
<path d="M13.1831 19.2374H48.6761" stroke="#A3B9D6"/>
<path d="M12.8451 36.45H85.1831" stroke="#A3B9D6"/>
<path d="M57.5152 130.518V129.566H55.7092V125.478H54.5612V134.942H55.7092V130.518H57.5152ZM51.3972 130.714L52.5312 130.84C52.6898 129.991 52.7832 129.263 52.8112 128.656C52.8392 128.049 52.8532 127.536 52.8532 127.116V126.458H46.6092V127.396H51.7332C51.7332 127.797 51.7145 128.269 51.6772 128.81C51.6398 129.351 51.5465 129.986 51.3972 130.714ZM53.8052 132.436L53.7212 131.596C53.0772 131.689 52.4098 131.764 51.7192 131.82C51.0378 131.867 50.3472 131.904 49.6472 131.932V129.258H48.5132V131.974C48.0372 131.983 47.5752 131.993 47.1272 132.002C46.6792 132.002 46.2545 132.002 45.8532 132.002L45.9652 132.94C46.5252 132.94 47.1225 132.935 47.7572 132.926C48.4012 132.917 49.0638 132.893 49.7452 132.856C50.4265 132.819 51.1078 132.767 51.7892 132.702C52.4798 132.637 53.1518 132.548 53.8052 132.436ZM56.1152 136.818H48.9192V134.074H47.7712V137.756H56.1152V136.818ZM69.2601 132.632V125.492H68.1121V132.632H69.2601ZM65.9841 132.072L66.5581 131.162C66.1007 131.013 65.6761 130.807 65.2841 130.546C64.8921 130.285 64.5561 129.981 64.2761 129.636C63.9961 129.291 63.7767 128.913 63.6181 128.502C63.4594 128.082 63.3801 127.648 63.3801 127.2V125.982H62.2321V127.2C62.2321 127.657 62.1527 128.105 61.9941 128.544C61.8447 128.973 61.6301 129.375 61.3501 129.748C61.0701 130.112 60.7341 130.439 60.3421 130.728C59.9501 131.017 59.5161 131.246 59.0401 131.414L59.6281 132.31C60.3841 132.039 61.0374 131.629 61.5881 131.078C62.1387 130.518 62.5494 129.874 62.8201 129.146C63.1094 129.827 63.5247 130.425 64.0661 130.938C64.6167 131.442 65.2561 131.82 65.9841 132.072ZM69.2601 133.346H61.1401V137.868H69.2601V133.346ZM68.1401 136.944H62.2601V134.256H68.1401V136.944ZM81.131 132.66H82.279V125.492H81.131V132.66ZM75.531 132.072C76.007 132.072 76.4456 132.002 76.847 131.862C77.2483 131.722 77.5936 131.521 77.883 131.26C78.1816 130.999 78.4103 130.691 78.569 130.336C78.737 129.972 78.821 129.575 78.821 129.146C78.821 128.707 78.737 128.311 78.569 127.956C78.4103 127.601 78.1816 127.293 77.883 127.032C77.5936 126.771 77.2483 126.57 76.847 126.43C76.4456 126.29 76.007 126.22 75.531 126.22C75.055 126.22 74.6163 126.29 74.215 126.43C73.823 126.57 73.4823 126.771 73.193 127.032C72.9036 127.293 72.675 127.601 72.507 127.956C72.3483 128.311 72.269 128.707 72.269 129.146C72.269 129.575 72.3483 129.972 72.507 130.336C72.675 130.691 72.9036 130.999 73.193 131.26C73.4823 131.521 73.823 131.722 74.215 131.862C74.6163 132.002 75.055 132.072 75.531 132.072ZM75.531 127.172C75.839 127.172 76.1236 127.223 76.385 127.326C76.6556 127.419 76.889 127.555 77.085 127.732C77.281 127.9 77.4303 128.105 77.533 128.348C77.645 128.591 77.701 128.857 77.701 129.146C77.701 129.435 77.645 129.701 77.533 129.944C77.4303 130.187 77.281 130.397 77.085 130.574C76.889 130.742 76.6556 130.877 76.385 130.98C76.1236 131.073 75.839 131.12 75.531 131.12C75.223 131.12 74.9336 131.073 74.663 130.98C74.4016 130.877 74.1776 130.742 73.991 130.574C73.8043 130.397 73.655 130.187 73.543 129.944C73.4403 129.701 73.389 129.435 73.389 129.146C73.389 128.857 73.4403 128.591 73.543 128.348C73.655 128.105 73.8043 127.9 73.991 127.732C74.1776 127.555 74.4016 127.419 74.663 127.326C74.9336 127.223 75.223 127.172 75.531 127.172ZM80.879 133.878V133.206H79.759V133.878C79.759 134.121 79.7216 134.377 79.647 134.648C79.5723 134.919 79.4603 135.189 79.311 135.46C79.1616 135.721 78.9703 135.973 78.737 136.216C78.513 136.459 78.2516 136.673 77.953 136.86C77.365 136.515 76.9263 136.071 76.637 135.53C76.357 134.989 76.217 134.438 76.217 133.878V133.206H75.111V133.878C75.111 134.186 75.055 134.494 74.943 134.802C74.831 135.11 74.663 135.404 74.439 135.684C74.2243 135.964 73.9583 136.221 73.641 136.454C73.333 136.678 72.983 136.86 72.591 137L73.165 137.868C73.753 137.644 74.257 137.327 74.677 136.916C75.097 136.505 75.419 136.048 75.643 135.544C75.8296 136.076 76.1096 136.557 76.483 136.986C76.8656 137.406 77.365 137.737 77.981 137.98C78.569 137.728 79.0543 137.383 79.437 136.944C79.8196 136.496 80.109 136.015 80.305 135.502C80.5196 136.034 80.837 136.505 81.257 136.916C81.6863 137.327 82.209 137.644 82.825 137.868L83.399 137C82.9976 136.869 82.6383 136.697 82.321 136.482C82.013 136.258 81.7516 136.011 81.537 135.74C81.3223 135.46 81.159 135.161 81.047 134.844C80.935 134.527 80.879 134.205 80.879 133.878ZM86.5199 130.196H95.0599V129.258H87.6679V125.94H86.5199V130.196ZM96.3619 132.8V131.876H84.9799V132.8H96.3619ZM95.1299 136.79H87.5839V134.06H86.4359V137.728H95.1299V136.79ZM110.44 131.918H111.588V125.478H110.44V131.918ZM108.06 128.726C108.06 128.306 107.976 127.928 107.808 127.592C107.649 127.247 107.425 126.953 107.136 126.71C106.846 126.458 106.501 126.267 106.1 126.136C105.708 125.996 105.278 125.926 104.812 125.926C104.345 125.926 103.911 125.996 103.51 126.136C103.118 126.267 102.777 126.458 102.488 126.71C102.208 126.953 101.984 127.247 101.816 127.592C101.657 127.928 101.578 128.306 101.578 128.726C101.578 129.137 101.657 129.515 101.816 129.86C101.984 130.196 102.208 130.485 102.488 130.728C102.777 130.971 103.118 131.162 103.51 131.302C103.911 131.433 104.345 131.498 104.812 131.498C105.278 131.498 105.708 131.433 106.1 131.302C106.501 131.162 106.846 130.971 107.136 130.728C107.425 130.485 107.649 130.196 107.808 129.86C107.976 129.515 108.06 129.137 108.06 128.726ZM102.684 128.726C102.684 128.455 102.735 128.208 102.838 127.984C102.95 127.751 103.099 127.555 103.286 127.396C103.482 127.228 103.706 127.097 103.958 127.004C104.219 126.911 104.504 126.864 104.812 126.864C105.12 126.864 105.404 126.911 105.666 127.004C105.927 127.097 106.151 127.228 106.338 127.396C106.524 127.555 106.669 127.751 106.772 127.984C106.884 128.208 106.94 128.455 106.94 128.726C106.94 128.987 106.884 129.235 106.772 129.468C106.669 129.692 106.524 129.888 106.338 130.056C106.151 130.215 105.927 130.341 105.666 130.434C105.404 130.527 105.12 130.574 104.812 130.574C104.504 130.574 104.219 130.527 103.958 130.434C103.706 130.341 103.482 130.215 103.286 130.056C103.099 129.888 102.95 129.692 102.838 129.468C102.735 129.235 102.684 128.987 102.684 128.726ZM112.008 137.868V136.958H104.616V135.572H111.588V132.534H103.454V133.444H110.454V134.718H103.482V137.868H112.008ZM123.487 125.492V128.74H121.009V129.678H123.487V132.968H124.649V125.492H123.487ZM121.135 132.492L121.709 131.596C121.251 131.437 120.836 131.227 120.463 130.966C120.089 130.695 119.767 130.392 119.497 130.056C119.235 129.711 119.03 129.342 118.881 128.95C118.731 128.558 118.657 128.161 118.657 127.76V127.326H121.415V126.402H114.709V127.326H117.509V127.76C117.509 128.208 117.429 128.647 117.271 129.076C117.121 129.505 116.907 129.907 116.627 130.28C116.347 130.644 116.011 130.971 115.619 131.26C115.236 131.549 114.811 131.778 114.345 131.946L114.947 132.856C115.684 132.576 116.328 132.156 116.879 131.596C117.429 131.036 117.84 130.392 118.111 129.664C118.381 130.308 118.778 130.877 119.301 131.372C119.823 131.867 120.435 132.24 121.135 132.492ZM120.505 133.36C119.861 133.36 119.277 133.411 118.755 133.514C118.241 133.617 117.803 133.771 117.439 133.976C117.084 134.172 116.809 134.415 116.613 134.704C116.417 134.993 116.319 135.325 116.319 135.698C116.319 136.071 116.417 136.403 116.613 136.692C116.809 136.981 117.084 137.224 117.439 137.42C117.803 137.625 118.241 137.779 118.755 137.882C119.277 137.985 119.861 138.036 120.505 138.036C121.149 138.036 121.727 137.985 122.241 137.882C122.754 137.779 123.193 137.625 123.557 137.42C123.921 137.224 124.196 136.981 124.383 136.692C124.579 136.403 124.677 136.071 124.677 135.698C124.677 135.325 124.579 134.993 124.383 134.704C124.196 134.415 123.921 134.172 123.557 133.976C123.193 133.771 122.754 133.617 122.241 133.514C121.727 133.411 121.149 133.36 120.505 133.36ZM120.505 137.14C119.543 137.14 118.797 137.014 118.265 136.762C117.733 136.51 117.467 136.155 117.467 135.698C117.467 135.241 117.733 134.886 118.265 134.634C118.797 134.373 119.543 134.242 120.505 134.242C121.466 134.242 122.213 134.373 122.745 134.634C123.277 134.886 123.543 135.241 123.543 135.698C123.543 136.155 123.277 136.51 122.745 136.762C122.213 137.014 121.466 137.14 120.505 137.14ZM132.991 130.042C134.373 130.042 135.451 129.86 136.225 129.496C137.009 129.123 137.401 128.581 137.401 127.872C137.401 127.163 137.009 126.621 136.225 126.248C135.451 125.875 134.373 125.688 132.991 125.688C131.61 125.688 130.527 125.875 129.743 126.248C128.969 126.621 128.581 127.163 128.581 127.872C128.581 128.581 128.969 129.123 129.743 129.496C130.527 129.86 131.61 130.042 132.991 130.042ZM132.991 126.556C134.037 126.556 134.835 126.673 135.385 126.906C135.945 127.13 136.225 127.452 136.225 127.872C136.225 128.292 135.945 128.619 135.385 128.852C134.835 129.076 134.037 129.188 132.991 129.188C131.946 129.188 131.143 129.076 130.583 128.852C130.033 128.619 129.757 128.292 129.757 127.872C129.757 127.452 130.033 127.13 130.583 126.906C131.143 126.673 131.946 126.556 132.991 126.556ZM138.675 131.82V130.896H127.307V131.82H138.675ZM137.597 137H129.841V135.726H137.219V132.898H128.679V133.766H136.085V134.886H128.721V137.896H137.597V137ZM153.957 138.05V125.478H152.809V130.042H150.093V130.98H152.809V138.05H153.957ZM147.951 129.16V127.704H150.807V126.766H143.961V127.704H146.803V129.16C146.803 129.72 146.715 130.28 146.537 130.84C146.369 131.391 146.131 131.913 145.823 132.408C145.525 132.893 145.175 133.332 144.773 133.724C144.381 134.116 143.961 134.424 143.513 134.648L144.185 135.558C144.54 135.371 144.881 135.133 145.207 134.844C145.534 134.555 145.833 134.228 146.103 133.864C146.383 133.5 146.631 133.108 146.845 132.688C147.06 132.259 147.237 131.811 147.377 131.344C147.517 131.773 147.695 132.189 147.909 132.59C148.133 132.991 148.381 133.365 148.651 133.71C148.931 134.046 149.23 134.349 149.547 134.62C149.874 134.891 150.21 135.115 150.555 135.292L151.241 134.396C150.784 134.181 150.355 133.887 149.953 133.514C149.561 133.131 149.216 132.707 148.917 132.24C148.619 131.764 148.381 131.26 148.203 130.728C148.035 130.196 147.951 129.673 147.951 129.16ZM168.236 129.622V128.656H166.374V125.492H165.226V133.066H166.374V129.622H168.236ZM163.364 132.45L163.91 131.554C163.443 131.405 163.023 131.204 162.65 130.952C162.277 130.7 161.955 130.411 161.684 130.084C161.423 129.757 161.222 129.403 161.082 129.02C160.942 128.637 160.872 128.241 160.872 127.83V127.34H163.644V126.416H156.91V127.34H159.724V127.83C159.724 128.287 159.649 128.726 159.5 129.146C159.351 129.566 159.136 129.953 158.856 130.308C158.585 130.663 158.254 130.98 157.862 131.26C157.479 131.531 157.05 131.75 156.574 131.918L157.162 132.828C157.918 132.557 158.567 132.161 159.108 131.638C159.649 131.106 160.055 130.476 160.326 129.748C160.597 130.373 160.989 130.924 161.502 131.4C162.015 131.867 162.636 132.217 163.364 132.45ZM162.384 133.388C161.096 133.388 160.083 133.593 159.346 134.004C158.609 134.405 158.24 134.97 158.24 135.698C158.24 136.435 158.609 137.005 159.346 137.406C160.083 137.817 161.096 138.022 162.384 138.022C163.019 138.022 163.588 137.971 164.092 137.868C164.605 137.765 165.039 137.611 165.394 137.406C165.758 137.21 166.033 136.967 166.22 136.678C166.416 136.389 166.514 136.062 166.514 135.698C166.514 135.334 166.416 135.012 166.22 134.732C166.033 134.443 165.758 134.2 165.394 134.004C165.039 133.799 164.605 133.645 164.092 133.542C163.588 133.439 163.019 133.388 162.384 133.388ZM162.384 137.112C161.423 137.112 160.681 136.991 160.158 136.748C159.645 136.496 159.388 136.146 159.388 135.698C159.388 135.25 159.645 134.905 160.158 134.662C160.681 134.419 161.423 134.298 162.384 134.298C163.317 134.298 164.045 134.419 164.568 134.662C165.1 134.905 165.366 135.25 165.366 135.698C165.366 136.146 165.1 136.496 164.568 136.748C164.045 136.991 163.317 137.112 162.384 137.112ZM180.289 138.022V125.464H179.183V130.77H177.573V125.758H176.495V137.42H177.573V131.708H179.183V138.022H180.289ZM175.865 127.62H173.317V125.842H172.183V127.62H169.635V128.558H175.865V127.62ZM172.757 129.398C172.365 129.398 172.006 129.468 171.679 129.608C171.352 129.748 171.068 129.944 170.825 130.196C170.592 130.448 170.405 130.751 170.265 131.106C170.134 131.451 170.069 131.834 170.069 132.254C170.069 132.683 170.134 133.075 170.265 133.43C170.405 133.775 170.592 134.074 170.825 134.326C171.068 134.578 171.352 134.774 171.679 134.914C172.006 135.054 172.365 135.124 172.757 135.124C173.149 135.124 173.508 135.054 173.835 134.914C174.162 134.774 174.442 134.578 174.675 134.326C174.918 134.074 175.104 133.775 175.235 133.43C175.375 133.075 175.445 132.683 175.445 132.254C175.445 131.834 175.375 131.451 175.235 131.106C175.104 130.751 174.918 130.448 174.675 130.196C174.442 129.944 174.162 129.748 173.835 129.608C173.508 129.468 173.149 129.398 172.757 129.398ZM172.757 134.172C172.514 134.172 172.29 134.125 172.085 134.032C171.88 133.939 171.702 133.808 171.553 133.64C171.413 133.463 171.301 133.257 171.217 133.024C171.133 132.791 171.091 132.534 171.091 132.254C171.091 131.694 171.24 131.241 171.539 130.896C171.847 130.541 172.253 130.364 172.757 130.364C173 130.364 173.224 130.411 173.429 130.504C173.634 130.597 173.807 130.728 173.947 130.896C174.096 131.064 174.213 131.265 174.297 131.498C174.381 131.731 174.423 131.983 174.423 132.254C174.423 132.534 174.381 132.791 174.297 133.024C174.213 133.257 174.096 133.463 173.947 133.64C173.807 133.808 173.634 133.939 173.429 134.032C173.224 134.125 173 134.172 172.757 134.172ZM194.064 136.426V135.474H191.25V132.072C191.782 131.801 192.188 131.447 192.468 131.008C192.757 130.569 192.902 130.065 192.902 129.496C192.902 129.011 192.79 128.572 192.566 128.18C192.342 127.779 192.025 127.438 191.614 127.158C191.213 126.878 190.732 126.663 190.172 126.514C189.621 126.355 189.01 126.276 188.338 126.276C187.675 126.276 187.064 126.355 186.504 126.514C185.944 126.663 185.459 126.878 185.048 127.158C184.647 127.438 184.334 127.779 184.11 128.18C183.886 128.572 183.774 129.011 183.774 129.496C183.774 130.065 183.919 130.574 184.208 131.022C184.507 131.461 184.922 131.815 185.454 132.086V135.474H182.654V136.426H194.064ZM188.338 127.172C188.842 127.172 189.304 127.228 189.724 127.34C190.153 127.452 190.522 127.611 190.83 127.816C191.138 128.012 191.376 128.255 191.544 128.544C191.721 128.824 191.81 129.141 191.81 129.496C191.81 129.841 191.721 130.159 191.544 130.448C191.376 130.737 191.138 130.985 190.83 131.19C190.522 131.386 190.153 131.54 189.724 131.652C189.304 131.764 188.842 131.82 188.338 131.82C187.834 131.82 187.367 131.764 186.938 131.652C186.518 131.54 186.154 131.386 185.846 131.19C185.547 130.985 185.309 130.737 185.132 130.448C184.964 130.159 184.88 129.841 184.88 129.496C184.88 129.141 184.964 128.824 185.132 128.544C185.309 128.255 185.547 128.012 185.846 127.816C186.154 127.611 186.518 127.452 186.938 127.34C187.367 127.228 187.834 127.172 188.338 127.172ZM190.102 135.474H186.602V132.52C186.873 132.585 187.153 132.637 187.442 132.674C187.731 132.702 188.03 132.716 188.338 132.716C188.889 132.716 189.477 132.651 190.102 132.52V135.474Z" fill="#9FB0C6"/>
<path d="M29.8019 104.732H37.2079V103.808H34.0719V102.408H32.9239V103.808H29.8019V104.732ZM39.5039 106.902H41.3659V105.95H39.5039V102.492H38.3559V110.332H39.5039V106.902ZM36.5079 107.658C36.5079 107.313 36.4333 107 36.2839 106.72C36.1439 106.44 35.9386 106.202 35.6679 106.006C35.4066 105.801 35.0893 105.647 34.7159 105.544C34.3519 105.432 33.9459 105.376 33.4979 105.376C33.0499 105.376 32.6439 105.432 32.2799 105.544C31.9159 105.647 31.5986 105.796 31.3279 105.992C31.0666 106.188 30.8613 106.426 30.7119 106.706C30.5719 106.986 30.5019 107.299 30.5019 107.644C30.5019 107.989 30.5719 108.302 30.7119 108.582C30.8613 108.862 31.0666 109.1 31.3279 109.296C31.5986 109.492 31.9159 109.646 32.2799 109.758C32.6439 109.861 33.0499 109.912 33.4979 109.912C33.9459 109.912 34.3519 109.861 34.7159 109.758C35.0893 109.646 35.4066 109.492 35.6679 109.296C35.9386 109.1 36.1439 108.867 36.2839 108.596C36.4333 108.316 36.5079 108.003 36.5079 107.658ZM31.5939 107.658C31.5939 107.238 31.7619 106.902 32.0979 106.65C32.4433 106.398 32.9099 106.272 33.4979 106.272C34.0859 106.272 34.5526 106.398 34.8979 106.65C35.2433 106.893 35.4159 107.224 35.4159 107.644C35.4159 108.064 35.2433 108.4 34.8979 108.652C34.5526 108.904 34.0859 109.03 33.4979 109.03C32.9099 109.03 32.4433 108.909 32.0979 108.666C31.7619 108.414 31.5939 108.078 31.5939 107.658ZM39.5039 111.018H31.3559V111.956H38.3559V115.05H39.5039V111.018ZM52.4388 108.526H54.5108V107.574H52.4388V102.492H51.2908V115.036H52.4388V108.526ZM46.9928 105.824V103.57H45.8588V105.824C45.8588 106.393 45.7748 106.963 45.6068 107.532C45.4388 108.101 45.2102 108.638 44.9208 109.142C44.6315 109.637 44.2862 110.085 43.8848 110.486C43.4928 110.887 43.0728 111.205 42.6248 111.438L43.3108 112.362C44.0202 111.97 44.6502 111.415 45.2008 110.696C45.7515 109.968 46.1622 109.137 46.4328 108.204C46.5728 108.633 46.7455 109.049 46.9508 109.45C47.1655 109.842 47.3988 110.206 47.6508 110.542C47.9122 110.878 48.1968 111.181 48.5048 111.452C48.8128 111.713 49.1348 111.933 49.4708 112.11L50.1848 111.2C49.7462 110.976 49.3308 110.673 48.9388 110.29C48.5562 109.907 48.2202 109.478 47.9308 109.002C47.6415 108.526 47.4128 108.017 47.2448 107.476C47.0768 106.925 46.9928 106.375 46.9928 105.824ZM64.9537 108.918H66.1017V102.478H64.9537V108.918ZM62.5737 105.726C62.5737 105.306 62.4897 104.928 62.3217 104.592C62.1631 104.247 61.9391 103.953 61.6497 103.71C61.3604 103.458 61.0151 103.267 60.6137 103.136C60.2217 102.996 59.7924 102.926 59.3257 102.926C58.8591 102.926 58.4251 102.996 58.0237 103.136C57.6317 103.267 57.2911 103.458 57.0017 103.71C56.7217 103.953 56.4977 104.247 56.3297 104.592C56.1711 104.928 56.0917 105.306 56.0917 105.726C56.0917 106.137 56.1711 106.515 56.3297 106.86C56.4977 107.196 56.7217 107.485 57.0017 107.728C57.2911 107.971 57.6317 108.162 58.0237 108.302C58.4251 108.433 58.8591 108.498 59.3257 108.498C59.7924 108.498 60.2217 108.433 60.6137 108.302C61.0151 108.162 61.3604 107.971 61.6497 107.728C61.9391 107.485 62.1631 107.196 62.3217 106.86C62.4897 106.515 62.5737 106.137 62.5737 105.726ZM57.1977 105.726C57.1977 105.455 57.2491 105.208 57.3517 104.984C57.4637 104.751 57.6131 104.555 57.7997 104.396C57.9957 104.228 58.2197 104.097 58.4717 104.004C58.7331 103.911 59.0177 103.864 59.3257 103.864C59.6337 103.864 59.9184 103.911 60.1797 104.004C60.4411 104.097 60.6651 104.228 60.8517 104.396C61.0384 104.555 61.1831 104.751 61.2857 104.984C61.3977 105.208 61.4537 105.455 61.4537 105.726C61.4537 105.987 61.3977 106.235 61.2857 106.468C61.1831 106.692 61.0384 106.888 60.8517 107.056C60.6651 107.215 60.4411 107.341 60.1797 107.434C59.9184 107.527 59.6337 107.574 59.3257 107.574C59.0177 107.574 58.7331 107.527 58.4717 107.434C58.2197 107.341 57.9957 107.215 57.7997 107.056C57.6131 106.888 57.4637 106.692 57.3517 106.468C57.2491 106.235 57.1977 105.987 57.1977 105.726ZM66.5217 114.868V113.958H59.1297V112.572H66.1017V109.534H57.9677V110.444H64.9677V111.718H57.9957V114.868H66.5217ZM78.0006 102.492V105.74H75.5226V106.678H78.0006V109.968H79.1626V102.492H78.0006ZM75.6486 109.492L76.2226 108.596C75.7653 108.437 75.35 108.227 74.9766 107.966C74.6033 107.695 74.2813 107.392 74.0106 107.056C73.7493 106.711 73.544 106.342 73.3946 105.95C73.2453 105.558 73.1706 105.161 73.1706 104.76V104.326H75.9286V103.402H69.2226V104.326H72.0226V104.76C72.0226 105.208 71.9433 105.647 71.7846 106.076C71.6353 106.505 71.4206 106.907 71.1406 107.28C70.8606 107.644 70.5246 107.971 70.1326 108.26C69.75 108.549 69.3253 108.778 68.8586 108.946L69.4606 109.856C70.198 109.576 70.842 109.156 71.3926 108.596C71.9433 108.036 72.354 107.392 72.6246 106.664C72.8953 107.308 73.292 107.877 73.8146 108.372C74.3373 108.867 74.9486 109.24 75.6486 109.492ZM75.0186 110.36C74.3746 110.36 73.7913 110.411 73.2686 110.514C72.7553 110.617 72.3166 110.771 71.9526 110.976C71.598 111.172 71.3226 111.415 71.1266 111.704C70.9306 111.993 70.8326 112.325 70.8326 112.698C70.8326 113.071 70.9306 113.403 71.1266 113.692C71.3226 113.981 71.598 114.224 71.9526 114.42C72.3166 114.625 72.7553 114.779 73.2686 114.882C73.7913 114.985 74.3746 115.036 75.0186 115.036C75.6626 115.036 76.2413 114.985 76.7546 114.882C77.268 114.779 77.7066 114.625 78.0706 114.42C78.4346 114.224 78.71 113.981 78.8966 113.692C79.0926 113.403 79.1906 113.071 79.1906 112.698C79.1906 112.325 79.0926 111.993 78.8966 111.704C78.71 111.415 78.4346 111.172 78.0706 110.976C77.7066 110.771 77.268 110.617 76.7546 110.514C76.2413 110.411 75.6626 110.36 75.0186 110.36ZM75.0186 114.14C74.0573 114.14 73.3106 114.014 72.7786 113.762C72.2466 113.51 71.9806 113.155 71.9806 112.698C71.9806 112.241 72.2466 111.886 72.7786 111.634C73.3106 111.373 74.0573 111.242 75.0186 111.242C75.98 111.242 76.7266 111.373 77.2586 111.634C77.7906 111.886 78.0566 112.241 78.0566 112.698C78.0566 113.155 77.7906 113.51 77.2586 113.762C76.7266 114.014 75.98 114.14 75.0186 114.14ZM90.7624 108.484C91.4157 108.484 92.0131 108.419 92.5544 108.288C93.0957 108.157 93.5577 107.975 93.9404 107.742C94.3231 107.499 94.6217 107.21 94.8364 106.874C95.0511 106.529 95.1584 106.146 95.1584 105.726C95.1584 105.306 95.0511 104.928 94.8364 104.592C94.6217 104.256 94.3231 103.971 93.9404 103.738C93.5577 103.495 93.0957 103.309 92.5544 103.178C92.0131 103.047 91.4157 102.982 90.7624 102.982C90.1091 102.982 89.5117 103.047 88.9704 103.178C88.4384 103.309 87.9764 103.495 87.5844 103.738C87.2017 103.971 86.9031 104.256 86.6884 104.592C86.4831 104.928 86.3804 105.306 86.3804 105.726C86.3804 106.146 86.4831 106.529 86.6884 106.874C86.9031 107.21 87.2017 107.499 87.5844 107.742C87.9764 107.975 88.4384 108.157 88.9704 108.288C89.5117 108.419 90.1091 108.484 90.7624 108.484ZM90.7624 103.906C91.2384 103.906 91.6724 103.948 92.0644 104.032C92.4657 104.116 92.8064 104.237 93.0864 104.396C93.3757 104.555 93.5951 104.746 93.7444 104.97C93.9031 105.194 93.9824 105.446 93.9824 105.726C93.9824 106.006 93.9031 106.258 93.7444 106.482C93.5951 106.706 93.3757 106.902 93.0864 107.07C92.8064 107.229 92.4657 107.35 92.0644 107.434C91.6724 107.518 91.2384 107.56 90.7624 107.56C90.2864 107.56 89.8524 107.518 89.4604 107.434C89.0684 107.35 88.7277 107.229 88.4384 107.07C88.1584 106.902 87.9391 106.706 87.7804 106.482C87.6311 106.258 87.5564 106.006 87.5564 105.726C87.5564 105.446 87.6311 105.194 87.7804 104.97C87.9391 104.746 88.1584 104.555 88.4384 104.396C88.7277 104.237 89.0684 104.116 89.4604 104.032C89.8524 103.948 90.2864 103.906 90.7624 103.906ZM91.3364 110.626H96.4744V109.674H85.1064V110.626H90.1884V115.05H91.3364V110.626ZM98.8113 107.252L99.1613 108.12C99.6746 108.064 100.169 107.98 100.645 107.868C101.121 107.747 101.56 107.593 101.961 107.406C102.372 107.219 102.736 107 103.053 106.748C103.371 106.496 103.623 106.211 103.809 105.894C103.996 106.211 104.243 106.496 104.551 106.748C104.869 107 105.228 107.219 105.629 107.406C106.04 107.583 106.483 107.733 106.959 107.854C107.435 107.975 107.93 108.064 108.443 108.12L108.807 107.252C108.21 107.196 107.65 107.093 107.127 106.944C106.605 106.795 106.147 106.608 105.755 106.384C105.363 106.16 105.051 105.903 104.817 105.614C104.584 105.315 104.453 104.993 104.425 104.648H108.317V103.738H104.383V102.436H103.235V103.738H99.3013V104.648H103.179C103.151 104.993 103.021 105.315 102.787 105.614C102.554 105.903 102.241 106.16 101.849 106.384C101.457 106.608 101 106.795 100.477 106.944C99.964 107.093 99.4086 107.196 98.8113 107.252ZM109.479 109.744V108.82H98.1253V109.744H109.479ZM108.079 111.088H99.3853V111.998H106.931V115.036H108.079V111.088ZM124.089 108.61H126.147V107.644H124.089V102.492H122.941V115.036H124.089V108.61ZM121.751 104.494H118.657V102.632H117.509V104.494H114.345V105.418H121.751V104.494ZM118.097 106.454C117.658 106.454 117.252 106.529 116.879 106.678C116.506 106.818 116.184 107.019 115.913 107.28C115.642 107.532 115.432 107.835 115.283 108.19C115.134 108.545 115.059 108.932 115.059 109.352C115.059 109.781 115.134 110.173 115.283 110.528C115.432 110.883 115.642 111.186 115.913 111.438C116.184 111.69 116.506 111.886 116.879 112.026C117.252 112.166 117.658 112.236 118.097 112.236C118.545 112.236 118.956 112.166 119.329 112.026C119.702 111.886 120.024 111.69 120.295 111.438C120.575 111.186 120.79 110.883 120.939 110.528C121.088 110.173 121.163 109.781 121.163 109.352C121.163 108.932 121.088 108.545 120.939 108.19C120.79 107.835 120.575 107.532 120.295 107.28C120.024 107.019 119.702 106.818 119.329 106.678C118.956 106.529 118.545 106.454 118.097 106.454ZM118.097 111.284C117.817 111.284 117.556 111.237 117.313 111.144C117.07 111.041 116.86 110.906 116.683 110.738C116.515 110.57 116.38 110.369 116.277 110.136C116.184 109.893 116.137 109.632 116.137 109.352C116.137 109.072 116.184 108.815 116.277 108.582C116.38 108.339 116.515 108.134 116.683 107.966C116.86 107.789 117.07 107.653 117.313 107.56C117.556 107.457 117.817 107.406 118.097 107.406C118.386 107.406 118.652 107.457 118.895 107.56C119.138 107.653 119.343 107.789 119.511 107.966C119.688 108.134 119.824 108.339 119.917 108.582C120.02 108.815 120.071 109.072 120.071 109.352C120.071 109.632 120.02 109.893 119.917 110.136C119.824 110.369 119.688 110.57 119.511 110.738C119.343 110.906 119.138 111.041 118.895 111.144C118.652 111.237 118.386 111.284 118.097 111.284ZM139.04 107.154V106.202H137.178V102.478H136.03V111.564H137.178V107.154H139.04ZM134.826 108.904L134.7 107.98C134.289 108.064 133.883 108.134 133.482 108.19C133.09 108.246 132.675 108.288 132.236 108.316C131.807 108.344 131.34 108.367 130.836 108.386C130.332 108.395 129.772 108.4 129.156 108.4V104.494H133.566V103.57H128.008V109.338H128.988C129.651 109.338 130.243 109.333 130.766 109.324C131.298 109.305 131.793 109.282 132.25 109.254C132.707 109.217 133.141 109.17 133.552 109.114C133.972 109.058 134.397 108.988 134.826 108.904ZM137.738 113.818H130.514V110.654H129.366V114.756H137.738V113.818ZM150.687 115.064V102.478H149.539V115.064H150.687ZM144.527 103.402C144.042 103.402 143.594 103.477 143.183 103.626C142.772 103.766 142.418 103.967 142.119 104.228C141.82 104.48 141.587 104.788 141.419 105.152C141.251 105.516 141.167 105.917 141.167 106.356C141.167 106.795 141.251 107.196 141.419 107.56C141.587 107.924 141.82 108.237 142.119 108.498C142.418 108.75 142.772 108.951 143.183 109.1C143.594 109.24 144.042 109.31 144.527 109.31C145.022 109.31 145.474 109.24 145.885 109.1C146.296 108.951 146.646 108.75 146.935 108.498C147.234 108.237 147.467 107.924 147.635 107.56C147.803 107.196 147.887 106.795 147.887 106.356C147.887 105.917 147.803 105.516 147.635 105.152C147.467 104.788 147.234 104.48 146.935 104.228C146.646 103.967 146.296 103.766 145.885 103.626C145.474 103.477 145.022 103.402 144.527 103.402ZM144.527 104.382C144.854 104.382 145.152 104.429 145.423 104.522C145.703 104.615 145.941 104.751 146.137 104.928C146.333 105.105 146.487 105.315 146.599 105.558C146.711 105.791 146.767 106.057 146.767 106.356C146.767 106.645 146.711 106.911 146.599 107.154C146.487 107.397 146.333 107.607 146.137 107.784C145.941 107.952 145.703 108.087 145.423 108.19C145.152 108.283 144.854 108.33 144.527 108.33C144.2 108.33 143.897 108.283 143.617 108.19C143.346 108.087 143.113 107.952 142.917 107.784C142.721 107.607 142.567 107.397 142.455 107.154C142.343 106.911 142.287 106.645 142.287 106.356C142.287 106.057 142.343 105.791 142.455 105.558C142.567 105.315 142.721 105.105 142.917 104.928C143.113 104.751 143.346 104.615 143.617 104.522C143.897 104.429 144.2 104.382 144.527 104.382ZM140.537 111.34L140.677 112.306C141.246 112.306 141.858 112.301 142.511 112.292C143.164 112.283 143.836 112.264 144.527 112.236C145.227 112.199 145.936 112.143 146.655 112.068C147.383 111.993 148.102 111.891 148.811 111.76L148.713 110.906C148.022 111.009 147.313 111.088 146.585 111.144C145.866 111.2 145.152 111.242 144.443 111.27C143.743 111.298 143.062 111.317 142.399 111.326C141.736 111.335 141.116 111.34 140.537 111.34Z" fill="#9FB0C6"/>
<path d="M180.592 107.042C181.973 107.042 183.051 106.86 183.826 106.496C184.61 106.123 185.002 105.581 185.002 104.872C185.002 104.163 184.61 103.621 183.826 103.248C183.051 102.875 181.973 102.688 180.592 102.688C179.211 102.688 178.128 102.875 177.344 103.248C176.569 103.621 176.182 104.163 176.182 104.872C176.182 105.581 176.569 106.123 177.344 106.496C178.128 106.86 179.211 107.042 180.592 107.042ZM180.592 103.556C181.637 103.556 182.435 103.673 182.986 103.906C183.546 104.13 183.826 104.452 183.826 104.872C183.826 105.292 183.546 105.619 182.986 105.852C182.435 106.076 181.637 106.188 180.592 106.188C179.547 106.188 178.744 106.076 178.184 105.852C177.633 105.619 177.358 105.292 177.358 104.872C177.358 104.452 177.633 104.13 178.184 103.906C178.744 103.673 179.547 103.556 180.592 103.556ZM186.276 108.82V107.896H174.908V108.82H186.276ZM185.198 114H177.442V112.726H184.82V109.898H176.28V110.766H183.686V111.886H176.322V114.896H185.198V114ZM192.738 106.398H201.264V105.474H193.872V102.66H192.738V106.398ZM197.456 109.744V108.428H202.594V107.49H191.212V108.428H196.308V109.744H192.612V110.626H200.004V111.802H192.64V114.896H201.572V114H193.788V112.642H201.152V109.744H197.456ZM214.563 115.05V102.464H213.415V107.308H211.021V108.246H213.415V115.05H214.563ZM205.827 111.074V108.036H210.279V103.64H204.665V104.578H209.159V107.112H204.693V112.026H205.659C206.228 112.026 206.755 112.021 207.241 112.012C207.735 112.003 208.211 111.984 208.669 111.956C209.135 111.919 209.588 111.877 210.027 111.83C210.475 111.774 210.937 111.704 211.413 111.62L211.301 110.668C210.853 110.752 210.414 110.822 209.985 110.878C209.555 110.925 209.121 110.967 208.683 111.004C208.253 111.032 207.801 111.051 207.325 111.06C206.858 111.069 206.359 111.074 205.827 111.074Z" fill="#9FB0C6"/>
<path d="M162.01 114.49C161.913 114.49 161.818 114.457 161.742 114.398C161.665 114.336 161.609 114.253 161.582 114.16C161.554 114.067 161.555 113.968 161.586 113.876L162.898 109.859L159.59 107.428C159.511 107.368 159.453 107.286 159.423 107.193C159.393 107.1 159.392 107.001 159.421 106.907C159.447 106.815 159.503 106.734 159.58 106.676C159.657 106.617 159.751 106.585 159.848 106.583H163.972L165.369 102.302C165.395 102.211 165.451 102.132 165.529 102.075C165.606 102.019 165.7 101.989 165.796 101.99C165.892 101.991 165.985 102.023 166.061 102.08C166.137 102.138 166.192 102.219 166.217 102.31L167.531 106.583H171.584C171.681 106.585 171.775 106.618 171.852 106.676C171.929 106.735 171.985 106.816 172.01 106.908C172.039 107.002 172.039 107.102 172.008 107.195C171.978 107.287 171.92 107.369 171.841 107.429L168.53 109.841L169.77 113.883C169.799 113.975 169.799 114.074 169.77 114.166C169.741 114.258 169.685 114.339 169.608 114.399C169.534 114.457 169.442 114.489 169.347 114.489C169.253 114.49 169.16 114.46 169.085 114.404L165.692 111.911L162.267 114.405C162.193 114.46 162.103 114.49 162.01 114.49V114.49Z" stroke="#9FB0C6" stroke-width="0.9" stroke-miterlimit="10"/>
</svg>
