<svg width="269" height="215" viewBox="0 0 269 215" fill="none" xmlns="http://www.w3.org/2000/svg">
<path d="M119.51 177.048C121.089 177.048 122.321 176.84 123.206 176.424C124.102 175.997 124.55 175.379 124.55 174.568C124.55 173.757 124.102 173.139 123.206 172.712C122.321 172.285 121.089 172.072 119.51 172.072C117.931 172.072 116.694 172.285 115.798 172.712C114.913 173.139 114.47 173.757 114.47 174.568C114.47 175.379 114.913 175.997 115.798 176.424C116.694 176.84 117.931 177.048 119.51 177.048ZM119.51 173.064C120.705 173.064 121.617 173.197 122.246 173.464C122.886 173.72 123.206 174.088 123.206 174.568C123.206 175.048 122.886 175.421 122.246 175.688C121.617 175.944 120.705 176.072 119.51 176.072C118.315 176.072 117.398 175.944 116.758 175.688C116.129 175.421 115.814 175.048 115.814 174.568C115.814 174.088 116.129 173.72 116.758 173.464C117.398 173.197 118.315 173.064 119.51 173.064ZM126.006 179.08V178.024H113.014V179.08H126.006ZM124.774 185H115.91V183.544H124.342V180.312H114.582V181.304H123.046V182.584H114.63V186.024H124.774V185ZM133.551 176.312H143.295V175.256H134.847V172.04H133.551V176.312ZM138.943 180.136V178.632H144.815V177.56H131.807V178.632H137.631V180.136H133.407V181.144H141.855V182.488H133.439V186.024H143.647V185H134.751V183.448H143.167V180.136H138.943ZM158.573 186.2V171.816H157.261V177.352H154.525V178.424H157.261V186.2H158.573ZM148.589 181.656V178.184H153.677V173.16H147.261V174.232H152.397V177.128H147.293V182.744H148.397C149.048 182.744 149.651 182.739 150.205 182.728C150.771 182.717 151.315 182.696 151.837 182.664C152.371 182.621 152.888 182.573 153.389 182.52C153.901 182.456 154.429 182.376 154.973 182.28L154.845 181.192C154.333 181.288 153.832 181.368 153.341 181.432C152.851 181.485 152.355 181.533 151.853 181.576C151.363 181.608 150.845 181.629 150.301 181.64C149.768 181.651 149.197 181.656 148.589 181.656ZM62.6087 203.592V202.504H60.5447V197.832H59.2327V208.648H60.5447V203.592H62.6087ZM55.6167 203.816L56.9127 203.96C57.0941 202.989 57.2007 202.157 57.2327 201.464C57.2647 200.771 57.2807 200.184 57.2807 199.704V198.952H50.1447V200.024H56.0007C56.0007 200.483 55.9794 201.021 55.9367 201.64C55.8941 202.259 55.7874 202.984 55.6167 203.816ZM58.3687 205.784L58.2727 204.824C57.5367 204.931 56.7741 205.016 55.9847 205.08C55.2061 205.133 54.4167 205.176 53.6167 205.208V202.152H52.3207V205.256C51.7767 205.267 51.2487 205.277 50.7367 205.288C50.2247 205.288 49.7394 205.288 49.2807 205.288L49.4087 206.36C50.0487 206.36 50.7314 206.355 51.4567 206.344C52.1927 206.333 52.9501 206.307 53.7287 206.264C54.5074 206.221 55.2861 206.163 56.0647 206.088C56.8541 206.013 57.6221 205.912 58.3687 205.784ZM61.0087 210.792H52.7847V207.656H51.4727V211.864H61.0087V210.792ZM76.1115 206.008V197.848H74.7995V206.008H76.1115ZM72.3675 205.368L73.0235 204.328C72.5008 204.157 72.0155 203.923 71.5675 203.624C71.1195 203.325 70.7355 202.979 70.4155 202.584C70.0955 202.189 69.8448 201.757 69.6635 201.288C69.4822 200.808 69.3915 200.312 69.3915 199.8V198.408H68.0795V199.8C68.0795 200.323 67.9888 200.835 67.8075 201.336C67.6368 201.827 67.3915 202.285 67.0715 202.712C66.7515 203.128 66.3675 203.501 65.9195 203.832C65.4715 204.163 64.9755 204.424 64.4315 204.616L65.1035 205.64C65.9675 205.331 66.7142 204.861 67.3435 204.232C67.9728 203.592 68.4422 202.856 68.7515 202.024C69.0822 202.803 69.5568 203.485 70.1755 204.072C70.8048 204.648 71.5355 205.08 72.3675 205.368ZM76.1115 206.824H66.8315V211.992H76.1115V206.824ZM74.8315 210.936H68.1115V207.864H74.8315V210.936ZM89.7582 206.04H91.0702V197.848H89.7582V206.04ZM83.3582 205.368C83.9022 205.368 84.4036 205.288 84.8622 205.128C85.3209 204.968 85.7156 204.739 86.0462 204.44C86.3876 204.141 86.6489 203.789 86.8302 203.384C87.0222 202.968 87.1182 202.515 87.1182 202.024C87.1182 201.523 87.0222 201.069 86.8302 200.664C86.6489 200.259 86.3876 199.907 86.0462 199.608C85.7156 199.309 85.3209 199.08 84.8622 198.92C84.4036 198.76 83.9022 198.68 83.3582 198.68C82.8142 198.68 82.3129 198.76 81.8542 198.92C81.4062 199.08 81.0169 199.309 80.6862 199.608C80.3556 199.907 80.0942 200.259 79.9022 200.664C79.7209 201.069 79.6302 201.523 79.6302 202.024C79.6302 202.515 79.7209 202.968 79.9022 203.384C80.0942 203.789 80.3556 204.141 80.6862 204.44C81.0169 204.739 81.4062 204.968 81.8542 205.128C82.3129 205.288 82.8142 205.368 83.3582 205.368ZM83.3582 199.768C83.7102 199.768 84.0356 199.827 84.3342 199.944C84.6436 200.051 84.9102 200.205 85.1342 200.408C85.3582 200.6 85.5289 200.835 85.6462 201.112C85.7742 201.389 85.8382 201.693 85.8382 202.024C85.8382 202.355 85.7742 202.659 85.6462 202.936C85.5289 203.213 85.3582 203.453 85.1342 203.656C84.9102 203.848 84.6436 204.003 84.3342 204.12C84.0356 204.227 83.7102 204.28 83.3582 204.28C83.0062 204.28 82.6756 204.227 82.3662 204.12C82.0676 204.003 81.8116 203.848 81.5982 203.656C81.3849 203.453 81.2142 203.213 81.0862 202.936C80.9689 202.659 80.9102 202.355 80.9102 202.024C80.9102 201.693 80.9689 201.389 81.0862 201.112C81.2142 200.835 81.3849 200.6 81.5982 200.408C81.8116 200.205 82.0676 200.051 82.3662 199.944C82.6756 199.827 83.0062 199.768 83.3582 199.768ZM89.4702 207.432V206.664H88.1902V207.432C88.1902 207.709 88.1476 208.003 88.0622 208.312C87.9769 208.621 87.8489 208.931 87.6782 209.24C87.5076 209.539 87.2889 209.827 87.0222 210.104C86.7662 210.381 86.4676 210.627 86.1262 210.84C85.4542 210.445 84.9529 209.939 84.6222 209.32C84.3022 208.701 84.1422 208.072 84.1422 207.432V206.664H82.8782V207.432C82.8782 207.784 82.8142 208.136 82.6862 208.488C82.5582 208.84 82.3662 209.176 82.1102 209.496C81.8649 209.816 81.5609 210.109 81.1982 210.376C80.8462 210.632 80.4462 210.84 79.9982 211L80.6542 211.992C81.3262 211.736 81.9022 211.373 82.3822 210.904C82.8622 210.435 83.2302 209.912 83.4862 209.336C83.6996 209.944 84.0196 210.493 84.4462 210.984C84.8836 211.464 85.4542 211.843 86.1582 212.12C86.8302 211.832 87.3849 211.437 87.8222 210.936C88.2596 210.424 88.5902 209.875 88.8142 209.288C89.0596 209.896 89.4222 210.435 89.9022 210.904C90.3929 211.373 90.9902 211.736 91.6942 211.992L92.3502 211C91.8916 210.851 91.4809 210.653 91.1182 210.408C90.7662 210.152 90.4676 209.869 90.2222 209.56C89.9769 209.24 89.7902 208.899 89.6622 208.536C89.5342 208.173 89.4702 207.805 89.4702 207.432ZM95.997 203.224H105.757V202.152H97.309V198.36H95.997V203.224ZM107.245 206.2V205.144H94.237V206.2H107.245ZM105.837 210.76H97.213V207.64H95.901V211.832H105.837V210.76ZM114.582 199.624H123.062V199.784C123.062 200.339 123.046 200.904 123.014 201.48C122.982 202.045 122.87 202.696 122.678 203.432L123.958 203.576C124.161 202.84 124.278 202.168 124.31 201.56C124.342 200.952 124.358 200.36 124.358 199.784V198.568H114.582V199.624ZM125.974 205.592V204.52H119.67V201.768H118.358V204.52H113.062V205.592H125.974ZM119.462 206.904C118.694 206.904 118.001 206.963 117.382 207.08C116.774 207.197 116.251 207.373 115.814 207.608C115.387 207.832 115.057 208.109 114.822 208.44C114.587 208.76 114.47 209.128 114.47 209.544C114.47 209.949 114.587 210.317 114.822 210.648C115.057 210.968 115.387 211.24 115.814 211.464C116.251 211.688 116.774 211.859 117.382 211.976C118.001 212.104 118.694 212.168 119.462 212.168C120.23 212.168 120.918 212.104 121.526 211.976C122.145 211.859 122.673 211.688 123.11 211.464C123.547 211.24 123.883 210.968 124.118 210.648C124.353 210.317 124.47 209.949 124.47 209.544C124.47 209.128 124.353 208.76 124.118 208.44C123.883 208.109 123.547 207.832 123.11 207.608C122.673 207.373 122.145 207.197 121.526 207.08C120.918 206.963 120.23 206.904 119.462 206.904ZM119.462 211.144C118.342 211.144 117.446 211.005 116.774 210.728C116.113 210.44 115.782 210.045 115.782 209.544C115.782 209.032 116.113 208.632 116.774 208.344C117.446 208.056 118.342 207.912 119.462 207.912C120.593 207.912 121.489 208.056 122.15 208.344C122.822 208.632 123.158 209.032 123.158 209.544C123.158 210.056 122.822 210.451 122.15 210.728C121.489 211.005 120.593 211.144 119.462 211.144ZM139.733 212.184V197.848H138.421V212.184H139.733ZM133.109 202.216V200.392H136.485V199.304H128.469V200.392H131.797V202.216C131.797 202.835 131.695 203.459 131.493 204.088C131.29 204.717 131.013 205.309 130.661 205.864C130.319 206.408 129.914 206.904 129.445 207.352C128.986 207.789 128.501 208.131 127.989 208.376L128.757 209.432C129.162 209.229 129.551 208.968 129.925 208.648C130.298 208.328 130.645 207.96 130.965 207.544C131.285 207.128 131.573 206.68 131.829 206.2C132.085 205.72 132.293 205.219 132.453 204.696C132.623 205.187 132.837 205.656 133.093 206.104C133.349 206.552 133.637 206.963 133.957 207.336C134.287 207.709 134.639 208.045 135.013 208.344C135.397 208.643 135.797 208.888 136.213 209.08L136.949 208.024C136.426 207.8 135.93 207.485 135.461 207.08C134.991 206.675 134.581 206.216 134.229 205.704C133.887 205.181 133.615 204.621 133.413 204.024C133.21 203.427 133.109 202.824 133.109 202.216ZM144.579 199.176H152.995V200.344H144.611V203.416H154.547V202.472H145.907V201.24H154.291V198.248H144.579V199.176ZM155.955 205.496V204.504H142.947V205.496H155.955ZM154.787 211.048H145.827V209.72H154.339V206.664H144.499V207.608H153.043V208.808H144.531V211.992H154.787V211.048ZM173.548 212.2V197.832H172.236V203.048H169.132V204.12H172.236V212.2H173.548ZM166.684 202.04V200.376H169.948V199.304H162.124V200.376H165.372V202.04C165.372 202.68 165.271 203.32 165.068 203.96C164.876 204.589 164.604 205.187 164.252 205.752C163.911 206.307 163.511 206.808 163.052 207.256C162.604 207.704 162.124 208.056 161.612 208.312L162.38 209.352C162.786 209.139 163.175 208.867 163.548 208.536C163.922 208.205 164.263 207.832 164.572 207.416C164.892 207 165.175 206.552 165.42 206.072C165.666 205.581 165.868 205.069 166.028 204.536C166.188 205.027 166.391 205.501 166.636 205.96C166.892 206.419 167.175 206.845 167.484 207.24C167.804 207.624 168.146 207.971 168.508 208.28C168.882 208.589 169.266 208.845 169.66 209.048L170.444 208.024C169.922 207.779 169.431 207.443 168.972 207.016C168.524 206.579 168.13 206.093 167.788 205.56C167.447 205.016 167.175 204.44 166.972 203.832C166.78 203.224 166.684 202.627 166.684 202.04ZM189.947 202.568V201.464H187.819V197.848H186.507V206.504H187.819V202.568H189.947ZM184.379 205.8L185.003 204.776C184.47 204.605 183.99 204.376 183.563 204.088C183.136 203.8 182.768 203.469 182.459 203.096C182.16 202.723 181.931 202.317 181.771 201.88C181.611 201.443 181.531 200.989 181.531 200.52V199.96H184.699V198.904H177.003V199.96H180.219V200.52C180.219 201.043 180.134 201.544 179.963 202.024C179.792 202.504 179.547 202.947 179.227 203.352C178.918 203.757 178.539 204.12 178.091 204.44C177.654 204.749 177.163 205 176.619 205.192L177.291 206.232C178.155 205.923 178.896 205.469 179.515 204.872C180.134 204.264 180.598 203.544 180.907 202.712C181.216 203.427 181.664 204.056 182.251 204.6C182.838 205.133 183.547 205.533 184.379 205.8ZM183.259 206.872C181.787 206.872 180.63 207.107 179.787 207.576C178.944 208.035 178.523 208.68 178.523 209.512C178.523 210.355 178.944 211.005 179.787 211.464C180.63 211.933 181.787 212.168 183.259 212.168C183.984 212.168 184.635 212.109 185.211 211.992C185.798 211.875 186.294 211.699 186.699 211.464C187.115 211.24 187.43 210.963 187.643 210.632C187.867 210.301 187.979 209.928 187.979 209.512C187.979 209.096 187.867 208.728 187.643 208.408C187.43 208.077 187.115 207.8 186.699 207.576C186.294 207.341 185.798 207.165 185.211 207.048C184.635 206.931 183.984 206.872 183.259 206.872ZM183.259 211.128C182.16 211.128 181.312 210.989 180.715 210.712C180.128 210.424 179.835 210.024 179.835 209.512C179.835 209 180.128 208.605 180.715 208.328C181.312 208.051 182.16 207.912 183.259 207.912C184.326 207.912 185.158 208.051 185.755 208.328C186.363 208.605 186.667 209 186.667 209.512C186.667 210.024 186.363 210.424 185.755 210.712C185.158 210.989 184.326 211.128 183.259 211.128ZM203.802 212.168V197.816H202.538V203.88H200.698V198.152H199.466V211.48H200.698V204.952H202.538V212.168H203.802ZM198.746 200.28H195.834V198.248H194.538V200.28H191.626V201.352H198.746V200.28ZM195.194 202.312C194.746 202.312 194.335 202.392 193.962 202.552C193.588 202.712 193.263 202.936 192.986 203.224C192.719 203.512 192.506 203.859 192.346 204.264C192.196 204.659 192.122 205.096 192.122 205.576C192.122 206.067 192.196 206.515 192.346 206.92C192.506 207.315 192.719 207.656 192.986 207.944C193.263 208.232 193.588 208.456 193.962 208.616C194.335 208.776 194.746 208.856 195.194 208.856C195.642 208.856 196.052 208.776 196.426 208.616C196.799 208.456 197.119 208.232 197.386 207.944C197.663 207.656 197.876 207.315 198.026 206.92C198.186 206.515 198.266 206.067 198.266 205.576C198.266 205.096 198.186 204.659 198.026 204.264C197.876 203.859 197.663 203.512 197.386 203.224C197.119 202.936 196.799 202.712 196.426 202.552C196.052 202.392 195.642 202.312 195.194 202.312ZM195.194 207.768C194.916 207.768 194.66 207.715 194.426 207.608C194.191 207.501 193.988 207.352 193.818 207.16C193.658 206.957 193.53 206.723 193.434 206.456C193.338 206.189 193.29 205.896 193.29 205.576C193.29 204.936 193.46 204.419 193.802 204.024C194.154 203.619 194.618 203.416 195.194 203.416C195.471 203.416 195.727 203.469 195.962 203.576C196.196 203.683 196.394 203.832 196.554 204.024C196.724 204.216 196.858 204.445 196.954 204.712C197.05 204.979 197.098 205.267 197.098 205.576C197.098 205.896 197.05 206.189 196.954 206.456C196.858 206.723 196.724 206.957 196.554 207.16C196.394 207.352 196.196 207.501 195.962 207.608C195.727 207.715 195.471 207.768 195.194 207.768ZM219.625 210.344V209.256H216.409V205.368C217.017 205.059 217.481 204.653 217.801 204.152C218.131 203.651 218.297 203.075 218.297 202.424C218.297 201.869 218.169 201.368 217.913 200.92C217.657 200.461 217.294 200.072 216.825 199.752C216.366 199.432 215.817 199.187 215.177 199.016C214.547 198.835 213.849 198.744 213.081 198.744C212.323 198.744 211.625 198.835 210.985 199.016C210.345 199.187 209.79 199.432 209.321 199.752C208.862 200.072 208.505 200.461 208.249 200.92C207.993 201.368 207.865 201.869 207.865 202.424C207.865 203.075 208.03 203.656 208.361 204.168C208.702 204.669 209.177 205.075 209.785 205.384V209.256H206.585V210.344H219.625ZM213.081 199.768C213.657 199.768 214.185 199.832 214.665 199.96C215.155 200.088 215.577 200.269 215.929 200.504C216.281 200.728 216.553 201.005 216.745 201.336C216.947 201.656 217.049 202.019 217.049 202.424C217.049 202.819 216.947 203.181 216.745 203.512C216.553 203.843 216.281 204.125 215.929 204.36C215.577 204.584 215.155 204.76 214.665 204.888C214.185 205.016 213.657 205.08 213.081 205.08C212.505 205.08 211.971 205.016 211.481 204.888C211.001 204.76 210.585 204.584 210.233 204.36C209.891 204.125 209.619 203.843 209.417 203.512C209.225 203.181 209.129 202.819 209.129 202.424C209.129 202.019 209.225 201.656 209.417 201.336C209.619 201.005 209.891 200.728 210.233 200.504C210.585 200.269 211.001 200.088 211.481 199.96C211.971 199.832 212.505 199.768 213.081 199.768ZM215.097 209.256H211.097V205.88C211.406 205.955 211.726 206.013 212.057 206.056C212.387 206.088 212.729 206.104 213.081 206.104C213.71 206.104 214.382 206.029 215.097 205.88V209.256Z" fill="#9FB0C6"/>
<path d="M97.5998 185.652C97.4839 185.652 97.3714 185.612 97.2808 185.54C97.1899 185.465 97.1236 185.365 97.0907 185.252C97.0577 185.14 97.0596 185.019 97.0962 184.908L98.6541 180.039L94.7256 177.092C94.6323 177.019 94.5631 176.92 94.5274 176.808C94.4916 176.695 94.4909 176.574 94.5253 176.461C94.5562 176.349 94.6222 176.251 94.7136 176.18C94.8049 176.109 94.9167 176.07 95.0323 176.068H99.929L101.588 170.878C101.619 170.768 101.686 170.672 101.778 170.603C101.869 170.535 101.981 170.499 102.095 170.5C102.209 170.501 102.32 170.54 102.41 170.61C102.501 170.68 102.566 170.778 102.595 170.888L104.155 176.068H108.968C109.084 176.07 109.195 176.11 109.287 176.181C109.378 176.252 109.444 176.35 109.475 176.462C109.509 176.575 109.508 176.696 109.472 176.809C109.436 176.922 109.367 177.021 109.273 177.093L105.342 180.017L106.815 184.917C106.849 185.028 106.849 185.147 106.815 185.259C106.78 185.371 106.713 185.469 106.622 185.542C106.534 185.612 106.425 185.65 106.312 185.651C106.2 185.652 106.09 185.616 106.001 185.548L101.972 182.526L97.9043 185.549C97.8166 185.615 97.7098 185.652 97.5998 185.652V185.652Z" stroke="#9FB0C6" stroke-width="1.2" stroke-miterlimit="10"/>
<path d="M126 57.0909L134.364 64.3636L142.727 57.0909" stroke="#A3B9D6" stroke-width="1.2" stroke-linecap="round" stroke-linejoin="round"/>
<path d="M134.364 64L134.364 1" stroke="#A3B9D6" stroke-width="1.2" stroke-linecap="round"/>
<g filter="url(#filter0_d_4648_19)">
<path d="M11 94C11 85.7157 17.7157 79 26 79H243C251.284 79 258 85.7157 258 94V121.813H11V94Z" stroke="#A3B9D6" stroke-width="1.2" shape-rendering="crispEdges"/>
</g>
<path d="M45.9951 103.143C47.1338 103.143 48.0569 102.22 48.0569 101.082C48.0569 99.9429 47.1338 99.0198 45.9951 99.0198C44.8564 99.0198 43.9333 99.9429 43.9333 101.082C43.9333 102.22 44.8564 103.143 45.9951 103.143Z" stroke="#A3B9D6" stroke-width="1.2" stroke-linecap="round" stroke-linejoin="round"/>
<path d="M57.5812 96.9556C58.7199 96.9556 59.6431 96.0325 59.6431 94.8938C59.6431 93.7551 58.7199 92.832 57.5812 92.832C56.4425 92.832 55.5194 93.7551 55.5194 94.8938C55.5194 96.0325 56.4425 96.9556 57.5812 96.9556Z" stroke="#A3B9D6" stroke-width="1.2" stroke-linecap="round" stroke-linejoin="round"/>
<path d="M57.5812 108.966C58.7199 108.966 59.6431 108.043 59.6431 106.904C59.6431 105.766 58.7199 104.843 57.5812 104.843C56.4425 104.843 55.5194 105.766 55.5194 106.904C55.5194 108.043 56.4425 108.966 57.5812 108.966Z" stroke="#A3B9D6" stroke-width="1.2" stroke-linecap="round" stroke-linejoin="round"/>
<path d="M55.7008 96.1079L48.3012 100.475" stroke="#A3B9D6" stroke-width="1.2" stroke-linecap="round" stroke-linejoin="round"/>
<path d="M47.7917 102.07L55.3368 106.299" stroke="#A3B9D6" stroke-width="1.2" stroke-linecap="round" stroke-linejoin="round"/>
<path d="M128.821 109.536C128.678 109.536 128.539 109.487 128.428 109.398C128.316 109.306 128.234 109.183 128.193 109.043C128.153 108.904 128.155 108.756 128.2 108.618L130.121 102.617L125.278 98.9843C125.163 98.8948 125.078 98.7725 125.034 98.6336C124.99 98.4946 124.989 98.3456 125.031 98.2061C125.069 98.0688 125.151 97.9475 125.263 97.8602C125.376 97.773 125.514 97.7244 125.656 97.7219H131.692L133.737 91.3244C133.776 91.189 133.858 91.0701 133.971 90.986C134.084 90.9018 134.222 90.857 134.362 90.8584C134.503 90.8598 134.64 90.9074 134.751 90.9938C134.862 91.0802 134.942 91.2006 134.979 91.3368L136.902 97.7219H142.834C142.977 97.7247 143.115 97.7735 143.227 97.861C143.34 97.9485 143.421 98.0701 143.459 98.2075C143.502 98.3471 143.501 98.4962 143.456 98.6352C143.412 98.7741 143.326 98.8963 143.211 98.9856L138.364 102.589L140.18 108.629C140.222 108.767 140.222 108.914 140.18 109.052C140.138 109.189 140.055 109.311 139.943 109.401C139.834 109.487 139.7 109.534 139.561 109.535C139.422 109.536 139.287 109.492 139.177 109.408L134.21 105.683L129.196 109.409C129.088 109.491 128.957 109.535 128.821 109.536Z" fill="#9FB0C6"/>
<circle cx="217.134" cy="100.736" r="9.22133" stroke="#A3B9D6" stroke-width="1.2"/>
<path d="M217.134 91.5146L217.134 109.507" stroke="#A3B9D6" stroke-width="1.2"/>
<path d="M216.11 92.0807C213.017 94.8002 208.687 102.114 216.11 109.616" stroke="#A3B9D6" stroke-width="1.2"/>
<path d="M218.159 109.616C221.251 106.896 225.581 99.5819 218.159 92.0804" stroke="#A3B9D6" stroke-width="1.2"/>
<path d="M208.596 99.7114C211.244 101.773 218.367 104.66 225.672 99.7114" stroke="#A3B9D6" stroke-width="1.2"/>
<path d="M208.937 103.81C211.501 105.872 218.396 108.758 225.467 103.81" stroke="#A3B9D6" stroke-width="1.2"/>
<path d="M210.645 94.5884C212.694 96.8653 218.159 100.053 223.623 94.5884" stroke="#A3B9D6" stroke-width="1.2"/>
<defs>
<filter id="filter0_d_4648_19" x="0.400002" y="67.4" width="268.2" height="64.0133" filterUnits="userSpaceOnUse" color-interpolation-filters="sRGB">
<feFlood flood-opacity="0" result="BackgroundImageFix"/>
<feColorMatrix in="SourceAlpha" type="matrix" values="0 0 0 0 0 0 0 0 0 0 0 0 0 0 0 0 0 0 127 0" result="hardAlpha"/>
<feOffset dy="-1"/>
<feGaussianBlur stdDeviation="5"/>
<feComposite in2="hardAlpha" operator="out"/>
<feColorMatrix type="matrix" values="0 0 0 0 0 0 0 0 0 0 0 0 0 0 0 0 0 0 0.03 0"/>
<feBlend mode="normal" in2="BackgroundImageFix" result="effect1_dropShadow_4648_19"/>
<feBlend mode="normal" in="SourceGraphic" in2="effect1_dropShadow_4648_19" result="shape"/>
</filter>
</defs>
</svg>
