<svg width="283" height="226" viewBox="0 0 283 226" fill="none" xmlns="http://www.w3.org/2000/svg">
<path d="M169.796 115.935C169.767 117.154 169.492 118.354 168.988 119.464C167.967 121.702 166.098 123.443 163.794 124.303C161.489 125.164 158.937 125.074 156.699 124.053C154.461 123.032 152.72 121.164 151.86 118.859C150.999 116.555 151.089 114.003 152.11 111.765C152.584 110.722 153.251 109.779 154.076 108.985" stroke="#A3B9D6" stroke-width="2" stroke-miterlimit="10"/>
<path d="M161.162 112.278L184.309 122.751C184.912 123.025 185.507 122.613 185.349 122.047C183 113.734 185.983 105.182 187.646 101.414C188.459 99.5699 189.007 97.6199 189.275 95.6222C190.058 89.6521 189.248 84.5147 184.246 80.0717C182.198 78.3934 179.952 76.9718 177.559 75.8388C175.23 74.8017 172.774 74.0788 170.255 73.6891C163.686 72.832 158.741 75.5352 155.054 79.9726C153.871 81.4103 152.885 82.9997 152.123 84.6987C150.519 88.2154 145.96 96.556 137.832 100.38C137.288 100.625 137.389 101.351 137.979 101.624L161.061 112.241L161.158 112.285L161.162 112.278Z" stroke="#A3B9D6" stroke-width="2" stroke-miterlimit="10"/>
<rect x="82.2995" y="26.9836" width="69.2611" height="42.0142" rx="2" transform="rotate(-21.7668 82.2995 26.9836)" stroke="#A3B9D6" stroke-width="2"/>
<path d="M98.8966 37.3342L141.719 20.2352" stroke="#A3B9D6" stroke-width="2" stroke-linecap="round"/>
<path d="M102.783 47.0665L145.605 29.9676" stroke="#A3B9D6" stroke-width="2" stroke-linecap="round"/>
<path d="M63.0439 186.664H65.4119V185.56H63.0439V179.848H61.7319V194.184H63.0439V186.664ZM55.8279 180.936C55.2946 180.936 54.8039 181.053 54.3559 181.288C53.9186 181.523 53.5399 181.859 53.2199 182.296C52.8999 182.733 52.6493 183.261 52.4679 183.88C52.2973 184.488 52.2119 185.176 52.2119 185.944C52.2119 186.712 52.2973 187.405 52.4679 188.024C52.6493 188.632 52.8999 189.155 53.2199 189.592C53.5399 190.029 53.9186 190.365 54.3559 190.6C54.8039 190.835 55.2946 190.952 55.8279 190.952C56.3613 190.952 56.8466 190.835 57.2839 190.6C57.7213 190.365 58.0999 190.029 58.4199 189.592C58.7399 189.155 58.9853 188.632 59.1559 188.024C59.3373 187.405 59.4279 186.712 59.4279 185.944C59.4279 185.176 59.3373 184.488 59.1559 183.88C58.9853 183.261 58.7399 182.733 58.4199 182.296C58.0999 181.859 57.7213 181.523 57.2839 181.288C56.8466 181.053 56.3613 180.936 55.8279 180.936ZM55.8279 189.784C55.4759 189.784 55.1559 189.693 54.8679 189.512C54.5799 189.331 54.3293 189.075 54.1159 188.744C53.9133 188.403 53.7533 187.997 53.6359 187.528C53.5186 187.059 53.4599 186.531 53.4599 185.944C53.4599 185.368 53.5186 184.845 53.6359 184.376C53.7533 183.896 53.9133 183.491 54.1159 183.16C54.3293 182.829 54.5799 182.573 54.8679 182.392C55.1559 182.211 55.4759 182.12 55.8279 182.12C56.1693 182.12 56.4839 182.211 56.7719 182.392C57.0599 182.573 57.3053 182.829 57.5079 183.16C57.7213 183.491 57.8866 183.896 58.0039 184.376C58.1213 184.845 58.1799 185.368 58.1799 185.944C58.1799 186.531 58.1213 187.059 58.0039 187.528C57.8866 187.997 57.7213 188.403 57.5079 188.744C57.3053 189.075 57.0599 189.331 56.7719 189.512C56.4839 189.693 56.1693 189.784 55.8279 189.784ZM78.7387 188.52V179.832H77.4267V188.52H78.7387ZM75.0907 187.88L75.7307 186.84C75.208 186.669 74.7227 186.435 74.2747 186.136C73.8374 185.837 73.4587 185.496 73.1387 185.112C72.8187 184.728 72.568 184.312 72.3867 183.864C72.216 183.416 72.1307 182.952 72.1307 182.472V181.896H75.3787V180.84H67.5067V181.896H70.7867V182.472C70.7867 182.973 70.696 183.464 70.5147 183.944C70.344 184.413 70.0987 184.856 69.7787 185.272C69.4694 185.677 69.0907 186.04 68.6427 186.36C68.1947 186.68 67.6987 186.936 67.1547 187.128L67.8427 188.152C68.7067 187.843 69.448 187.384 70.0667 186.776C70.696 186.168 71.1654 185.448 71.4747 184.616C71.8054 185.384 72.28 186.051 72.8987 186.616C73.528 187.171 74.2587 187.592 75.0907 187.88ZM78.7387 189.272H69.1387V190.328H77.4267V194.184H78.7387V189.272ZM92.8756 188.008H98.7316V186.936H96.6036C96.8062 185.901 96.9236 184.989 96.9556 184.2C96.9876 183.411 97.0036 182.68 97.0036 182.008V180.76H87.3716V181.816H95.7236V182.008C95.7236 182.68 95.7022 183.411 95.6596 184.2C95.6276 184.989 95.4996 185.901 95.2756 186.936H85.7556V188.008H91.5476V194.2H92.8756V188.008ZM113.69 188.04V186.984H107.85V185.272H112.202V184.216H103.642V181.464H112.074V180.408H102.33V185.272H106.538V186.984H100.698V188.04H113.69ZM112.106 189.432H102.138V190.504H110.778V194.296H112.106V189.432ZM115.705 182.648H124.169V181.592H120.585V179.848H119.273V181.592H115.705V182.648ZM128.921 185.672V184.568H126.793V179.848H125.481V190.6H126.793V185.672H128.921ZM123.369 186.104C123.369 185.699 123.284 185.336 123.113 185.016C122.953 184.685 122.718 184.408 122.409 184.184C122.11 183.949 121.748 183.768 121.321 183.64C120.905 183.512 120.441 183.448 119.929 183.448C119.417 183.448 118.953 183.512 118.537 183.64C118.121 183.768 117.758 183.949 117.449 184.184C117.15 184.408 116.916 184.685 116.745 185.016C116.585 185.336 116.505 185.699 116.505 186.104C116.505 186.509 116.585 186.877 116.745 187.208C116.916 187.539 117.15 187.821 117.449 188.056C117.758 188.28 118.121 188.456 118.537 188.584C118.953 188.712 119.417 188.776 119.929 188.776C120.441 188.776 120.905 188.712 121.321 188.584C121.748 188.456 122.11 188.28 122.409 188.056C122.718 187.821 122.953 187.539 123.113 187.208C123.284 186.877 123.369 186.509 123.369 186.104ZM117.753 186.104C117.753 185.592 117.945 185.192 118.329 184.904C118.724 184.616 119.257 184.472 119.929 184.472C120.58 184.472 121.108 184.616 121.513 184.904C121.918 185.192 122.121 185.592 122.121 186.104C122.121 186.616 121.918 187.021 121.513 187.32C121.108 187.608 120.58 187.752 119.929 187.752C119.257 187.752 118.724 187.608 118.329 187.32C117.945 187.021 117.753 186.616 117.753 186.104ZM127.433 192.792H119.177V189.752H117.865V193.864H127.433V192.792ZM135.986 181.624H144.466V181.784C144.466 182.339 144.45 182.904 144.418 183.48C144.386 184.045 144.274 184.696 144.082 185.432L145.362 185.576C145.565 184.84 145.682 184.168 145.714 183.56C145.746 182.952 145.762 182.36 145.762 181.784V180.568H135.986V181.624ZM147.378 187.592V186.52H141.074V183.768H139.762V186.52H134.466V187.592H147.378ZM140.866 188.904C140.098 188.904 139.405 188.963 138.786 189.08C138.178 189.197 137.655 189.373 137.218 189.608C136.791 189.832 136.461 190.109 136.226 190.44C135.991 190.76 135.874 191.128 135.874 191.544C135.874 191.949 135.991 192.317 136.226 192.648C136.461 192.968 136.791 193.24 137.218 193.464C137.655 193.688 138.178 193.859 138.786 193.976C139.405 194.104 140.098 194.168 140.866 194.168C141.634 194.168 142.322 194.104 142.93 193.976C143.549 193.859 144.077 193.688 144.514 193.464C144.951 193.24 145.287 192.968 145.522 192.648C145.757 192.317 145.874 191.949 145.874 191.544C145.874 191.128 145.757 190.76 145.522 190.44C145.287 190.109 144.951 189.832 144.514 189.608C144.077 189.373 143.549 189.197 142.93 189.08C142.322 188.963 141.634 188.904 140.866 188.904ZM140.866 193.144C139.746 193.144 138.85 193.005 138.178 192.728C137.517 192.44 137.186 192.045 137.186 191.544C137.186 191.032 137.517 190.632 138.178 190.344C138.85 190.056 139.746 189.912 140.866 189.912C141.997 189.912 142.893 190.056 143.554 190.344C144.226 190.632 144.562 191.032 144.562 191.544C144.562 192.056 144.226 192.451 143.554 192.728C142.893 193.005 141.997 193.144 140.866 193.144ZM161.137 194.184V179.848H159.825V194.184H161.137ZM154.513 184.216V182.392H157.889V181.304H149.873V182.392H153.201V184.216C153.201 184.835 153.099 185.459 152.897 186.088C152.694 186.717 152.417 187.309 152.065 187.864C151.723 188.408 151.318 188.904 150.849 189.352C150.39 189.789 149.905 190.131 149.393 190.376L150.161 191.432C150.566 191.229 150.955 190.968 151.329 190.648C151.702 190.328 152.049 189.96 152.369 189.544C152.689 189.128 152.977 188.68 153.233 188.2C153.489 187.72 153.697 187.219 153.857 186.696C154.027 187.187 154.241 187.656 154.497 188.104C154.753 188.552 155.041 188.963 155.361 189.336C155.691 189.709 156.043 190.045 156.417 190.344C156.801 190.643 157.201 190.888 157.617 191.08L158.353 190.024C157.83 189.8 157.334 189.485 156.865 189.08C156.395 188.675 155.985 188.216 155.633 187.704C155.291 187.181 155.019 186.621 154.817 186.024C154.614 185.427 154.513 184.824 154.513 184.216ZM175.391 186.744H177.695V185.656H175.391V179.832H174.079V194.184H175.391V186.744ZM171.679 181.368H165.119V182.456H170.383C170.234 184.184 169.674 185.715 168.703 187.048C167.733 188.371 166.314 189.501 164.447 190.44L165.167 191.464C166.33 190.888 167.322 190.232 168.143 189.496C168.965 188.749 169.637 187.944 170.159 187.08C170.682 186.216 171.066 185.304 171.311 184.344C171.557 183.384 171.679 182.392 171.679 181.368ZM190.696 184.28H193.624V187.432H194.952V179.848H193.624V183.208H190.696C190.632 182.792 190.494 182.419 190.28 182.088C190.078 181.747 189.816 181.459 189.496 181.224C189.176 180.979 188.808 180.792 188.392 180.664C187.976 180.536 187.528 180.472 187.048 180.472C186.515 180.472 186.019 180.552 185.56 180.712C185.112 180.872 184.723 181.096 184.392 181.384C184.072 181.672 183.816 182.019 183.624 182.424C183.443 182.829 183.352 183.277 183.352 183.768C183.352 184.259 183.443 184.707 183.624 185.112C183.816 185.517 184.072 185.869 184.392 186.168C184.723 186.456 185.112 186.68 185.56 186.84C186.019 187 186.515 187.08 187.048 187.08C187.55 187.08 188.008 187.016 188.424 186.888C188.84 186.749 189.203 186.557 189.512 186.312C189.832 186.067 190.094 185.773 190.296 185.432C190.499 185.08 190.632 184.696 190.696 184.28ZM187.048 185.992C186.696 185.992 186.366 185.939 186.056 185.832C185.758 185.715 185.502 185.56 185.288 185.368C185.075 185.165 184.904 184.931 184.776 184.664C184.659 184.387 184.6 184.088 184.6 183.768C184.6 183.448 184.659 183.155 184.776 182.888C184.904 182.611 185.075 182.376 185.288 182.184C185.502 181.981 185.758 181.827 186.056 181.72C186.366 181.613 186.696 181.56 187.048 181.56C187.4 181.56 187.726 181.613 188.024 181.72C188.334 181.827 188.595 181.981 188.808 182.184C189.022 182.376 189.187 182.611 189.304 182.888C189.432 183.155 189.496 183.448 189.496 183.768C189.496 184.088 189.432 184.387 189.304 184.664C189.187 184.931 189.022 185.165 188.808 185.368C188.595 185.56 188.334 185.715 188.024 185.832C187.726 185.939 187.4 185.992 187.048 185.992ZM193.8 189.368V188.152H192.52V189.368C192.52 189.731 192.462 190.099 192.344 190.472C192.238 190.845 192.072 191.197 191.848 191.528C191.635 191.859 191.363 192.163 191.032 192.44C190.712 192.717 190.339 192.947 189.912 193.128L190.584 194.12C191.224 193.843 191.752 193.469 192.168 193C192.595 192.531 192.926 192.003 193.16 191.416C193.374 192.024 193.694 192.557 194.12 193.016C194.558 193.475 195.102 193.843 195.752 194.12L196.408 193.128C195.982 192.957 195.603 192.739 195.272 192.472C194.952 192.195 194.68 191.891 194.456 191.56C194.243 191.229 194.078 190.877 193.96 190.504C193.854 190.131 193.8 189.752 193.8 189.368ZM189.736 188.248H188.52V190.056H185.992V188.248H184.76V193.992H189.736V188.248ZM185.992 191.032H188.52V192.968H185.992V191.032ZM209.911 194.216V179.832H208.599V185.304H205.479C205.426 184.632 205.303 184.029 205.111 183.496C204.919 182.952 204.663 182.493 204.343 182.12C204.034 181.736 203.671 181.443 203.255 181.24C202.85 181.037 202.407 180.936 201.927 180.936C201.404 180.936 200.924 181.053 200.487 181.288C200.05 181.523 199.671 181.859 199.351 182.296C199.031 182.733 198.78 183.261 198.599 183.88C198.428 184.488 198.343 185.176 198.343 185.944C198.343 186.712 198.428 187.405 198.599 188.024C198.78 188.632 199.031 189.155 199.351 189.592C199.671 190.029 200.05 190.365 200.487 190.6C200.924 190.835 201.404 190.952 201.927 190.952C202.428 190.952 202.887 190.845 203.303 190.632C203.73 190.419 204.098 190.115 204.407 189.72C204.716 189.325 204.962 188.845 205.143 188.28C205.335 187.715 205.447 187.08 205.479 186.376H208.599V194.216H209.911ZM201.927 189.784C201.586 189.784 201.271 189.693 200.983 189.512C200.695 189.331 200.444 189.075 200.231 188.744C200.028 188.403 199.868 187.997 199.751 187.528C199.644 187.059 199.591 186.531 199.591 185.944C199.591 185.368 199.644 184.845 199.751 184.376C199.868 183.896 200.028 183.491 200.231 183.16C200.444 182.829 200.695 182.573 200.983 182.392C201.271 182.211 201.586 182.12 201.927 182.12C202.268 182.12 202.578 182.211 202.855 182.392C203.143 182.573 203.388 182.829 203.591 183.16C203.804 183.491 203.964 183.896 204.071 184.376C204.188 184.845 204.247 185.368 204.247 185.944C204.247 186.531 204.188 187.059 204.071 187.528C203.964 187.997 203.804 188.403 203.591 188.744C203.388 189.075 203.143 189.331 202.855 189.512C202.578 189.693 202.268 189.784 201.927 189.784ZM226.07 192.344V191.256H222.854V187.368C223.462 187.059 223.926 186.653 224.246 186.152C224.576 185.651 224.742 185.075 224.742 184.424C224.742 183.869 224.614 183.368 224.358 182.92C224.102 182.461 223.739 182.072 223.27 181.752C222.811 181.432 222.262 181.187 221.622 181.016C220.992 180.835 220.294 180.744 219.526 180.744C218.768 180.744 218.07 180.835 217.43 181.016C216.79 181.187 216.235 181.432 215.766 181.752C215.307 182.072 214.95 182.461 214.694 182.92C214.438 183.368 214.31 183.869 214.31 184.424C214.31 185.075 214.475 185.656 214.806 186.168C215.147 186.669 215.622 187.075 216.23 187.384V191.256H213.03V192.344H226.07ZM219.526 181.768C220.102 181.768 220.63 181.832 221.11 181.96C221.6 182.088 222.022 182.269 222.374 182.504C222.726 182.728 222.998 183.005 223.19 183.336C223.392 183.656 223.494 184.019 223.494 184.424C223.494 184.819 223.392 185.181 223.19 185.512C222.998 185.843 222.726 186.125 222.374 186.36C222.022 186.584 221.6 186.76 221.11 186.888C220.63 187.016 220.102 187.08 219.526 187.08C218.95 187.08 218.416 187.016 217.926 186.888C217.446 186.76 217.03 186.584 216.678 186.36C216.336 186.125 216.064 185.843 215.862 185.512C215.67 185.181 215.574 184.819 215.574 184.424C215.574 184.019 215.67 183.656 215.862 183.336C216.064 183.005 216.336 182.728 216.678 182.504C217.03 182.269 217.446 182.088 217.926 181.96C218.416 181.832 218.95 181.768 219.526 181.768ZM221.542 191.256H217.542V187.88C217.851 187.955 218.171 188.013 218.502 188.056C218.832 188.088 219.174 188.104 219.526 188.104C220.155 188.104 220.827 188.029 221.542 187.88V191.256ZM230.245 181.016H228.757L228.997 190.136H230.005L230.245 181.016ZM228.773 193.208H230.229V191.704H228.773V193.208ZM7.67981 212.696C8.42648 212.696 9.10915 212.621 9.72781 212.472C10.3465 212.323 10.8745 212.115 11.3118 211.848C11.7491 211.571 12.0905 211.24 12.3358 210.856C12.5811 210.461 12.7038 210.024 12.7038 209.544C12.7038 209.064 12.5811 208.632 12.3358 208.248C12.0905 207.864 11.7491 207.539 11.3118 207.272C10.8745 206.995 10.3465 206.781 9.72781 206.632C9.10915 206.483 8.42648 206.408 7.67981 206.408C6.93315 206.408 6.25048 206.483 5.63181 206.632C5.02381 206.781 4.49581 206.995 4.04781 207.272C3.61048 207.539 3.26915 207.864 3.02381 208.248C2.78915 208.632 2.67181 209.064 2.67181 209.544C2.67181 210.024 2.78915 210.461 3.02381 210.856C3.26915 211.24 3.61048 211.571 4.04781 211.848C4.49581 212.115 5.02381 212.323 5.63181 212.472C6.25048 212.621 6.93315 212.696 7.67981 212.696ZM7.67981 207.464C8.22381 207.464 8.71981 207.512 9.16781 207.608C9.62648 207.704 10.0158 207.843 10.3358 208.024C10.6665 208.205 10.9171 208.424 11.0878 208.68C11.2691 208.936 11.3598 209.224 11.3598 209.544C11.3598 209.864 11.2691 210.152 11.0878 210.408C10.9171 210.664 10.6665 210.888 10.3358 211.08C10.0158 211.261 9.62648 211.4 9.16781 211.496C8.71981 211.592 8.22381 211.64 7.67981 211.64C7.13581 211.64 6.63981 211.592 6.19181 211.496C5.74381 211.4 5.35448 211.261 5.02381 211.08C4.70381 210.888 4.45315 210.664 4.27181 210.408C4.10115 210.152 4.01581 209.864 4.01581 209.544C4.01581 209.224 4.10115 208.936 4.27181 208.68C4.45315 208.424 4.70381 208.205 5.02381 208.024C5.35448 207.843 5.74381 207.704 6.19181 207.608C6.63981 207.512 7.13581 207.464 7.67981 207.464ZM8.33581 215.144H14.2078V214.056H1.21581V215.144H7.02381V220.2H8.33581V215.144ZM16.9586 211.288L17.3586 212.28C17.9452 212.216 18.5106 212.12 19.0546 211.992C19.5986 211.853 20.0999 211.677 20.5586 211.464C21.0279 211.251 21.4439 211 21.8066 210.712C22.1692 210.424 22.4572 210.099 22.6706 209.736C22.8839 210.099 23.1666 210.424 23.5186 210.712C23.8812 211 24.2919 211.251 24.7506 211.464C25.2199 211.667 25.7266 211.837 26.2706 211.976C26.8146 212.115 27.3799 212.216 27.9666 212.28L28.3826 211.288C27.6999 211.224 27.0599 211.107 26.4626 210.936C25.8652 210.765 25.3426 210.552 24.8946 210.296C24.4466 210.04 24.0892 209.747 23.8226 209.416C23.5559 209.075 23.4066 208.707 23.3746 208.312H27.8226V207.272H23.3266V205.784H22.0146V207.272H17.5186V208.312H21.9506C21.9186 208.707 21.7692 209.075 21.5026 209.416C21.2359 209.747 20.8786 210.04 20.4306 210.296C19.9826 210.552 19.4599 210.765 18.8626 210.936C18.2759 211.107 17.6412 211.224 16.9586 211.288ZM29.1506 214.136V213.08H16.1746V214.136H29.1506ZM27.5506 215.672H17.6146V216.712H26.2386V220.184H27.5506V215.672ZM48.2154 210.632V209.544H46.0874V205.848H44.7754V214.536H46.0874V210.632H48.2154ZM42.5514 213.608L43.2394 212.584C42.7274 212.413 42.2581 212.179 41.8314 211.88C41.4048 211.571 41.0368 211.224 40.7274 210.84C40.4288 210.445 40.1941 210.019 40.0234 209.56C39.8528 209.101 39.7674 208.632 39.7674 208.152V206.568H38.4554V208.04C38.4554 208.584 38.3701 209.112 38.1994 209.624C38.0394 210.125 37.7994 210.595 37.4794 211.032C37.1701 211.459 36.7968 211.843 36.3594 212.184C35.9221 212.515 35.4314 212.776 34.8874 212.968L35.5754 214.008C36.4181 213.688 37.1434 213.213 37.7514 212.584C38.3701 211.955 38.8288 211.219 39.1274 210.376C39.4474 211.112 39.9008 211.763 40.4874 212.328C41.0848 212.893 41.7728 213.32 42.5514 213.608ZM41.5274 214.936C40.7914 214.936 40.1301 214.995 39.5434 215.112C38.9674 215.229 38.4714 215.4 38.0554 215.624C37.6501 215.848 37.3354 216.125 37.1114 216.456C36.8981 216.776 36.7914 217.144 36.7914 217.56C36.7914 217.976 36.8981 218.349 37.1114 218.68C37.3354 219 37.6501 219.267 38.0554 219.48C38.4714 219.704 38.9674 219.875 39.5434 219.992C40.1301 220.109 40.7914 220.168 41.5274 220.168C42.2528 220.168 42.9034 220.109 43.4794 219.992C44.0661 219.875 44.5621 219.704 44.9674 219.48C45.3834 219.267 45.6981 219 45.9114 218.68C46.1354 218.349 46.2474 217.976 46.2474 217.56C46.2474 217.144 46.1354 216.776 45.9114 216.456C45.6981 216.125 45.3834 215.848 44.9674 215.624C44.5621 215.4 44.0661 215.229 43.4794 215.112C42.9034 214.995 42.2528 214.936 41.5274 214.936ZM41.5274 219.144C40.4608 219.144 39.6234 219.011 39.0154 218.744C38.4074 218.467 38.1034 218.072 38.1034 217.56C38.1034 217.048 38.4074 216.653 39.0154 216.376C39.6234 216.099 40.4608 215.96 41.5274 215.96C42.5941 215.96 43.4261 216.099 44.0234 216.376C44.6314 216.653 44.9354 217.048 44.9354 217.56C44.9354 218.072 44.6314 218.467 44.0234 218.744C43.4261 219.011 42.5941 219.144 41.5274 219.144ZM63.1742 211.176V210.088H61.0462V205.832H59.7342V216.216H61.0462V211.176H63.1742ZM58.3582 213.176L58.2142 212.12C57.7449 212.216 57.2809 212.296 56.8222 212.36C56.3742 212.424 55.8995 212.472 55.3982 212.504C54.9075 212.536 54.3742 212.563 53.7982 212.584C53.2222 212.595 52.5822 212.6 51.8782 212.6V208.136H56.9182V207.08H50.5662V213.672H51.6862C52.4435 213.672 53.1209 213.667 53.7182 213.656C54.3262 213.635 54.8915 213.608 55.4142 213.576C55.9369 213.533 56.4329 213.48 56.9022 213.416C57.3822 213.352 57.8675 213.272 58.3582 213.176ZM61.6862 218.792H53.4302V215.176H52.1182V219.864H61.6862V218.792ZM76.5649 220.216V205.832H75.2529V220.216H76.5649ZM69.5249 206.888C68.9703 206.888 68.4583 206.973 67.9889 207.144C67.5196 207.304 67.1143 207.533 66.7729 207.832C66.4316 208.12 66.1649 208.472 65.9729 208.888C65.7809 209.304 65.6849 209.763 65.6849 210.264C65.6849 210.765 65.7809 211.224 65.9729 211.64C66.1649 212.056 66.4316 212.413 66.7729 212.712C67.1143 213 67.5196 213.229 67.9889 213.4C68.4583 213.56 68.9703 213.64 69.5249 213.64C70.0903 213.64 70.6076 213.56 71.0769 213.4C71.5463 213.229 71.9463 213 72.2769 212.712C72.6183 212.413 72.8849 212.056 73.0769 211.64C73.2689 211.224 73.3649 210.765 73.3649 210.264C73.3649 209.763 73.2689 209.304 73.0769 208.888C72.8849 208.472 72.6183 208.12 72.2769 207.832C71.9463 207.533 71.5463 207.304 71.0769 207.144C70.6076 206.973 70.0903 206.888 69.5249 206.888ZM69.5249 208.008C69.8983 208.008 70.2396 208.061 70.5489 208.168C70.8689 208.275 71.1409 208.429 71.3649 208.632C71.5889 208.835 71.7649 209.075 71.8929 209.352C72.0209 209.619 72.0849 209.923 72.0849 210.264C72.0849 210.595 72.0209 210.899 71.8929 211.176C71.7649 211.453 71.5889 211.693 71.3649 211.896C71.1409 212.088 70.8689 212.243 70.5489 212.36C70.2396 212.467 69.8983 212.52 69.5249 212.52C69.1516 212.52 68.8049 212.467 68.4849 212.36C68.1756 212.243 67.9089 212.088 67.6849 211.896C67.4609 211.693 67.2849 211.453 67.1569 211.176C67.0289 210.899 66.9649 210.595 66.9649 210.264C66.9649 209.923 67.0289 209.619 67.1569 209.352C67.2849 209.075 67.4609 208.835 67.6849 208.632C67.9089 208.429 68.1756 208.275 68.4849 208.168C68.8049 208.061 69.1516 208.008 69.5249 208.008ZM64.9649 215.96L65.1249 217.064C65.7756 217.064 66.4743 217.059 67.2209 217.048C67.9676 217.037 68.7356 217.016 69.5249 216.984C70.3249 216.941 71.1356 216.877 71.9569 216.792C72.7889 216.707 73.6103 216.589 74.4209 216.44L74.3089 215.464C73.5196 215.581 72.7089 215.672 71.8769 215.736C71.0556 215.8 70.2396 215.848 69.4289 215.88C68.6289 215.912 67.8503 215.933 67.0929 215.944C66.3356 215.955 65.6263 215.96 64.9649 215.96ZM83.4058 213.64H86.6538V217.144H87.8218V213.64H91.0698V212.552H87.8218V209.064H86.6538V212.552H83.4058V213.64ZM94.3928 207.176H102.809V208.344H94.4248V211.416H104.361V210.472H95.7208V209.24H104.105V206.248H94.3928V207.176ZM105.769 213.496V212.504H92.7608V213.496H105.769ZM104.601 219.048H95.6408V217.72H104.153V214.664H94.3128V215.608H102.857V216.808H94.3448V219.992H104.601V219.048ZM113.282 210.312H123.026V209.256H114.578V206.04H113.282V210.312ZM118.674 214.136V212.632H124.546V211.56H111.538V212.632H117.362V214.136H113.138V215.144H121.586V216.488H113.17V220.024H123.378V219H114.482V217.448H122.898V214.136H118.674ZM138.304 220.2V205.816H136.992V211.352H134.256V212.424H136.992V220.2H138.304ZM128.32 215.656V212.184H133.408V207.16H126.992V208.232H132.128V211.128H127.024V216.744H128.128C128.779 216.744 129.382 216.739 129.936 216.728C130.502 216.717 131.046 216.696 131.568 216.664C132.102 216.621 132.619 216.573 133.12 216.52C133.632 216.456 134.16 216.376 134.704 216.28L134.576 215.192C134.064 215.288 133.563 215.368 133.072 215.432C132.582 215.485 132.086 215.533 131.584 215.576C131.094 215.608 130.576 215.629 130.032 215.64C129.499 215.651 128.928 215.656 128.32 215.656ZM146.825 207.624H155.305V207.784C155.305 208.339 155.289 208.904 155.257 209.48C155.225 210.045 155.113 210.696 154.921 211.432L156.201 211.576C156.404 210.84 156.521 210.168 156.553 209.56C156.585 208.952 156.601 208.36 156.601 207.784V206.568H146.825V207.624ZM158.217 213.592V212.52H151.913V209.768H150.601V212.52H145.305V213.592H158.217ZM151.705 214.904C150.937 214.904 150.244 214.963 149.625 215.08C149.017 215.197 148.495 215.373 148.057 215.608C147.631 215.832 147.3 216.109 147.065 216.44C146.831 216.76 146.713 217.128 146.713 217.544C146.713 217.949 146.831 218.317 147.065 218.648C147.3 218.968 147.631 219.24 148.057 219.464C148.495 219.688 149.017 219.859 149.625 219.976C150.244 220.104 150.937 220.168 151.705 220.168C152.473 220.168 153.161 220.104 153.769 219.976C154.388 219.859 154.916 219.688 155.353 219.464C155.791 219.24 156.127 218.968 156.361 218.648C156.596 218.317 156.713 217.949 156.713 217.544C156.713 217.128 156.596 216.76 156.361 216.44C156.127 216.109 155.791 215.832 155.353 215.608C154.916 215.373 154.388 215.197 153.769 215.08C153.161 214.963 152.473 214.904 151.705 214.904ZM151.705 219.144C150.585 219.144 149.689 219.005 149.017 218.728C148.356 218.44 148.025 218.045 148.025 217.544C148.025 217.032 148.356 216.632 149.017 216.344C149.689 216.056 150.585 215.912 151.705 215.912C152.836 215.912 153.732 216.056 154.393 216.344C155.065 216.632 155.401 217.032 155.401 217.544C155.401 218.056 155.065 218.451 154.393 218.728C153.732 219.005 152.836 219.144 151.705 219.144ZM171.976 220.184V205.848H170.664V220.184H171.976ZM165.352 210.216V208.392H168.728V207.304H160.712V208.392H164.04V210.216C164.04 210.835 163.939 211.459 163.736 212.088C163.533 212.717 163.256 213.309 162.904 213.864C162.563 214.408 162.157 214.904 161.688 215.352C161.229 215.789 160.744 216.131 160.232 216.376L161 217.432C161.405 217.229 161.795 216.968 162.168 216.648C162.541 216.328 162.888 215.96 163.208 215.544C163.528 215.128 163.816 214.68 164.072 214.2C164.328 213.72 164.536 213.219 164.696 212.696C164.867 213.187 165.08 213.656 165.336 214.104C165.592 214.552 165.88 214.963 166.2 215.336C166.531 215.709 166.883 216.045 167.256 216.344C167.64 216.643 168.04 216.888 168.456 217.08L169.192 216.024C168.669 215.8 168.173 215.485 167.704 215.08C167.235 214.675 166.824 214.216 166.472 213.704C166.131 213.181 165.859 212.621 165.656 212.024C165.453 211.427 165.352 210.824 165.352 210.216ZM176.823 207.176H185.239V208.344H176.855V211.416H186.791V210.472H178.151V209.24H186.535V206.248H176.823V207.176ZM188.199 213.496V212.504H175.191V213.496H188.199ZM187.031 219.048H178.071V217.72H186.583V214.664H176.743V215.608H185.287V216.808H176.775V219.992H187.031V219.048ZM201.104 214.008H206.96V212.936H204.832C205.034 211.901 205.152 210.989 205.184 210.2C205.216 209.411 205.232 208.68 205.232 208.008V206.76H195.6V207.816H203.952V208.008C203.952 208.68 203.93 209.411 203.888 210.2C203.856 210.989 203.728 211.901 203.504 212.936H193.984V214.008H199.776V220.2H201.104V214.008ZM221.918 214.04V212.984H216.078V211.272H220.43V210.216H211.87V207.464H220.302V206.408H210.558V211.272H214.766V212.984H208.926V214.04H221.918ZM220.334 215.432H210.366V216.504H219.006V220.296H220.334V215.432ZM236.045 220.168V205.816H234.781V211.88H232.941V206.152H231.709V219.48H232.941V212.952H234.781V220.168H236.045ZM230.989 208.28H228.077V206.248H226.781V208.28H223.869V209.352H230.989V208.28ZM227.437 210.312C226.989 210.312 226.579 210.392 226.205 210.552C225.832 210.712 225.507 210.936 225.229 211.224C224.963 211.512 224.749 211.859 224.589 212.264C224.44 212.659 224.365 213.096 224.365 213.576C224.365 214.067 224.44 214.515 224.589 214.92C224.749 215.315 224.963 215.656 225.229 215.944C225.507 216.232 225.832 216.456 226.205 216.616C226.579 216.776 226.989 216.856 227.437 216.856C227.885 216.856 228.296 216.776 228.669 216.616C229.043 216.456 229.363 216.232 229.629 215.944C229.907 215.656 230.12 215.315 230.269 214.92C230.429 214.515 230.509 214.067 230.509 213.576C230.509 213.096 230.429 212.659 230.269 212.264C230.12 211.859 229.907 211.512 229.629 211.224C229.363 210.936 229.043 210.712 228.669 210.552C228.296 210.392 227.885 210.312 227.437 210.312ZM227.437 215.768C227.16 215.768 226.904 215.715 226.669 215.608C226.435 215.501 226.232 215.352 226.061 215.16C225.901 214.957 225.773 214.723 225.677 214.456C225.581 214.189 225.533 213.896 225.533 213.576C225.533 212.936 225.704 212.419 226.045 212.024C226.397 211.619 226.861 211.416 227.437 211.416C227.715 211.416 227.971 211.469 228.205 211.576C228.44 211.683 228.637 211.832 228.797 212.024C228.968 212.216 229.101 212.445 229.197 212.712C229.293 212.979 229.341 213.267 229.341 213.576C229.341 213.896 229.293 214.189 229.197 214.456C229.101 214.723 228.968 214.957 228.797 215.16C228.637 215.352 228.44 215.501 228.205 215.608C227.971 215.715 227.715 215.768 227.437 215.768ZM239.628 211.768L240.124 212.808C240.689 212.712 241.233 212.568 241.756 212.376C242.289 212.184 242.78 211.949 243.228 211.672C243.687 211.384 244.097 211.064 244.46 210.712C244.823 210.349 245.116 209.955 245.34 209.528C245.553 209.955 245.841 210.349 246.204 210.712C246.567 211.064 246.977 211.384 247.436 211.672C247.895 211.949 248.391 212.184 248.924 212.376C249.457 212.568 250.001 212.712 250.556 212.808L251.068 211.768C250.439 211.672 249.82 211.507 249.212 211.272C248.615 211.027 248.081 210.733 247.612 210.392C247.143 210.04 246.764 209.651 246.476 209.224C246.199 208.787 246.06 208.333 246.06 207.864V207.784H250.556V206.728H240.076V207.784H244.604V207.864C244.604 208.333 244.46 208.787 244.172 209.224C243.895 209.651 243.521 210.04 243.052 210.392C242.583 210.733 242.049 211.027 241.452 211.272C240.865 211.507 240.257 211.672 239.628 211.768ZM245.964 215.08H251.836L251.82 214.008H238.86V215.08H244.652V220.184H245.964V215.08ZM265.995 220.184V205.832H264.747V220.184H265.995ZM263.067 206.152H261.835V210.984H259.467V212.072H261.835V219.48H263.067V206.152ZM258.059 209.88V207.192H256.795V209.928C256.795 210.547 256.72 211.165 256.571 211.784C256.432 212.392 256.224 212.973 255.947 213.528C255.68 214.072 255.349 214.568 254.955 215.016C254.571 215.464 254.133 215.832 253.643 216.12L254.459 217.112C255.173 216.664 255.781 216.061 256.283 215.304C256.795 214.536 257.179 213.667 257.435 212.696C257.691 213.571 258.053 214.371 258.523 215.096C259.003 215.811 259.584 216.376 260.267 216.792L261.019 215.768C260.549 215.48 260.128 215.123 259.755 214.696C259.392 214.259 259.083 213.779 258.827 213.256C258.581 212.733 258.389 212.184 258.251 211.608C258.123 211.032 258.059 210.456 258.059 209.88ZM281.785 218.344V217.256H278.569V213.368C279.177 213.059 279.641 212.653 279.961 212.152C280.292 211.651 280.457 211.075 280.457 210.424C280.457 209.869 280.329 209.368 280.073 208.92C279.817 208.461 279.455 208.072 278.985 207.752C278.527 207.432 277.977 207.187 277.337 207.016C276.708 206.835 276.009 206.744 275.241 206.744C274.484 206.744 273.785 206.835 273.145 207.016C272.505 207.187 271.951 207.432 271.481 207.752C271.023 208.072 270.665 208.461 270.409 208.92C270.153 209.368 270.025 209.869 270.025 210.424C270.025 211.075 270.191 211.656 270.521 212.168C270.863 212.669 271.337 213.075 271.945 213.384V217.256H268.745V218.344H281.785ZM275.241 207.768C275.817 207.768 276.345 207.832 276.825 207.96C277.316 208.088 277.737 208.269 278.089 208.504C278.441 208.728 278.713 209.005 278.905 209.336C279.108 209.656 279.209 210.019 279.209 210.424C279.209 210.819 279.108 211.181 278.905 211.512C278.713 211.843 278.441 212.125 278.089 212.36C277.737 212.584 277.316 212.76 276.825 212.888C276.345 213.016 275.817 213.08 275.241 213.08C274.665 213.08 274.132 213.016 273.641 212.888C273.161 212.76 272.745 212.584 272.393 212.36C272.052 212.125 271.78 211.843 271.577 211.512C271.385 211.181 271.289 210.819 271.289 210.424C271.289 210.019 271.385 209.656 271.577 209.336C271.78 209.005 272.052 208.728 272.393 208.504C272.745 208.269 273.161 208.088 273.641 207.96C274.132 207.832 274.665 207.768 275.241 207.768ZM277.257 217.256H273.257V213.88C273.567 213.955 273.887 214.013 274.217 214.056C274.548 214.088 274.889 214.104 275.241 214.104C275.871 214.104 276.543 214.029 277.257 213.88V217.256Z" fill="#9FB0C6"/>
</svg>
