<svg width="266" height="380" viewBox="0 0 266 380" fill="none" xmlns="http://www.w3.org/2000/svg">
<path d="M0.6 82C0.6 79.5699 2.56995 77.6 5 77.6H261C263.43 77.6 265.4 79.5699 265.4 82V126.4H0.6V82Z" stroke="#A3B9D6" stroke-width="1.2"/>
<path d="M0.6 82C0.6 79.5699 2.56995 77.6 5 77.6H261C263.43 77.6 265.4 79.5699 265.4 82V297C265.4 299.43 263.43 301.4 261 301.4H5C2.56994 301.4 0.6 299.43 0.6 297V82Z" stroke="#A3B9D6" stroke-width="1.2"/>
<path d="M16.6025 95.624H25.0825V95.784C25.0825 96.3387 25.0665 96.904 25.0345 97.48C25.0025 98.0453 24.8905 98.696 24.6985 99.432L25.9785 99.576C26.1812 98.84 26.2985 98.168 26.3305 97.56C26.3625 96.952 26.3785 96.36 26.3785 95.784V94.568H16.6025V95.624ZM27.9945 101.592V100.52H21.6905V97.768H20.3785V100.52H15.0825V101.592H27.9945ZM21.4825 102.904C20.7145 102.904 20.0212 102.963 19.4025 103.08C18.7945 103.197 18.2718 103.373 17.8345 103.608C17.4078 103.832 17.0772 104.109 16.8425 104.44C16.6078 104.76 16.4905 105.128 16.4905 105.544C16.4905 105.949 16.6078 106.317 16.8425 106.648C17.0772 106.968 17.4078 107.24 17.8345 107.464C18.2718 107.688 18.7945 107.859 19.4025 107.976C20.0212 108.104 20.7145 108.168 21.4825 108.168C22.2505 108.168 22.9385 108.104 23.5465 107.976C24.1652 107.859 24.6932 107.688 25.1305 107.464C25.5678 107.24 25.9038 106.968 26.1385 106.648C26.3732 106.317 26.4905 105.949 26.4905 105.544C26.4905 105.128 26.3732 104.76 26.1385 104.44C25.9038 104.109 25.5678 103.832 25.1305 103.608C24.6932 103.373 24.1652 103.197 23.5465 103.08C22.9385 102.963 22.2505 102.904 21.4825 102.904ZM21.4825 107.144C20.3625 107.144 19.4665 107.005 18.7945 106.728C18.1332 106.44 17.8025 106.045 17.8025 105.544C17.8025 105.032 18.1332 104.632 18.7945 104.344C19.4665 104.056 20.3625 103.912 21.4825 103.912C22.6132 103.912 23.5092 104.056 24.1705 104.344C24.8425 104.632 25.1785 105.032 25.1785 105.544C25.1785 106.056 24.8425 106.451 24.1705 106.728C23.5092 107.005 22.6132 107.144 21.4825 107.144ZM41.7533 108.184V93.848H40.4412V108.184H41.7533ZM35.1292 98.216V96.392H38.5052V95.304H30.4892V96.392H33.8172V98.216C33.8172 98.8347 33.7159 99.4587 33.5132 100.088C33.3106 100.717 33.0332 101.309 32.6812 101.864C32.3399 102.408 31.9346 102.904 31.4652 103.352C31.0066 103.789 30.5212 104.131 30.0092 104.376L30.7772 105.432C31.1826 105.229 31.5719 104.968 31.9452 104.648C32.3186 104.328 32.6652 103.96 32.9852 103.544C33.3052 103.128 33.5932 102.68 33.8492 102.2C34.1052 101.72 34.3132 101.219 34.4732 100.696C34.6439 101.187 34.8572 101.656 35.1132 102.104C35.3692 102.552 35.6572 102.963 35.9772 103.336C36.3079 103.709 36.6599 104.045 37.0332 104.344C37.4172 104.643 37.8172 104.888 38.2332 105.08L38.9692 104.024C38.4466 103.8 37.9506 103.485 37.4812 103.08C37.0119 102.675 36.6012 102.216 36.2492 101.704C35.9079 101.181 35.6359 100.621 35.4332 100.024C35.2306 99.4267 35.1292 98.824 35.1292 98.216ZM56.008 100.744H58.376V99.656H56.008V93.848H54.696V108.184H56.008V100.744ZM49.784 97.656V95.08H48.488V97.656C48.488 98.3067 48.392 98.9573 48.2 99.608C48.008 100.259 47.7467 100.872 47.416 101.448C47.0853 102.013 46.6907 102.525 46.232 102.984C45.784 103.443 45.304 103.805 44.792 104.072L45.576 105.128C46.3867 104.68 47.1067 104.045 47.736 103.224C48.3653 102.392 48.8347 101.443 49.144 100.376C49.304 100.867 49.5013 101.341 49.736 101.8C49.9813 102.248 50.248 102.664 50.536 103.048C50.8347 103.432 51.16 103.779 51.512 104.088C51.864 104.387 52.232 104.637 52.616 104.84L53.432 103.8C52.9307 103.544 52.456 103.197 52.008 102.76C51.5707 102.323 51.1867 101.832 50.856 101.288C50.5253 100.744 50.264 100.163 50.072 99.544C49.88 98.9147 49.784 98.2853 49.784 97.656ZM59.9748 96.504H68.4388V95.448H64.8548V93.704H63.5428V95.448H59.9748V96.504ZM73.1908 98.904V97.816H71.0628V93.832H69.7508V103.064H71.0628V98.904H73.1908ZM67.6388 99.752C67.6388 99.368 67.5534 99.0213 67.3828 98.712C67.2228 98.4027 66.9881 98.136 66.6788 97.912C66.3801 97.688 66.0174 97.5173 65.5908 97.4C65.1748 97.2827 64.7108 97.224 64.1988 97.224C63.6868 97.224 63.2174 97.2827 62.7908 97.4C62.3748 97.5173 62.0174 97.688 61.7188 97.912C61.4201 98.136 61.1854 98.4027 61.0148 98.712C60.8548 99.0213 60.7748 99.368 60.7748 99.752C60.7748 100.136 60.8548 100.488 61.0148 100.808C61.1854 101.117 61.4201 101.384 61.7188 101.608C62.0174 101.832 62.3748 102.003 62.7908 102.12C63.2174 102.237 63.6868 102.296 64.1988 102.296C64.7108 102.296 65.1748 102.237 65.5908 102.12C66.0174 102.003 66.3801 101.832 66.6788 101.608C66.9881 101.384 67.2228 101.117 67.3828 100.808C67.5534 100.488 67.6388 100.136 67.6388 99.752ZM62.0228 99.752C62.0228 99.272 62.2201 98.8987 62.6148 98.632C63.0201 98.3547 63.5481 98.216 64.1988 98.216C64.8708 98.216 65.4041 98.3547 65.7988 98.632C66.1934 98.8987 66.3908 99.272 66.3908 99.752C66.3908 100.232 66.1934 100.611 65.7988 100.888C65.4041 101.165 64.8708 101.304 64.1988 101.304C63.5481 101.304 63.0201 101.165 62.6148 100.888C62.2201 100.611 62.0228 100.232 62.0228 99.752ZM66.5668 103.208C65.8414 103.208 65.1908 103.267 64.6148 103.384C64.0388 103.491 63.5481 103.651 63.1428 103.864C62.7374 104.067 62.4281 104.323 62.2148 104.632C62.0014 104.941 61.8948 105.293 61.8948 105.688C61.8948 106.083 62.0014 106.435 62.2148 106.744C62.4281 107.053 62.7374 107.309 63.1428 107.512C63.5481 107.725 64.0388 107.885 64.6148 107.992C65.1908 108.109 65.8414 108.168 66.5668 108.168C67.2921 108.168 67.9428 108.109 68.5188 107.992C69.0948 107.885 69.5801 107.725 69.9748 107.512C70.3801 107.299 70.6894 107.043 70.9028 106.744C71.1268 106.435 71.2388 106.083 71.2388 105.688C71.2388 105.293 71.1268 104.941 70.9028 104.632C70.6894 104.323 70.3801 104.067 69.9748 103.864C69.5801 103.651 69.0948 103.491 68.5188 103.384C67.9428 103.267 67.2921 103.208 66.5668 103.208ZM66.5668 107.16C65.5001 107.16 64.6681 107.037 64.0708 106.792C63.4841 106.536 63.1908 106.168 63.1908 105.688C63.1908 105.208 63.4841 104.845 64.0708 104.6C64.6681 104.344 65.5001 104.216 66.5668 104.216C67.6334 104.216 68.4601 104.344 69.0468 104.6C69.6441 104.845 69.9428 105.208 69.9428 105.688C69.9428 106.168 69.6441 106.536 69.0468 106.792C68.4601 107.037 67.6334 107.16 66.5668 107.16Z" fill="#A3B9D6"/>
<path d="M16.6025 95.624H16.4025V95.824H16.6025V95.624ZM25.0825 95.624H25.2825V95.424H25.0825V95.624ZM25.0345 97.48L25.2342 97.4913L25.2342 97.4911L25.0345 97.48ZM24.6985 99.432L24.505 99.3815L24.4467 99.6049L24.6761 99.6307L24.6985 99.432ZM25.9785 99.576L25.9561 99.7747L26.126 99.7938L26.1713 99.6291L25.9785 99.576ZM26.3305 97.56L26.1308 97.5495L26.3305 97.56ZM26.3785 94.568H26.5785V94.368H26.3785V94.568ZM16.6025 94.568V94.368H16.4025V94.568H16.6025ZM27.9945 101.592V101.792H28.1945V101.592H27.9945ZM27.9945 100.52H28.1945V100.32H27.9945V100.52ZM21.6905 100.52H21.4905V100.72H21.6905V100.52ZM21.6905 97.768H21.8905V97.568H21.6905V97.768ZM20.3785 97.768V97.568H20.1785V97.768H20.3785ZM20.3785 100.52V100.72H20.5785V100.52H20.3785ZM15.0825 100.52V100.32H14.8825V100.52H15.0825ZM15.0825 101.592H14.8825V101.792H15.0825V101.592ZM19.4025 103.08L19.3652 102.884L19.3646 102.884L19.4025 103.08ZM17.8345 103.608L17.9275 103.785L17.9291 103.784L17.8345 103.608ZM16.8425 104.44L17.0038 104.558L17.0056 104.556L16.8425 104.44ZM16.8425 106.648L16.6794 106.764L16.6812 106.766L16.8425 106.648ZM17.8345 107.464L17.7415 107.641L17.7433 107.642L17.8345 107.464ZM19.4025 107.976L19.443 107.78L19.4404 107.78L19.4025 107.976ZM23.5465 107.976L23.5092 107.779L23.5053 107.78L23.5465 107.976ZM25.1305 107.464L25.2217 107.642L25.1305 107.464ZM26.1385 106.648L26.2998 106.766L26.3016 106.764L26.1385 106.648ZM26.1385 104.44L25.9754 104.556L25.9772 104.558L26.1385 104.44ZM25.1305 103.608L25.0359 103.784L25.0393 103.786L25.1305 103.608ZM23.5465 103.08L23.5086 103.276L23.5092 103.276L23.5465 103.08ZM18.7945 106.728L18.7146 106.911L18.7182 106.913L18.7945 106.728ZM18.7945 104.344L18.7157 104.16L18.7146 104.161L18.7945 104.344ZM24.1705 104.344L24.0906 104.527L24.0917 104.528L24.1705 104.344ZM24.1705 106.728L24.0942 106.543L24.0932 106.544L24.1705 106.728ZM16.6025 95.824H25.0825V95.424H16.6025V95.824ZM24.8825 95.624V95.784H25.2825V95.624H24.8825ZM24.8825 95.784C24.8825 96.3348 24.8666 96.8965 24.8348 97.4689L25.2342 97.4911C25.2664 96.9115 25.2825 96.3425 25.2825 95.784H24.8825ZM24.8348 97.4687C24.8038 98.0172 24.6947 98.6543 24.505 99.3815L24.892 99.4825C25.0863 98.7377 25.2012 98.0735 25.2342 97.4913L24.8348 97.4687ZM24.6761 99.6307L25.9561 99.7747L26.0009 99.3773L24.7209 99.2333L24.6761 99.6307ZM26.1713 99.6291C26.3769 98.8825 26.4973 98.196 26.5302 97.5705L26.1308 97.5495C26.0997 98.14 25.9854 98.7975 25.7857 99.5229L26.1713 99.6291ZM26.5302 97.5705C26.5624 96.9592 26.5785 96.3637 26.5785 95.784H26.1785C26.1785 96.3563 26.1626 96.9448 26.1308 97.5495L26.5302 97.5705ZM26.5785 95.784V94.568H26.1785V95.784H26.5785ZM26.3785 94.368H16.6025V94.768H26.3785V94.368ZM16.4025 94.568V95.624H16.8025V94.568H16.4025ZM28.1945 101.592V100.52H27.7945V101.592H28.1945ZM27.9945 100.32H21.6905V100.72H27.9945V100.32ZM21.8905 100.52V97.768H21.4905V100.52H21.8905ZM21.6905 97.568H20.3785V97.968H21.6905V97.568ZM20.1785 97.768V100.52H20.5785V97.768H20.1785ZM20.3785 100.32H15.0825V100.72H20.3785V100.32ZM14.8825 100.52V101.592H15.2825V100.52H14.8825ZM15.0825 101.792H27.9945V101.392H15.0825V101.792ZM21.4825 102.704C20.7046 102.704 19.9985 102.763 19.3652 102.884L19.4398 103.276C20.0438 103.162 20.7244 103.104 21.4825 103.104V102.704ZM19.3646 102.884C18.7415 103.004 18.1988 103.186 17.7399 103.432L17.9291 103.784C18.3449 103.561 18.8475 103.391 19.4404 103.276L19.3646 102.884ZM17.7415 103.431C17.2922 103.667 16.9354 103.963 16.6794 104.324L17.0056 104.556C17.2189 104.255 17.5235 103.997 17.9275 103.785L17.7415 103.431ZM16.6812 104.322C16.4201 104.678 16.2905 105.088 16.2905 105.544H16.6905C16.6905 105.168 16.7955 104.842 17.0038 104.558L16.6812 104.322ZM16.2905 105.544C16.2905 105.991 16.4207 106.399 16.6794 106.764L17.0056 106.532C16.7949 106.235 16.6905 105.908 16.6905 105.544H16.2905ZM16.6812 106.766C16.9373 107.116 17.2936 107.406 17.7415 107.641L17.9275 107.287C17.5221 107.074 17.217 106.82 17.0038 106.53L16.6812 106.766ZM17.7433 107.642C18.2012 107.877 18.7426 108.052 19.3646 108.172L19.4404 107.78C18.8464 107.665 18.3425 107.499 17.9257 107.286L17.7433 107.642ZM19.362 108.172C19.9965 108.303 20.7037 108.368 21.4825 108.368V107.968C20.7253 107.968 20.0459 107.905 19.443 107.78L19.362 108.172ZM21.4825 108.368C22.2612 108.368 22.9634 108.303 23.5877 108.172L23.5053 107.78C22.9136 107.905 22.2398 107.968 21.4825 107.968V108.368ZM23.5838 108.172C24.2162 108.053 24.7634 107.877 25.2217 107.642L25.0393 107.286C24.623 107.499 24.1141 107.665 23.5092 107.78L23.5838 108.172ZM25.2217 107.642C25.6802 107.407 26.0428 107.117 26.2998 106.766L25.9772 106.53C25.7648 106.819 25.4554 107.073 25.0393 107.286L25.2217 107.642ZM26.3016 106.764C26.5603 106.399 26.6905 105.991 26.6905 105.544H26.2905C26.2905 105.908 26.1861 106.235 25.9754 106.532L26.3016 106.764ZM26.6905 105.544C26.6905 105.088 26.5609 104.678 26.2998 104.322L25.9772 104.558C26.1855 104.842 26.2905 105.168 26.2905 105.544H26.6905ZM26.3016 104.324C26.0448 103.962 25.6816 103.666 25.2217 103.43L25.0393 103.786C25.454 103.998 25.7629 104.256 25.9754 104.556L26.3016 104.324ZM25.2251 103.432C24.7657 103.185 24.2173 103.004 23.5838 102.884L23.5092 103.276C24.113 103.391 24.6206 103.561 25.0359 103.784L25.2251 103.432ZM23.5844 102.884C22.9614 102.763 22.2603 102.704 21.4825 102.704V103.104C22.2407 103.104 22.9156 103.162 23.5086 103.276L23.5844 102.884ZM21.4825 106.944C20.376 106.944 19.5091 106.807 18.8708 106.543L18.7182 106.913C19.4239 107.204 20.349 107.344 21.4825 107.344V106.944ZM18.8744 106.545C18.2487 106.272 18.0025 105.932 18.0025 105.544H17.6025C17.6025 106.159 18.0176 106.608 18.7146 106.911L18.8744 106.545ZM18.0025 105.544C18.0025 105.144 18.2509 104.799 18.8744 104.527L18.7146 104.161C18.0154 104.465 17.6025 104.92 17.6025 105.544H18.0025ZM18.8733 104.528C19.5107 104.255 20.3766 104.112 21.4825 104.112V103.712C20.3484 103.712 19.4223 103.857 18.7157 104.16L18.8733 104.528ZM21.4825 104.112C22.5996 104.112 23.4647 104.255 24.0906 104.527L24.2504 104.161C23.5536 103.857 22.6267 103.712 21.4825 103.712V104.112ZM24.0917 104.528C24.7271 104.8 24.9785 105.146 24.9785 105.544H25.3785C25.3785 104.918 24.9579 104.464 24.2493 104.16L24.0917 104.528ZM24.9785 105.544C24.9785 105.941 24.7285 106.281 24.0942 106.543L24.2468 106.913C24.9565 106.62 25.3785 106.171 25.3785 105.544H24.9785ZM24.0932 106.544C23.4663 106.806 22.6002 106.944 21.4825 106.944V107.344C22.6261 107.344 23.552 107.204 24.2478 106.912L24.0932 106.544ZM41.7533 108.184V108.384H41.9533V108.184H41.7533ZM41.7533 93.848H41.9533V93.648H41.7533V93.848ZM40.4412 93.848V93.648H40.2412V93.848H40.4412ZM40.4412 108.184H40.2412V108.384H40.4412V108.184ZM35.1292 96.392V96.192H34.9292V96.392H35.1292ZM38.5052 96.392V96.592H38.7052V96.392H38.5052ZM38.5052 95.304H38.7052V95.104H38.5052V95.304ZM30.4893 95.304V95.104H30.2892V95.304H30.4893ZM30.4893 96.392H30.2892V96.592H30.4893V96.392ZM33.8172 96.392H34.0173V96.192H33.8172V96.392ZM33.5132 100.088L33.7036 100.149L33.5132 100.088ZM32.6812 101.864L32.5124 101.757L32.5118 101.758L32.6812 101.864ZM31.4653 103.352L31.6033 103.497L31.6033 103.497L31.4653 103.352ZM30.0092 104.376L29.9228 104.196L29.7062 104.299L29.8475 104.494L30.0092 104.376ZM30.7772 105.432L30.6155 105.55L30.7152 105.687L30.8667 105.611L30.7772 105.432ZM31.9452 104.648L32.0754 104.8L31.9452 104.648ZM32.9852 103.544L32.8267 103.422L32.9852 103.544ZM33.8492 102.2L34.0257 102.294L33.8492 102.2ZM34.4732 100.696L34.6621 100.63L34.4611 100.052L34.282 100.637L34.4732 100.696ZM35.1132 102.104L34.9396 102.203L35.1132 102.104ZM35.9772 103.336L35.8254 103.466L35.8275 103.469L35.9772 103.336ZM37.0332 104.344L36.9083 104.5L36.9105 104.502L37.0332 104.344ZM38.2332 105.08L38.1494 105.262L38.3015 105.332L38.3973 105.194L38.2332 105.08ZM38.9692 104.024L39.1333 104.138L39.2737 103.937L39.048 103.84L38.9692 104.024ZM37.4813 103.08L37.612 102.929L37.4813 103.08ZM36.2492 101.704L36.0817 101.813L36.0844 101.817L36.2492 101.704ZM41.9533 108.184V93.848H41.5532V108.184H41.9533ZM41.7533 93.648H40.4412V94.048H41.7533V93.648ZM40.2412 93.848V108.184H40.6413V93.848H40.2412ZM40.4412 108.384H41.7533V107.984H40.4412V108.384ZM35.3293 98.216V96.392H34.9292V98.216H35.3293ZM35.1292 96.592H38.5052V96.192H35.1292V96.592ZM38.7052 96.392V95.304H38.3053V96.392H38.7052ZM38.5052 95.104H30.4893V95.504H38.5052V95.104ZM30.2892 95.304V96.392H30.6892V95.304H30.2892ZM30.4893 96.592H33.8172V96.192H30.4893V96.592ZM33.6172 96.392V98.216H34.0173V96.392H33.6172ZM33.6172 98.216C33.6172 98.8125 33.5196 99.4158 33.3229 100.027L33.7036 100.149C33.9122 99.5015 34.0173 98.8569 34.0173 98.216H33.6172ZM33.3229 100.027C33.1254 100.64 32.8552 101.217 32.5124 101.757L32.8501 101.971C33.2113 101.402 33.4958 100.795 33.7036 100.149L33.3229 100.027ZM32.5118 101.758C32.1794 102.288 31.7846 102.771 31.3272 103.207L31.6033 103.497C32.0845 103.037 32.5004 102.528 32.8507 101.97L32.5118 101.758ZM31.3272 103.207C30.882 103.632 30.4138 103.96 29.9228 104.196L30.0957 104.556C30.6287 104.301 31.1311 103.947 31.6033 103.497L31.3272 103.207ZM29.8475 104.494L30.6155 105.55L30.939 105.314L30.171 104.258L29.8475 104.494ZM30.8667 105.611C31.2878 105.4 31.6907 105.13 32.0754 104.8L31.8151 104.496C31.4531 104.806 31.0773 105.058 30.6878 105.253L30.8667 105.611ZM32.0754 104.8C32.4599 104.47 32.8159 104.092 33.1438 103.666L32.8267 103.422C32.5146 103.828 32.1773 104.186 31.8151 104.496L32.0754 104.8ZM33.1438 103.666C33.4708 103.241 33.7647 102.784 34.0257 102.294L33.6728 102.106C33.4218 102.576 33.1397 103.015 32.8267 103.422L33.1438 103.666ZM34.0257 102.294C34.2878 101.803 34.5007 101.289 34.6645 100.755L34.282 100.637C34.1258 101.148 33.9227 101.637 33.6728 102.106L34.0257 102.294ZM34.2843 100.762C34.459 101.264 34.6775 101.744 34.9396 102.203L35.2869 102.005C35.037 101.568 34.8288 101.109 34.6621 100.63L34.2843 100.762ZM34.9396 102.203C35.2016 102.662 35.4968 103.083 35.8254 103.466L36.1291 103.206C35.8177 102.843 35.5369 102.442 35.2869 102.005L34.9396 102.203ZM35.8275 103.469C36.1654 103.85 36.5257 104.194 36.9083 104.5L37.1582 104.188C36.7941 103.897 36.4504 103.569 36.127 103.203L35.8275 103.469ZM36.9105 104.502C37.3058 104.809 37.7188 105.063 38.1494 105.262L38.3171 104.898C37.9157 104.713 37.5287 104.476 37.156 104.186L36.9105 104.502ZM38.3973 105.194L39.1333 104.138L38.8052 103.91L38.0692 104.966L38.3973 105.194ZM39.048 103.84C38.5459 103.625 38.0672 103.322 37.612 102.929L37.3505 103.231C37.834 103.649 38.3473 103.975 38.8905 104.208L39.048 103.84ZM37.612 102.929C37.1556 102.535 36.7564 102.089 36.4141 101.591L36.0844 101.817C36.4461 102.343 36.8682 102.815 37.3505 103.231L37.612 102.929ZM36.4167 101.595C36.0846 101.086 35.82 100.541 35.6226 99.9597L35.2439 100.088C35.4519 100.701 35.7312 101.276 36.0818 101.813L36.4167 101.595ZM35.6226 99.9597C35.4267 99.3823 35.3293 98.8013 35.3293 98.216H34.9292C34.9292 98.8467 35.0344 99.471 35.2439 100.088L35.6226 99.9597ZM56.008 100.744V100.544H55.808V100.744H56.008ZM58.376 100.744V100.944H58.576V100.744H58.376ZM58.376 99.656H58.576V99.456H58.376V99.656ZM56.008 99.656H55.808V99.856H56.008V99.656ZM56.008 93.848H56.208V93.648H56.008V93.848ZM54.696 93.848V93.648H54.496V93.848H54.696ZM54.696 108.184H54.496V108.384H54.696V108.184ZM56.008 108.184V108.384H56.208V108.184H56.008ZM49.784 95.08H49.984V94.88H49.784V95.08ZM48.488 95.08V94.88H48.288V95.08H48.488ZM48.2 99.608L48.3918 99.6646L48.2 99.608ZM47.416 101.448L47.5886 101.549L47.5895 101.548L47.416 101.448ZM46.232 102.984L46.0906 102.843L46.0889 102.844L46.232 102.984ZM44.792 104.072L44.6996 103.895L44.4916 104.003L44.6314 104.191L44.792 104.072ZM45.576 105.128L45.4154 105.247L45.5197 105.388L45.6727 105.303L45.576 105.128ZM47.736 103.224L47.8948 103.346L47.8955 103.345L47.736 103.224ZM49.144 100.376L49.3341 100.314L49.1328 99.6965L48.9519 100.32L49.144 100.376ZM49.736 101.8L49.5579 101.891L49.5606 101.896L49.736 101.8ZM50.536 103.048L50.376 103.168L50.3781 103.171L50.536 103.048ZM51.512 104.088L51.38 104.238L51.3826 104.241L51.512 104.088ZM52.616 104.84L52.5226 105.017L52.6703 105.095L52.7733 104.963L52.616 104.84ZM53.432 103.8L53.5893 103.923L53.7393 103.732L53.523 103.622L53.432 103.8ZM52.008 102.76L51.8666 102.901L51.8683 102.903L52.008 102.76ZM50.856 101.288L51.0269 101.184L50.856 101.288ZM50.072 99.544L49.8807 99.6024L49.881 99.6033L50.072 99.544ZM56.008 100.944H58.376V100.544H56.008V100.944ZM58.576 100.744V99.656H58.176V100.744H58.576ZM58.376 99.456H56.008V99.856H58.376V99.456ZM56.208 99.656V93.848H55.808V99.656H56.208ZM56.008 93.648H54.696V94.048H56.008V93.648ZM54.496 93.848V108.184H54.896V93.848H54.496ZM54.696 108.384H56.008V107.984H54.696V108.384ZM56.208 108.184V100.744H55.808V108.184H56.208ZM49.984 97.656V95.08H49.584V97.656H49.984ZM49.784 94.88H48.488V95.28H49.784V94.88ZM48.288 95.08V97.656H48.688V95.08H48.288ZM48.288 97.656C48.288 98.2867 48.195 98.9183 48.0082 99.5514L48.3918 99.6646C48.589 98.9963 48.688 98.3266 48.688 97.656H48.288ZM48.0082 99.5514C47.8205 100.187 47.5653 100.786 47.2425 101.348L47.5895 101.548C47.9281 100.958 48.1955 100.33 48.3918 99.6646L48.0082 99.5514ZM47.2434 101.347C46.9212 101.898 46.537 102.396 46.0906 102.843L46.3734 103.125C46.8443 102.655 47.2494 102.129 47.5886 101.549L47.2434 101.347ZM46.0889 102.844C45.6541 103.289 45.1909 103.639 44.6996 103.895L44.8844 104.249C45.4171 103.972 45.9139 103.596 46.3751 103.124L46.0889 102.844ZM44.6314 104.191L45.4154 105.247L45.7366 105.009L44.9526 103.953L44.6314 104.191ZM45.6727 105.303C46.5102 104.84 47.2506 104.186 47.8948 103.346L47.5772 103.102C46.9627 103.904 46.2631 104.52 45.4793 104.953L45.6727 105.303ZM47.8955 103.345C48.5405 102.492 49.0204 101.52 49.3361 100.432L48.9519 100.32C48.6489 101.365 48.1902 102.292 47.5765 103.103L47.8955 103.345ZM48.9539 100.438C49.1171 100.939 49.3185 101.423 49.5579 101.891L49.914 101.709C49.6842 101.26 49.4909 100.795 49.3341 100.314L48.9539 100.438ZM49.5606 101.896C49.8102 102.352 50.0819 102.776 50.376 103.168L50.696 102.928C50.4141 102.552 50.1525 102.144 49.9114 101.704L49.5606 101.896ZM50.3781 103.171C50.6842 103.564 51.0182 103.92 51.38 104.238L51.644 103.938C51.3018 103.637 50.9851 103.3 50.6939 102.925L50.3781 103.171ZM51.3826 104.241C51.745 104.548 52.125 104.807 52.5226 105.017L52.7094 104.663C52.339 104.468 51.983 104.225 51.6414 103.935L51.3826 104.241ZM52.7733 104.963L53.5893 103.923L53.2747 103.677L52.4587 104.717L52.7733 104.963ZM53.523 103.622C53.0414 103.376 52.5829 103.042 52.1477 102.617L51.8683 102.903C52.3291 103.353 52.8199 103.712 53.341 103.978L53.523 103.622ZM52.1494 102.619C51.7237 102.193 51.3495 101.715 51.0269 101.184L50.6851 101.392C51.0238 101.949 51.4176 102.452 51.8666 102.901L52.1494 102.619ZM51.0269 101.184C50.7049 100.654 50.4502 100.088 50.263 99.4847L49.881 99.6033C50.0778 100.237 50.3458 100.834 50.6851 101.392L51.0269 101.184ZM50.2633 99.4856C50.0768 98.8744 49.984 98.2647 49.984 97.656H49.584C49.584 98.306 49.6832 98.955 49.8807 99.6024L50.2633 99.4856ZM59.9748 96.504H59.7747V96.704H59.9748V96.504ZM68.4388 96.504V96.704H68.6388V96.504H68.4388ZM68.4388 95.448H68.6388V95.248H68.4388V95.448ZM64.8548 95.448H64.6548V95.648H64.8548V95.448ZM64.8548 93.704H65.0548V93.504H64.8548V93.704ZM63.5428 93.704V93.504H63.3428V93.704H63.5428ZM63.5428 95.448V95.648H63.7428V95.448H63.5428ZM59.9748 95.448V95.248H59.7747V95.448H59.9748ZM73.1908 98.904V99.104H73.3908V98.904H73.1908ZM73.1908 97.816H73.3908V97.616H73.1908V97.816ZM71.0628 97.816H70.8628V98.016H71.0628V97.816ZM71.0628 93.832H71.2628V93.632H71.0628V93.832ZM69.7508 93.832V93.632H69.5508V93.832H69.7508ZM69.7508 103.064H69.5508V103.264H69.7508V103.064ZM71.0628 103.064V103.264H71.2628V103.064H71.0628ZM71.0628 98.904V98.704H70.8628V98.904H71.0628ZM67.3828 98.712L67.205 98.8039L67.2076 98.8086L67.3828 98.712ZM66.6787 97.912L66.5587 98.072L66.5615 98.074L66.6787 97.912ZM65.5908 97.4L65.5365 97.5925L65.5377 97.5928L65.5908 97.4ZM62.7908 97.4L62.7377 97.2072L62.7365 97.2075L62.7908 97.4ZM61.7188 97.912L61.8387 98.072L61.7188 97.912ZM61.0148 98.712L60.8396 98.6153L60.8371 98.6201L61.0148 98.712ZM61.0148 100.808L60.8357 100.898L60.8396 100.905L61.0148 100.808ZM62.7908 102.12L62.7365 102.312L62.7377 102.313L62.7908 102.12ZM65.5908 102.12L65.5377 101.927L65.5365 101.928L65.5908 102.12ZM66.6787 101.608L66.5614 101.446L66.5588 101.448L66.6787 101.608ZM67.3828 100.808L67.2063 100.714L67.2051 100.716L67.3828 100.808ZM62.6147 98.632L62.7267 98.7977L62.7277 98.7971L62.6147 98.632ZM65.7988 98.632L65.6837 98.7957L65.6868 98.7977L65.7988 98.632ZM65.7988 100.888L65.6838 100.724L65.7988 100.888ZM62.6147 100.888L62.4998 101.052L62.5018 101.053L62.6147 100.888ZM64.6147 103.384L64.6512 103.581L64.6547 103.58L64.6147 103.384ZM63.1427 103.864L63.2322 104.043L63.2359 104.041L63.1427 103.864ZM63.1427 107.512L63.2359 107.335L63.2322 107.333L63.1427 107.512ZM64.6147 107.992L64.6547 107.796L64.6512 107.795L64.6147 107.992ZM68.5188 107.992L68.4823 107.795L68.4788 107.796L68.5188 107.992ZM69.9748 107.512L69.8816 107.335L69.8796 107.336L69.9748 107.512ZM70.9028 106.744L70.7408 106.627L70.74 106.628L70.9028 106.744ZM70.9028 104.632L70.7381 104.746L70.7408 104.749L70.9028 104.632ZM69.9748 103.864L69.8796 104.04L69.8853 104.043L69.9748 103.864ZM68.5188 103.384L68.4788 103.58L68.4823 103.581L68.5188 103.384ZM64.0708 106.792L63.9907 106.975L63.9948 106.977L64.0708 106.792ZM64.0708 104.6L64.1479 104.785L64.1495 104.784L64.0708 104.6ZM69.0468 104.6L68.9667 104.783L68.9708 104.785L69.0468 104.6ZM69.0468 106.792L69.1239 106.977L69.1255 106.976L69.0468 106.792ZM59.9748 96.704H68.4388V96.304H59.9748V96.704ZM68.6388 96.504V95.448H68.2388V96.504H68.6388ZM68.4388 95.248H64.8548V95.648H68.4388V95.248ZM65.0548 95.448V93.704H64.6548V95.448H65.0548ZM64.8548 93.504H63.5428V93.904H64.8548V93.504ZM63.3428 93.704V95.448H63.7428V93.704H63.3428ZM63.5428 95.248H59.9748V95.648H63.5428V95.248ZM59.7747 95.448V96.504H60.1748V95.448H59.7747ZM73.3908 98.904V97.816H72.9907V98.904H73.3908ZM73.1908 97.616H71.0628V98.016H73.1908V97.616ZM71.2628 97.816V93.832H70.8628V97.816H71.2628ZM71.0628 93.632H69.7508V94.032H71.0628V93.632ZM69.5508 93.832V103.064H69.9508V93.832H69.5508ZM69.7508 103.264H71.0628V102.864H69.7508V103.264ZM71.2628 103.064V98.904H70.8628V103.064H71.2628ZM71.0628 99.104H73.1908V98.704H71.0628V99.104ZM67.8388 99.752C67.8388 99.3372 67.7463 98.9568 67.5579 98.6154L67.2076 98.8086C67.3606 99.0858 67.4388 99.3988 67.4388 99.752H67.8388ZM67.5604 98.6201C67.3847 98.2804 67.1282 97.9905 66.7961 97.75L66.5615 98.074C66.848 98.2815 67.0608 98.5249 67.2051 98.8039L67.5604 98.6201ZM66.7988 97.752C66.4767 97.5104 66.0902 97.3299 65.6438 97.2072L65.5377 97.5928C65.9446 97.7047 66.2835 97.8656 66.5588 98.072L66.7988 97.752ZM65.645 97.2075C65.2085 97.0844 64.7258 97.024 64.1987 97.024V97.424C64.6957 97.424 65.141 97.481 65.5365 97.5925L65.645 97.2075ZM64.1987 97.024C63.6716 97.024 63.1841 97.0844 62.7377 97.2072L62.8438 97.5928C63.2507 97.4809 63.7019 97.424 64.1987 97.424V97.024ZM62.7365 97.2075C62.3004 97.3305 61.92 97.5111 61.5988 97.752L61.8387 98.072C62.1149 97.8649 62.4491 97.7042 62.845 97.5925L62.7365 97.2075ZM61.5988 97.752C61.2787 97.992 61.0247 98.2799 60.8396 98.6154L61.1899 98.8086C61.3461 98.5255 61.5614 98.28 61.8387 98.072L61.5988 97.752ZM60.8371 98.6201C60.661 98.9607 60.5747 99.3394 60.5747 99.752H60.9748C60.9748 99.3966 61.0485 99.082 61.1924 98.8039L60.8371 98.6201ZM60.5747 99.752C60.5747 100.165 60.661 100.548 60.8359 100.897L61.1936 100.719C61.0485 100.428 60.9748 100.107 60.9748 99.752H60.5747ZM60.8396 100.905C61.0247 101.24 61.2787 101.528 61.5988 101.768L61.8387 101.448C61.5614 101.24 61.3461 100.995 61.1899 100.711L60.8396 100.905ZM61.5988 101.768C61.92 102.009 62.3004 102.19 62.7365 102.312L62.845 101.928C62.4491 101.816 62.1149 101.655 61.8387 101.448L61.5988 101.768ZM62.7377 102.313C63.1841 102.436 63.6716 102.496 64.1987 102.496V102.096C63.7019 102.096 63.2507 102.039 62.8438 101.927L62.7377 102.313ZM64.1987 102.496C64.7258 102.496 65.2085 102.436 65.645 102.312L65.5365 101.928C65.141 102.039 64.6957 102.096 64.1987 102.096V102.496ZM65.6438 102.313C66.0902 102.19 66.4767 102.01 66.7988 101.768L66.5588 101.448C66.2835 101.654 65.9446 101.815 65.5377 101.927L65.6438 102.313ZM66.7961 101.77C67.1282 101.529 67.3847 101.24 67.5604 100.9L67.2051 100.716C67.0608 100.995 66.848 101.239 66.5614 101.446L66.7961 101.77ZM67.5592 100.902C67.7462 100.551 67.8388 100.167 67.8388 99.752H67.4388C67.4388 100.105 67.3606 100.425 67.2063 100.714L67.5592 100.902ZM62.2228 99.752C62.2228 99.3378 62.3876 99.0268 62.7267 98.7977L62.5028 98.4663C62.0526 98.7705 61.8228 99.2062 61.8228 99.752H62.2228ZM62.7277 98.7971C63.0905 98.5488 63.5755 98.416 64.1987 98.416V98.016C63.5207 98.016 62.9497 98.1605 62.5018 98.4669L62.7277 98.7971ZM64.1987 98.416C64.8453 98.416 65.3337 98.5496 65.6838 98.7956L65.9137 98.4684C65.4745 98.1597 64.8962 98.016 64.1987 98.016V98.416ZM65.6868 98.7977C66.0259 99.0268 66.1908 99.3378 66.1908 99.752H66.5908C66.5908 99.2062 66.3609 98.7705 65.9107 98.4663L65.6868 98.7977ZM66.1908 99.752C66.1908 100.166 66.0255 100.484 65.6838 100.724L65.9137 101.052C66.3614 100.737 66.5908 100.298 66.5908 99.752H66.1908ZM65.6838 100.724C65.3337 100.97 64.8453 101.104 64.1987 101.104V101.504C64.8962 101.504 65.4745 101.36 65.9137 101.052L65.6838 100.724ZM64.1987 101.104C63.5755 101.104 63.0905 100.971 62.7277 100.723L62.5018 101.053C62.9497 101.359 63.5207 101.504 64.1987 101.504V101.104ZM62.7297 100.724C62.3881 100.484 62.2228 100.166 62.2228 99.752H61.8228C61.8228 100.298 62.0521 100.737 62.4998 101.052L62.7297 100.724ZM66.5667 103.008C65.831 103.008 65.1666 103.067 64.5748 103.188L64.6547 103.58C65.2149 103.466 65.8518 103.408 66.5667 103.408V103.008ZM64.5783 103.187C63.9878 103.297 63.4769 103.462 63.0496 103.687L63.2359 104.041C63.6193 103.839 64.0897 103.685 64.6512 103.581L64.5783 103.187ZM63.0533 103.685C62.624 103.9 62.2862 104.176 62.0501 104.518L62.3794 104.746C62.57 104.469 62.8508 104.234 63.2322 104.043L63.0533 103.685ZM62.0501 104.518C61.8126 104.863 61.6948 105.255 61.6948 105.688H62.0947C62.0947 105.332 62.1903 105.02 62.3794 104.746L62.0501 104.518ZM61.6948 105.688C61.6948 106.121 61.8126 106.513 62.0501 106.858L62.3794 106.63C62.1903 106.356 62.0947 106.044 62.0947 105.688H61.6948ZM62.0501 106.858C62.2862 107.2 62.624 107.476 63.0533 107.691L63.2322 107.333C62.8508 107.142 62.57 106.907 62.3794 106.63L62.0501 106.858ZM63.0496 107.689C63.4769 107.914 63.9878 108.079 64.5783 108.189L64.6512 107.795C64.0897 107.691 63.6193 107.537 63.2359 107.335L63.0496 107.689ZM64.5748 108.188C65.1666 108.309 65.831 108.368 66.5667 108.368V107.968C65.8518 107.968 65.2149 107.91 64.6547 107.796L64.5748 108.188ZM66.5667 108.368C67.3025 108.368 67.9669 108.309 68.5587 108.188L68.4788 107.796C67.9186 107.91 67.2817 107.968 66.5667 107.968V108.368ZM68.5552 108.189C69.1458 108.079 69.6522 107.914 70.0699 107.688L69.8796 107.336C69.508 107.537 69.0437 107.691 68.4823 107.795L68.5552 108.189ZM70.0679 107.689C70.4942 107.465 70.8301 107.19 71.0655 106.86L70.74 106.628C70.5488 106.896 70.266 107.133 69.8816 107.335L70.0679 107.689ZM71.0647 106.861C71.3143 106.517 71.4388 106.123 71.4388 105.688H71.0387C71.0387 106.042 70.9392 106.353 70.7408 106.627L71.0647 106.861ZM71.4388 105.688C71.4388 105.253 71.3143 104.859 71.0647 104.515L70.7408 104.749C70.9392 105.023 71.0387 105.334 71.0387 105.688H71.4388ZM71.0674 104.518C70.8313 104.176 70.4935 103.9 70.0642 103.685L69.8853 104.043C70.2667 104.234 70.5475 104.469 70.7381 104.746L71.0674 104.518ZM70.0699 103.688C69.6522 103.462 69.1458 103.297 68.5552 103.187L68.4823 103.581C69.0437 103.685 69.508 103.839 69.8796 104.04L70.0699 103.688ZM68.5587 103.188C67.9669 103.067 67.3025 103.008 66.5667 103.008V103.408C67.2817 103.408 67.9186 103.466 68.4788 103.58L68.5587 103.188ZM66.5667 106.96C65.5114 106.96 64.7093 106.838 64.1467 106.607L63.9948 106.977C64.6269 107.237 65.4888 107.36 66.5667 107.36V106.96ZM64.1507 106.609C63.877 106.489 63.6875 106.35 63.5671 106.199C63.4493 106.052 63.3908 105.884 63.3908 105.688H62.9907C62.9907 105.972 63.0789 106.228 63.2544 106.449C63.4273 106.666 63.6778 106.839 63.9908 106.975L64.1507 106.609ZM63.3908 105.688C63.3908 105.492 63.4493 105.326 63.5663 105.182C63.6859 105.034 63.8746 104.899 64.1479 104.785L63.9936 104.415C63.6803 104.547 63.429 104.715 63.2552 104.93C63.0789 105.148 62.9907 105.404 62.9907 105.688H63.3908ZM64.1495 104.784C64.711 104.543 65.512 104.416 66.5667 104.416V104.016C65.4882 104.016 64.6251 104.145 63.992 104.416L64.1495 104.784ZM66.5667 104.416C67.6218 104.416 68.4167 104.543 68.9668 104.783L69.1267 104.417C68.5035 104.145 67.645 104.016 66.5667 104.016V104.416ZM68.9708 104.785C69.2498 104.9 69.4424 105.035 69.5644 105.183C69.6835 105.328 69.7428 105.493 69.7428 105.688H70.1427C70.1427 105.403 70.0526 105.147 69.8731 104.929C69.6965 104.714 69.441 104.546 69.1227 104.415L68.9708 104.785ZM69.7428 105.688C69.7428 105.883 69.6835 106.05 69.5635 106.198C69.4407 106.349 69.2473 106.488 68.968 106.608L69.1255 106.976C69.4435 106.84 69.6981 106.667 69.874 106.45C70.0527 106.23 70.1427 105.973 70.1427 105.688H69.7428ZM68.9696 106.607C68.4185 106.838 67.6225 106.96 66.5667 106.96V107.36C67.6444 107.36 68.5017 107.237 69.1239 106.977L68.9696 106.607Z" fill="#A3B9D6"/>
<path d="M236 57.0909L244.364 64.3636L252.727 57.0909" stroke="#A3B9D6" stroke-width="1.2" stroke-linecap="round" stroke-linejoin="round"/>
<path d="M244.364 64L244.364 1.00002" stroke="#A3B9D6" stroke-width="1.2" stroke-linecap="round"/>
<path d="M244.174 104.217C245.611 104.217 246.777 103.052 246.777 101.615C246.777 100.178 245.611 99.0128 244.174 99.0128C242.737 99.0128 241.572 100.178 241.572 101.615C241.572 103.052 242.737 104.217 244.174 104.217Z" stroke="#A3B9D6" stroke-width="1.2" stroke-linecap="round" stroke-linejoin="round"/>
<path d="M250.836 101.615C250.838 101.06 250.77 100.506 250.634 99.968L251.748 99.319C251.84 99.2653 251.919 99.1942 251.983 99.1097C252.046 99.0251 252.092 98.9289 252.118 98.8265C252.145 98.724 252.15 98.6175 252.135 98.5128C252.12 98.4082 252.084 98.3076 252.03 98.2168L250.959 96.3799C250.905 96.2876 250.834 96.2067 250.75 96.1419C250.665 96.0772 250.569 96.0297 250.466 96.0024C250.363 95.9751 250.255 95.9684 250.15 95.9828C250.044 95.9971 249.942 96.0322 249.85 96.086L249.238 96.435C249.084 96.526 248.906 96.5694 248.728 96.5596C248.549 96.5497 248.377 96.4872 248.234 96.3799C247.744 95.9838 247.199 95.6601 246.617 95.4186C246.45 95.3499 246.308 95.2325 246.209 95.0818C246.109 94.9312 246.058 94.7541 246.06 94.5736V93.8082C246.06 93.5939 245.975 93.3883 245.823 93.2367C245.672 93.0852 245.466 93 245.252 93H243.103C242.888 93 242.683 93.0852 242.531 93.2367C242.38 93.3883 242.294 93.5939 242.294 93.8082V94.5736C242.296 94.7555 242.242 94.9336 242.141 95.0844C242.039 95.2353 241.894 95.3518 241.725 95.4186C241.091 95.6739 240.499 96.0227 239.968 96.4534C239.825 96.5697 239.65 96.6397 239.466 96.6539C239.282 96.6681 239.098 96.6259 238.939 96.533L238.327 96.1656C238.141 96.0589 237.922 96.0299 237.715 96.085C237.508 96.14 237.332 96.2747 237.225 96.4595L236.11 98.3209C236.057 98.4124 236.022 98.5137 236.007 98.6188C235.993 98.7239 236 98.8308 236.027 98.9333C236.054 99.0358 236.102 99.1319 236.167 99.216C236.231 99.3 236.312 99.3704 236.404 99.4231L237.12 99.8272C237.277 99.9155 237.403 100.048 237.484 100.208C237.564 100.369 237.596 100.549 237.574 100.727C237.535 101.022 237.514 101.318 237.512 101.615C237.513 101.916 237.536 102.217 237.58 102.515C237.602 102.694 237.571 102.876 237.491 103.037C237.41 103.198 237.283 103.332 237.127 103.421L236.422 103.826C236.329 103.877 236.246 103.946 236.18 104.029C236.113 104.113 236.064 104.208 236.035 104.311C236.006 104.414 235.997 104.521 236.01 104.627C236.023 104.733 236.057 104.835 236.11 104.928L237.182 106.765C237.234 106.857 237.305 106.937 237.389 107.002C237.473 107.067 237.569 107.114 237.671 107.142C237.774 107.169 237.881 107.176 237.986 107.161C238.091 107.147 238.192 107.112 238.284 107.058L238.933 106.685C239.092 106.592 239.276 106.55 239.46 106.564C239.643 106.578 239.819 106.648 239.962 106.765C240.493 107.194 241.088 107.539 241.725 107.787C241.894 107.854 242.039 107.97 242.141 108.121C242.242 108.272 242.296 108.45 242.294 108.632V109.312C242.294 109.526 242.38 109.732 242.531 109.883C242.683 110.035 242.888 110.12 243.103 110.12H245.252C245.466 110.12 245.672 110.035 245.823 109.883C245.975 109.732 246.06 109.526 246.06 109.312V108.657C246.053 108.472 246.102 108.29 246.202 108.134C246.301 107.978 246.446 107.857 246.617 107.787C247.201 107.557 247.749 107.246 248.246 106.863C248.389 106.755 248.561 106.693 248.74 106.683C248.918 106.673 249.096 106.716 249.25 106.807L249.863 107.163C249.955 107.216 250.056 107.251 250.162 107.266C250.267 107.28 250.375 107.273 250.478 107.246C250.581 107.219 250.677 107.171 250.762 107.107C250.847 107.042 250.918 106.961 250.971 106.869L252.042 105.032C252.096 104.94 252.13 104.838 252.144 104.733C252.158 104.628 252.151 104.52 252.123 104.418C252.095 104.315 252.047 104.219 251.982 104.136C251.916 104.052 251.835 103.982 251.742 103.93L251.657 103.881C251.371 103.714 251.14 103.469 250.989 103.175C250.838 102.881 250.774 102.55 250.805 102.221C250.805 102.019 250.836 101.817 250.836 101.615Z" stroke="#A3B9D6" stroke-width="1.2" stroke-linecap="round" stroke-linejoin="round"/>
<path d="M51.3294 359.832V368.312H48.4174V369.288H51.3294V370.76H52.6414V359.832H51.3294ZM45.4894 365.416C46.012 365.416 46.4867 365.357 46.9134 365.24C47.3507 365.123 47.724 364.957 48.0334 364.744C48.3534 364.52 48.5987 364.253 48.7694 363.944C48.94 363.635 49.0254 363.288 49.0254 362.904C49.0254 362.531 48.94 362.189 48.7694 361.88C48.5987 361.571 48.3534 361.309 48.0334 361.096C47.724 360.872 47.3507 360.701 46.9134 360.584C46.4867 360.467 46.012 360.408 45.4894 360.408C44.9667 360.408 44.4867 360.467 44.0494 360.584C43.6227 360.701 43.2494 360.872 42.9294 361.096C42.62 361.309 42.38 361.571 42.2094 361.88C42.0387 362.189 41.9534 362.531 41.9534 362.904C41.9534 363.288 42.0387 363.635 42.2094 363.944C42.38 364.253 42.62 364.52 42.9294 364.744C43.2494 364.957 43.6227 365.123 44.0494 365.24C44.4867 365.357 44.9667 365.416 45.4894 365.416ZM45.4894 361.384C46.172 361.384 46.7214 361.523 47.1374 361.8C47.564 362.077 47.7774 362.445 47.7774 362.904C47.7774 363.384 47.564 363.763 47.1374 364.04C46.7214 364.307 46.172 364.44 45.4894 364.44C44.8067 364.44 44.252 364.307 43.8254 364.04C43.4094 363.763 43.2014 363.384 43.2014 362.904C43.2014 362.445 43.4094 362.077 43.8254 361.8C44.252 361.523 44.8067 361.384 45.4894 361.384ZM44.9774 367.48V370.248H46.2894V367.416C46.94 367.373 47.5907 367.32 48.2414 367.256C48.892 367.181 49.5374 367.096 50.1774 367L50.0654 366.056C49.308 366.152 48.524 366.227 47.7134 366.28C46.9027 366.333 46.0974 366.376 45.2974 366.408C44.4974 366.44 43.7134 366.461 42.9454 366.472C42.188 366.472 41.4787 366.472 40.8174 366.472L40.9934 367.56C41.6014 367.56 42.236 367.555 42.8974 367.544C43.5694 367.533 44.2627 367.512 44.9774 367.48ZM53.0094 373.864V372.792H44.1774V369.688H42.8654V373.864H53.0094ZM66.9121 366.84H69.2641V365.736H66.9121V359.848H65.6001V374.184H66.9121V366.84ZM64.2401 362.136H60.7041V360.008H59.3921V362.136H55.7761V363.192H64.2401V362.136ZM60.0641 364.376C59.5628 364.376 59.0988 364.461 58.6721 364.632C58.2455 364.792 57.8775 365.021 57.5681 365.32C57.2588 365.608 57.0188 365.955 56.8481 366.36C56.6775 366.765 56.5921 367.208 56.5921 367.688C56.5921 368.179 56.6775 368.627 56.8481 369.032C57.0188 369.437 57.2588 369.784 57.5681 370.072C57.8775 370.36 58.2455 370.584 58.6721 370.744C59.0988 370.904 59.5628 370.984 60.0641 370.984C60.5761 370.984 61.0455 370.904 61.4721 370.744C61.8988 370.584 62.2668 370.36 62.5761 370.072C62.8961 369.784 63.1415 369.437 63.3121 369.032C63.4828 368.627 63.5681 368.179 63.5681 367.688C63.5681 367.208 63.4828 366.765 63.3121 366.36C63.1415 365.955 62.8961 365.608 62.5761 365.32C62.2668 365.021 61.8988 364.792 61.4721 364.632C61.0455 364.461 60.5761 364.376 60.0641 364.376ZM60.0641 369.896C59.7441 369.896 59.4455 369.843 59.1681 369.736C58.8908 369.619 58.6508 369.464 58.4481 369.272C58.2561 369.08 58.1015 368.851 57.9841 368.584C57.8775 368.307 57.8241 368.008 57.8241 367.688C57.8241 367.368 57.8775 367.075 57.9841 366.808C58.1015 366.531 58.2561 366.296 58.4481 366.104C58.6508 365.901 58.8908 365.747 59.1681 365.64C59.4455 365.523 59.7441 365.464 60.0641 365.464C60.3948 365.464 60.6988 365.523 60.9761 365.64C61.2535 365.747 61.4881 365.901 61.6801 366.104C61.8828 366.296 62.0375 366.531 62.1441 366.808C62.2615 367.075 62.3201 367.368 62.3201 367.688C62.3201 368.008 62.2615 368.307 62.1441 368.584C62.0375 368.851 61.8828 369.08 61.6801 369.272C61.4881 369.464 61.2535 369.619 60.9761 369.736C60.6988 369.843 60.3948 369.896 60.0641 369.896ZM72.5589 365.224H82.3189V364.152H73.8709V360.36H72.5589V365.224ZM83.8069 368.2V367.144H70.7989V368.2H83.8069ZM82.3989 372.76H73.7749V369.64H72.4629V373.832H82.3989V372.76ZM91.1438 361.624H99.6238V361.784C99.6238 362.339 99.6078 362.904 99.5758 363.48C99.5438 364.045 99.4318 364.696 99.2398 365.432L100.52 365.576C100.722 364.84 100.84 364.168 100.872 363.56C100.904 362.952 100.92 362.36 100.92 361.784V360.568H91.1438V361.624ZM102.536 367.592V366.52H96.2318V363.768H94.9198V366.52H89.6238V367.592H102.536ZM96.0238 368.904C95.2558 368.904 94.5624 368.963 93.9438 369.08C93.3358 369.197 92.8131 369.373 92.3758 369.608C91.9491 369.832 91.6184 370.109 91.3838 370.44C91.1491 370.76 91.0318 371.128 91.0318 371.544C91.0318 371.949 91.1491 372.317 91.3838 372.648C91.6184 372.968 91.9491 373.24 92.3758 373.464C92.8131 373.688 93.3358 373.859 93.9438 373.976C94.5624 374.104 95.2558 374.168 96.0238 374.168C96.7918 374.168 97.4798 374.104 98.0878 373.976C98.7064 373.859 99.2344 373.688 99.6718 373.464C100.109 373.24 100.445 372.968 100.68 372.648C100.914 372.317 101.032 371.949 101.032 371.544C101.032 371.128 100.914 370.76 100.68 370.44C100.445 370.109 100.109 369.832 99.6718 369.608C99.2344 369.373 98.7064 369.197 98.0878 369.08C97.4798 368.963 96.7918 368.904 96.0238 368.904ZM96.0238 373.144C94.9038 373.144 94.0078 373.005 93.3358 372.728C92.6744 372.44 92.3438 372.045 92.3438 371.544C92.3438 371.032 92.6744 370.632 93.3358 370.344C94.0078 370.056 94.9038 369.912 96.0238 369.912C97.1544 369.912 98.0504 370.056 98.7118 370.344C99.3838 370.632 99.7198 371.032 99.7198 371.544C99.7198 372.056 99.3838 372.451 98.7118 372.728C98.0504 373.005 97.1544 373.144 96.0238 373.144ZM116.295 374.184V359.848H114.983V374.184H116.295ZM109.67 364.216V362.392H113.047V361.304H105.03V362.392H108.358V364.216C108.358 364.835 108.257 365.459 108.054 366.088C107.852 366.717 107.574 367.309 107.222 367.864C106.881 368.408 106.476 368.904 106.006 369.352C105.548 369.789 105.062 370.131 104.55 370.376L105.318 371.432C105.724 371.229 106.113 370.968 106.486 370.648C106.86 370.328 107.206 369.96 107.526 369.544C107.846 369.128 108.134 368.68 108.39 368.2C108.646 367.72 108.854 367.219 109.014 366.696C109.185 367.187 109.398 367.656 109.654 368.104C109.91 368.552 110.198 368.963 110.518 369.336C110.849 369.709 111.201 370.045 111.574 370.344C111.958 370.643 112.358 370.888 112.774 371.08L113.51 370.024C112.988 369.8 112.492 369.485 112.023 369.08C111.553 368.675 111.142 368.216 110.79 367.704C110.449 367.181 110.177 366.621 109.974 366.024C109.772 365.427 109.67 364.824 109.67 364.216ZM130.549 366.744H132.917V365.656H130.549V359.848H129.237V374.184H130.549V366.744ZM124.325 363.656V361.08H123.029V363.656C123.029 364.307 122.933 364.957 122.741 365.608C122.549 366.259 122.288 366.872 121.957 367.448C121.627 368.013 121.232 368.525 120.773 368.984C120.325 369.443 119.845 369.805 119.333 370.072L120.117 371.128C120.928 370.68 121.648 370.045 122.277 369.224C122.907 368.392 123.376 367.443 123.685 366.376C123.845 366.867 124.043 367.341 124.277 367.8C124.523 368.248 124.789 368.664 125.077 369.048C125.376 369.432 125.701 369.779 126.053 370.088C126.405 370.387 126.773 370.637 127.157 370.84L127.973 369.8C127.472 369.544 126.997 369.197 126.549 368.76C126.112 368.323 125.728 367.832 125.397 367.288C125.067 366.744 124.805 366.163 124.613 365.544C124.421 364.915 124.325 364.285 124.325 363.656ZM134.516 362.504H142.98V361.448H139.396V359.704H138.084V361.448H134.516V362.504ZM147.732 364.904V363.816H145.604V359.832H144.292V369.064H145.604V364.904H147.732ZM142.18 365.752C142.18 365.368 142.095 365.021 141.924 364.712C141.764 364.403 141.529 364.136 141.22 363.912C140.921 363.688 140.559 363.517 140.132 363.4C139.716 363.283 139.252 363.224 138.74 363.224C138.228 363.224 137.759 363.283 137.332 363.4C136.916 363.517 136.559 363.688 136.26 363.912C135.961 364.136 135.727 364.403 135.556 364.712C135.396 365.021 135.316 365.368 135.316 365.752C135.316 366.136 135.396 366.488 135.556 366.808C135.727 367.117 135.961 367.384 136.26 367.608C136.559 367.832 136.916 368.003 137.332 368.12C137.759 368.237 138.228 368.296 138.74 368.296C139.252 368.296 139.716 368.237 140.132 368.12C140.559 368.003 140.921 367.832 141.22 367.608C141.529 367.384 141.764 367.117 141.924 366.808C142.095 366.488 142.18 366.136 142.18 365.752ZM136.564 365.752C136.564 365.272 136.761 364.899 137.156 364.632C137.561 364.355 138.089 364.216 138.74 364.216C139.412 364.216 139.945 364.355 140.34 364.632C140.735 364.899 140.932 365.272 140.932 365.752C140.932 366.232 140.735 366.611 140.34 366.888C139.945 367.165 139.412 367.304 138.74 367.304C138.089 367.304 137.561 367.165 137.156 366.888C136.761 366.611 136.564 366.232 136.564 365.752ZM141.108 369.208C140.383 369.208 139.732 369.267 139.156 369.384C138.58 369.491 138.089 369.651 137.684 369.864C137.279 370.067 136.969 370.323 136.756 370.632C136.543 370.941 136.436 371.293 136.436 371.688C136.436 372.083 136.543 372.435 136.756 372.744C136.969 373.053 137.279 373.309 137.684 373.512C138.089 373.725 138.58 373.885 139.156 373.992C139.732 374.109 140.383 374.168 141.108 374.168C141.833 374.168 142.484 374.109 143.06 373.992C143.636 373.885 144.121 373.725 144.516 373.512C144.921 373.299 145.231 373.043 145.444 372.744C145.668 372.435 145.78 372.083 145.78 371.688C145.78 371.293 145.668 370.941 145.444 370.632C145.231 370.323 144.921 370.067 144.516 369.864C144.121 369.651 143.636 369.491 143.06 369.384C142.484 369.267 141.833 369.208 141.108 369.208ZM141.108 373.16C140.041 373.16 139.209 373.037 138.612 372.792C138.025 372.536 137.732 372.168 137.732 371.688C137.732 371.208 138.025 370.845 138.612 370.6C139.209 370.344 140.041 370.216 141.108 370.216C142.175 370.216 143.001 370.344 143.588 370.6C144.185 370.845 144.484 371.208 144.484 371.688C144.484 372.168 144.185 372.536 143.588 372.792C143.001 373.037 142.175 373.16 141.108 373.16ZM155.907 365.048C157.485 365.048 158.717 364.84 159.603 364.424C160.499 363.997 160.947 363.379 160.947 362.568C160.947 361.757 160.499 361.139 159.603 360.712C158.717 360.285 157.485 360.072 155.907 360.072C154.328 360.072 153.091 360.285 152.195 360.712C151.309 361.139 150.867 361.757 150.867 362.568C150.867 363.379 151.309 363.997 152.195 364.424C153.091 364.84 154.328 365.048 155.907 365.048ZM155.907 361.064C157.101 361.064 158.013 361.197 158.643 361.464C159.283 361.72 159.603 362.088 159.603 362.568C159.603 363.048 159.283 363.421 158.643 363.688C158.013 363.944 157.101 364.072 155.907 364.072C154.712 364.072 153.795 363.944 153.155 363.688C152.525 363.421 152.211 363.048 152.211 362.568C152.211 362.088 152.525 361.72 153.155 361.464C153.795 361.197 154.712 361.064 155.907 361.064ZM162.403 367.08V366.024H149.411V367.08H162.403ZM161.171 373H152.307V371.544H160.739V368.312H150.979V369.304H159.443V370.584H151.027V374.024H161.171V373ZM175.34 368.008H181.196V366.936H179.068C179.27 365.901 179.388 364.989 179.42 364.2C179.452 363.411 179.468 362.68 179.468 362.008V360.76H169.836V361.816H178.188V362.008C178.188 362.68 178.166 363.411 178.124 364.2C178.092 364.989 177.964 365.901 177.74 366.936H168.22V368.008H174.012V374.2H175.34V368.008ZM196.154 368.04V366.984H190.314V365.272H194.666V364.216H186.106V361.464H194.538V360.408H184.794V365.272H189.002V366.984H183.162V368.04H196.154ZM194.57 369.432H184.602V370.504H193.242V374.296H194.57V369.432ZM210.281 374.168V359.816H209.017V365.88H207.177V360.152H205.945V373.48H207.177V366.952H209.017V374.168H210.281ZM205.225 362.28H202.313V360.248H201.017V362.28H198.105V363.352H205.225V362.28ZM201.673 364.312C201.225 364.312 200.814 364.392 200.441 364.552C200.068 364.712 199.742 364.936 199.465 365.224C199.198 365.512 198.985 365.859 198.825 366.264C198.676 366.659 198.601 367.096 198.601 367.576C198.601 368.067 198.676 368.515 198.825 368.92C198.985 369.315 199.198 369.656 199.465 369.944C199.742 370.232 200.068 370.456 200.441 370.616C200.814 370.776 201.225 370.856 201.673 370.856C202.121 370.856 202.532 370.776 202.905 370.616C203.278 370.456 203.598 370.232 203.865 369.944C204.142 369.656 204.356 369.315 204.505 368.92C204.665 368.515 204.745 368.067 204.745 367.576C204.745 367.096 204.665 366.659 204.505 366.264C204.356 365.859 204.142 365.512 203.865 365.224C203.598 364.936 203.278 364.712 202.905 364.552C202.532 364.392 202.121 364.312 201.673 364.312ZM201.673 369.768C201.396 369.768 201.14 369.715 200.905 369.608C200.67 369.501 200.468 369.352 200.297 369.16C200.137 368.957 200.009 368.723 199.913 368.456C199.817 368.189 199.769 367.896 199.769 367.576C199.769 366.936 199.94 366.419 200.281 366.024C200.633 365.619 201.097 365.416 201.673 365.416C201.95 365.416 202.206 365.469 202.441 365.576C202.676 365.683 202.873 365.832 203.033 366.024C203.204 366.216 203.337 366.445 203.433 366.712C203.529 366.979 203.577 367.267 203.577 367.576C203.577 367.896 203.529 368.189 203.433 368.456C203.337 368.723 203.204 368.957 203.033 369.16C202.873 369.352 202.676 369.501 202.441 369.608C202.206 369.715 201.95 369.768 201.673 369.768ZM226.104 372.344V371.256H222.888V367.368C223.496 367.059 223.96 366.653 224.28 366.152C224.611 365.651 224.776 365.075 224.776 364.424C224.776 363.869 224.648 363.368 224.392 362.92C224.136 362.461 223.773 362.072 223.304 361.752C222.845 361.432 222.296 361.187 221.656 361.016C221.027 360.835 220.328 360.744 219.56 360.744C218.803 360.744 218.104 360.835 217.464 361.016C216.824 361.187 216.269 361.432 215.8 361.752C215.341 362.072 214.984 362.461 214.728 362.92C214.472 363.368 214.344 363.869 214.344 364.424C214.344 365.075 214.509 365.656 214.84 366.168C215.181 366.669 215.656 367.075 216.264 367.384V371.256H213.064V372.344H226.104ZM219.56 361.768C220.136 361.768 220.664 361.832 221.144 361.96C221.635 362.088 222.056 362.269 222.408 362.504C222.76 362.728 223.032 363.005 223.224 363.336C223.427 363.656 223.528 364.019 223.528 364.424C223.528 364.819 223.427 365.181 223.224 365.512C223.032 365.843 222.76 366.125 222.408 366.36C222.056 366.584 221.635 366.76 221.144 366.888C220.664 367.016 220.136 367.08 219.56 367.08C218.984 367.08 218.451 367.016 217.96 366.888C217.48 366.76 217.064 366.584 216.712 366.36C216.371 366.125 216.099 365.843 215.896 365.512C215.704 365.181 215.608 364.819 215.608 364.424C215.608 364.019 215.704 363.656 215.896 363.336C216.099 363.005 216.371 362.728 216.712 362.504C217.064 362.269 217.48 362.088 217.96 361.96C218.451 361.832 218.984 361.768 219.56 361.768ZM221.576 371.256H217.576V367.88C217.885 367.955 218.205 368.013 218.536 368.056C218.867 368.088 219.208 368.104 219.56 368.104C220.189 368.104 220.861 368.029 221.576 367.88V371.256Z" fill="#9FB0C6"/>
<path d="M135.162 342.448C136.421 342.448 137.442 341.428 137.442 340.168C137.442 338.909 136.421 337.888 135.162 337.888C133.903 337.888 132.882 338.909 132.882 340.168C132.882 341.428 133.903 342.448 135.162 342.448Z" stroke="#9FB0C6" stroke-linecap="round" stroke-linejoin="round"/>
<path d="M140.999 340.168C141.001 339.682 140.941 339.197 140.822 338.725L141.798 338.156C141.878 338.109 141.948 338.047 142.003 337.973C142.059 337.899 142.1 337.815 142.122 337.725C142.145 337.635 142.15 337.542 142.137 337.45C142.124 337.359 142.093 337.27 142.045 337.191L141.106 335.581C141.06 335.501 140.997 335.43 140.923 335.373C140.849 335.316 140.765 335.275 140.674 335.251C140.584 335.227 140.49 335.221 140.397 335.233C140.305 335.246 140.216 335.277 140.135 335.324L139.599 335.63C139.464 335.709 139.308 335.747 139.151 335.739C138.995 335.73 138.844 335.675 138.719 335.581C138.289 335.234 137.813 334.951 137.303 334.739C137.156 334.679 137.032 334.576 136.945 334.444C136.857 334.312 136.812 334.157 136.814 333.999V333.328C136.814 333.14 136.74 332.96 136.607 332.827C136.474 332.695 136.294 332.62 136.106 332.62H134.223C134.035 332.62 133.855 332.695 133.722 332.827C133.59 332.96 133.515 333.14 133.515 333.328V333.999C133.516 334.158 133.469 334.314 133.38 334.446C133.291 334.578 133.164 334.681 133.016 334.739C132.46 334.963 131.941 335.268 131.476 335.646C131.351 335.748 131.198 335.809 131.037 335.821C130.876 335.834 130.715 335.797 130.575 335.716L130.039 335.394C129.876 335.3 129.684 335.275 129.503 335.323C129.322 335.371 129.167 335.489 129.073 335.651L128.097 337.282C128.05 337.362 128.019 337.451 128.006 337.543C127.994 337.635 128 337.729 128.024 337.819C128.048 337.908 128.089 337.993 128.146 338.066C128.203 338.14 128.273 338.202 128.354 338.248L128.982 338.602C129.119 338.679 129.229 338.795 129.3 338.936C129.371 339.076 129.398 339.234 129.379 339.39C129.345 339.648 129.327 339.908 129.325 340.168C129.326 340.432 129.345 340.696 129.384 340.957C129.404 341.114 129.377 341.273 129.306 341.414C129.235 341.555 129.124 341.673 128.987 341.751L128.37 342.105C128.288 342.15 128.216 342.21 128.157 342.283C128.099 342.357 128.056 342.44 128.031 342.53C128.005 342.62 127.998 342.714 128.009 342.807C128.02 342.9 128.05 342.99 128.097 343.071L129.035 344.68C129.082 344.761 129.143 344.832 129.217 344.888C129.29 344.945 129.375 344.986 129.464 345.01C129.554 345.034 129.648 345.04 129.74 345.028C129.832 345.015 129.921 344.985 130.001 344.938L130.57 344.61C130.709 344.529 130.87 344.492 131.031 344.504C131.192 344.517 131.346 344.578 131.471 344.68C131.937 345.057 132.458 345.359 133.016 345.576C133.164 345.635 133.291 345.737 133.38 345.869C133.469 346.001 133.516 346.157 133.515 346.316V346.912C133.515 347.1 133.59 347.28 133.722 347.413C133.855 347.545 134.035 347.62 134.223 347.62H136.106C136.294 347.62 136.474 347.545 136.607 347.413C136.74 347.28 136.814 347.1 136.814 346.912V346.338C136.808 346.176 136.851 346.016 136.938 345.88C137.026 345.744 137.153 345.638 137.303 345.576C137.814 345.374 138.294 345.102 138.73 344.766C138.855 344.672 139.006 344.617 139.162 344.609C139.319 344.6 139.474 344.638 139.609 344.718L140.146 345.029C140.227 345.076 140.316 345.107 140.408 345.119C140.501 345.132 140.595 345.126 140.685 345.102C140.775 345.078 140.86 345.037 140.934 344.98C141.008 344.923 141.07 344.852 141.117 344.771L142.056 343.162C142.103 343.081 142.133 342.992 142.145 342.9C142.157 342.808 142.151 342.714 142.126 342.624C142.102 342.534 142.06 342.45 142.003 342.377C141.945 342.303 141.874 342.242 141.793 342.196L141.718 342.153C141.468 342.007 141.265 341.793 141.133 341.535C141.001 341.278 140.945 340.988 140.972 340.699C140.972 340.522 140.999 340.345 140.999 340.168Z" stroke="#9FB0C6" stroke-linecap="round" stroke-linejoin="round"/>
<path d="M157.486 347.716V333.332H156.174V338.66H152.814V334.468H151.534V338.196H147.534V334.468H146.238V344.084H152.814V339.716H156.174V347.716H157.486ZM147.534 339.236H151.534V343.012H147.534V339.236ZM162.317 339.94H172.061V338.916H163.629V337.38H171.597V336.388H163.629V334.884H171.981V333.86H162.317V339.94ZM173.581 342.34V341.284H160.605V342.34H173.581ZM172.237 346.292H163.597V343.38H162.285V347.364H172.237V346.292ZM182.06 338.548C183.638 338.548 184.87 338.34 185.756 337.924C186.652 337.497 187.1 336.879 187.1 336.068C187.1 335.257 186.652 334.639 185.756 334.212C184.87 333.785 183.638 333.572 182.06 333.572C180.481 333.572 179.244 333.785 178.348 334.212C177.462 334.639 177.02 335.257 177.02 336.068C177.02 336.879 177.462 337.497 178.348 337.924C179.244 338.34 180.481 338.548 182.06 338.548ZM182.06 334.564C183.254 334.564 184.166 334.697 184.796 334.964C185.436 335.22 185.756 335.588 185.756 336.068C185.756 336.548 185.436 336.921 184.796 337.188C184.166 337.444 183.254 337.572 182.06 337.572C180.865 337.572 179.948 337.444 179.308 337.188C178.678 336.921 178.364 336.548 178.364 336.068C178.364 335.588 178.678 335.22 179.308 334.964C179.948 334.697 180.865 334.564 182.06 334.564ZM188.556 340.58V339.524H175.564V340.58H188.556ZM187.324 346.5H178.46V345.044H186.892V341.812H177.132V342.804H185.596V344.084H177.18V347.524H187.324V346.5ZM196.1 337.812H205.844V336.756H197.396V333.54H196.1V337.812ZM201.492 341.636V340.132H207.364V339.06H194.356V340.132H200.18V341.636H195.956V342.644H204.404V343.988H195.988V347.524H206.196V346.5H197.3V344.948H205.716V341.636H201.492ZM221.123 347.7V333.316H219.811V338.852H217.075V339.924H219.811V347.7H221.123ZM211.139 343.156V339.684H216.227V334.66H209.811V335.732H214.947V338.628H209.843V344.244H210.947C211.598 344.244 212.201 344.239 212.755 344.228C213.321 344.217 213.865 344.196 214.387 344.164C214.921 344.121 215.438 344.073 215.939 344.02C216.451 343.956 216.979 343.876 217.523 343.78L217.395 342.692C216.883 342.788 216.382 342.868 215.891 342.932C215.401 342.985 214.905 343.033 214.403 343.076C213.913 343.108 213.395 343.129 212.851 343.14C212.318 343.151 211.747 343.156 211.139 343.156Z" fill="#9FB0C6"/>
<path d="M49.6261 340.196C50.3727 340.196 51.0554 340.121 51.6741 339.972C52.2927 339.823 52.8207 339.615 53.2581 339.348C53.6954 339.071 54.0367 338.74 54.2821 338.356C54.5274 337.961 54.6501 337.524 54.6501 337.044C54.6501 336.564 54.5274 336.132 54.2821 335.748C54.0367 335.364 53.6954 335.039 53.2581 334.772C52.8207 334.495 52.2927 334.281 51.6741 334.132C51.0554 333.983 50.3727 333.908 49.6261 333.908C48.8794 333.908 48.1967 333.983 47.5781 334.132C46.9701 334.281 46.4421 334.495 45.9941 334.772C45.5567 335.039 45.2154 335.364 44.9701 335.748C44.7354 336.132 44.6181 336.564 44.6181 337.044C44.6181 337.524 44.7354 337.961 44.9701 338.356C45.2154 338.74 45.5567 339.071 45.9941 339.348C46.4421 339.615 46.9701 339.823 47.5781 339.972C48.1967 340.121 48.8794 340.196 49.6261 340.196ZM49.6261 334.964C50.1701 334.964 50.6661 335.012 51.1141 335.108C51.5727 335.204 51.9621 335.343 52.2821 335.524C52.6127 335.705 52.8634 335.924 53.0341 336.18C53.2154 336.436 53.3061 336.724 53.3061 337.044C53.3061 337.364 53.2154 337.652 53.0341 337.908C52.8634 338.164 52.6127 338.388 52.2821 338.58C51.9621 338.761 51.5727 338.9 51.1141 338.996C50.6661 339.092 50.1701 339.14 49.6261 339.14C49.0821 339.14 48.5861 339.092 48.1381 338.996C47.6901 338.9 47.3007 338.761 46.9701 338.58C46.6501 338.388 46.3994 338.164 46.2181 337.908C46.0474 337.652 45.9621 337.364 45.9621 337.044C45.9621 336.724 46.0474 336.436 46.2181 336.18C46.3994 335.924 46.6501 335.705 46.9701 335.524C47.3007 335.343 47.6901 335.204 48.1381 335.108C48.5861 335.012 49.0821 334.964 49.6261 334.964ZM50.2821 342.644H56.1541V341.556H43.1621V342.644H48.9701V347.7H50.2821V342.644ZM58.9048 338.788L59.3048 339.78C59.8915 339.716 60.4568 339.62 61.0008 339.492C61.5448 339.353 62.0461 339.177 62.5048 338.964C62.9741 338.751 63.3901 338.5 63.7528 338.212C64.1155 337.924 64.4035 337.599 64.6168 337.236C64.8301 337.599 65.1128 337.924 65.4648 338.212C65.8275 338.5 66.2381 338.751 66.6968 338.964C67.1661 339.167 67.6728 339.337 68.2168 339.476C68.7608 339.615 69.3261 339.716 69.9128 339.78L70.3288 338.788C69.6461 338.724 69.0061 338.607 68.4088 338.436C67.8115 338.265 67.2888 338.052 66.8408 337.796C66.3928 337.54 66.0355 337.247 65.7688 336.916C65.5021 336.575 65.3528 336.207 65.3208 335.812H69.7688V334.772H65.2728V333.284H63.9608V334.772H59.4648V335.812H63.8968C63.8648 336.207 63.7155 336.575 63.4488 336.916C63.1821 337.247 62.8248 337.54 62.3768 337.796C61.9288 338.052 61.4061 338.265 60.8088 338.436C60.2221 338.607 59.5875 338.724 58.9048 338.788ZM71.0968 341.636V340.58H58.1208V341.636H71.0968ZM69.4968 343.172H59.5608V344.212H68.1848V347.684H69.4968V343.172ZM90.1617 338.132V337.044H88.0337V333.348H86.7217V342.036H88.0337V338.132H90.1617ZM84.4977 341.108L85.1857 340.084C84.6737 339.913 84.2044 339.679 83.7777 339.38C83.351 339.071 82.983 338.724 82.6737 338.34C82.375 337.945 82.1404 337.519 81.9697 337.06C81.799 336.601 81.7137 336.132 81.7137 335.652V334.068H80.4017V335.54C80.4017 336.084 80.3164 336.612 80.1457 337.124C79.9857 337.625 79.7457 338.095 79.4257 338.532C79.1164 338.959 78.743 339.343 78.3057 339.684C77.8684 340.015 77.3777 340.276 76.8337 340.468L77.5217 341.508C78.3644 341.188 79.0897 340.713 79.6977 340.084C80.3164 339.455 80.775 338.719 81.0737 337.876C81.3937 338.612 81.847 339.263 82.4337 339.828C83.031 340.393 83.719 340.82 84.4977 341.108ZM83.4737 342.436C82.7377 342.436 82.0764 342.495 81.4897 342.612C80.9137 342.729 80.4177 342.9 80.0017 343.124C79.5964 343.348 79.2817 343.625 79.0577 343.956C78.8444 344.276 78.7377 344.644 78.7377 345.06C78.7377 345.476 78.8444 345.849 79.0577 346.18C79.2817 346.5 79.5964 346.767 80.0017 346.98C80.4177 347.204 80.9137 347.375 81.4897 347.492C82.0764 347.609 82.7377 347.668 83.4737 347.668C84.199 347.668 84.8497 347.609 85.4257 347.492C86.0124 347.375 86.5084 347.204 86.9137 346.98C87.3297 346.767 87.6444 346.5 87.8577 346.18C88.0817 345.849 88.1937 345.476 88.1937 345.06C88.1937 344.644 88.0817 344.276 87.8577 343.956C87.6444 343.625 87.3297 343.348 86.9137 343.124C86.5084 342.9 86.0124 342.729 85.4257 342.612C84.8497 342.495 84.199 342.436 83.4737 342.436ZM83.4737 346.644C82.407 346.644 81.5697 346.511 80.9617 346.244C80.3537 345.967 80.0497 345.572 80.0497 345.06C80.0497 344.548 80.3537 344.153 80.9617 343.876C81.5697 343.599 82.407 343.46 83.4737 343.46C84.5404 343.46 85.3724 343.599 85.9697 343.876C86.5777 344.153 86.8817 344.548 86.8817 345.06C86.8817 345.572 86.5777 345.967 85.9697 346.244C85.3724 346.511 84.5404 346.644 83.4737 346.644ZM105.12 338.676V337.588H102.992V333.332H101.68V343.716H102.992V338.676H105.12ZM100.304 340.676L100.16 339.62C99.6911 339.716 99.2271 339.796 98.7684 339.86C98.3204 339.924 97.8458 339.972 97.3444 340.004C96.8538 340.036 96.3204 340.063 95.7444 340.084C95.1684 340.095 94.5284 340.1 93.8244 340.1V335.636H98.8644V334.58H92.5124V341.172H93.6324C94.3898 341.172 95.0671 341.167 95.6644 341.156C96.2724 341.135 96.8378 341.108 97.3604 341.076C97.8831 341.033 98.3791 340.98 98.8484 340.916C99.3284 340.852 99.8138 340.772 100.304 340.676ZM103.632 346.292H95.3764V342.676H94.0644V347.364H103.632V346.292ZM118.511 347.716V333.332H117.199V347.716H118.511ZM111.471 334.388C110.917 334.388 110.405 334.473 109.935 334.644C109.466 334.804 109.061 335.033 108.719 335.332C108.378 335.62 108.111 335.972 107.919 336.388C107.727 336.804 107.631 337.263 107.631 337.764C107.631 338.265 107.727 338.724 107.919 339.14C108.111 339.556 108.378 339.913 108.719 340.212C109.061 340.5 109.466 340.729 109.935 340.9C110.405 341.06 110.917 341.14 111.471 341.14C112.037 341.14 112.554 341.06 113.023 340.9C113.493 340.729 113.893 340.5 114.223 340.212C114.565 339.913 114.831 339.556 115.023 339.14C115.215 338.724 115.311 338.265 115.311 337.764C115.311 337.263 115.215 336.804 115.023 336.388C114.831 335.972 114.565 335.62 114.223 335.332C113.893 335.033 113.493 334.804 113.023 334.644C112.554 334.473 112.037 334.388 111.471 334.388ZM111.471 335.508C111.845 335.508 112.186 335.561 112.495 335.668C112.815 335.775 113.087 335.929 113.311 336.132C113.535 336.335 113.711 336.575 113.839 336.852C113.967 337.119 114.031 337.423 114.031 337.764C114.031 338.095 113.967 338.399 113.839 338.676C113.711 338.953 113.535 339.193 113.311 339.396C113.087 339.588 112.815 339.743 112.495 339.86C112.186 339.967 111.845 340.02 111.471 340.02C111.098 340.02 110.751 339.967 110.431 339.86C110.122 339.743 109.855 339.588 109.631 339.396C109.407 339.193 109.231 338.953 109.103 338.676C108.975 338.399 108.911 338.095 108.911 337.764C108.911 337.423 108.975 337.119 109.103 336.852C109.231 336.575 109.407 336.335 109.631 336.132C109.855 335.929 110.122 335.775 110.431 335.668C110.751 335.561 111.098 335.508 111.471 335.508ZM106.911 343.46L107.071 344.564C107.722 344.564 108.421 344.559 109.167 344.548C109.914 344.537 110.682 344.516 111.471 344.484C112.271 344.441 113.082 344.377 113.903 344.292C114.735 344.207 115.557 344.089 116.367 343.94L116.255 342.964C115.466 343.081 114.655 343.172 113.823 343.236C113.002 343.3 112.186 343.348 111.375 343.38C110.575 343.412 109.797 343.433 109.039 343.444C108.282 343.455 107.573 343.46 106.911 343.46Z" fill="#9FB0C6"/>
</svg>
