<svg width="130" height="130" viewBox="0 0 130 130" fill="none" xmlns="http://www.w3.org/2000/svg">
<mask id="path-1-inside-1_3333_83" fill="white">
<path fill-rule="evenodd" clip-rule="evenodd" d="M79.5261 56.9913C80.792 55.6528 82.6898 55.169 84.5266 55.3112C92.7058 55.9443 103.688 51.4014 109.781 45.3084C118.152 36.9382 123.597 19.3401 116.716 12.4591C109.835 5.57814 92.735 11.5216 84.3648 19.8918C77.8664 26.3902 72.8307 38.1504 74.1236 46.3052C74.468 48.4777 74.1188 50.8607 72.5207 52.3721L21.5756 100.552C20.0133 102.03 19.3458 104.222 19.8195 106.319C20.337 108.611 22.127 110.401 24.4191 110.919C26.5166 111.393 28.7085 110.725 30.186 109.163L79.5261 56.9913Z"/>
</mask>
<path fill-rule="evenodd" clip-rule="evenodd" d="M79.5261 56.9913C80.792 55.6528 82.6898 55.169 84.5266 55.3112C92.7058 55.9443 103.688 51.4014 109.781 45.3084C118.152 36.9382 123.597 19.3401 116.716 12.4591C109.835 5.57814 92.735 11.5216 84.3648 19.8918C77.8664 26.3902 72.8307 38.1504 74.1236 46.3052C74.468 48.4777 74.1188 50.8607 72.5207 52.3721L21.5756 100.552C20.0133 102.03 19.3458 104.222 19.8195 106.319C20.337 108.611 22.127 110.401 24.4191 110.919C26.5166 111.393 28.7085 110.725 30.186 109.163L79.5261 56.9913Z" fill="#F3F4F9"/>
<path d="M21.5756 100.552L22.2627 101.279L21.5756 100.552ZM19.8195 106.319L20.7949 106.099L20.7949 106.099L19.8195 106.319ZM24.4191 110.919L24.6394 109.943L24.6394 109.943L24.4191 110.919ZM30.186 109.163L30.9125 109.85L30.186 109.163ZM74.1236 46.3052L75.1112 46.1487L74.1236 46.3052ZM84.5266 55.3112L84.4494 56.3082L84.5266 55.3112ZM79.5261 56.9913L78.7996 56.3042L79.5261 56.9913ZM109.074 44.6013C106.142 47.534 101.995 50.1255 97.5638 51.9041C93.1283 53.6845 88.4954 54.6154 84.6037 54.3141L84.4494 56.3082C88.7369 56.6401 93.685 55.6161 98.3088 53.7601C102.937 51.9022 107.328 49.1758 110.489 46.0155L109.074 44.6013ZM116.009 13.1662C119.058 16.216 119.524 21.8612 117.997 28.087C116.486 34.242 113.112 40.5634 109.074 44.6013L110.489 46.0155C114.821 41.6831 118.355 35.0205 119.939 28.5636C121.506 22.1776 121.254 15.5832 117.423 11.752L116.009 13.1662ZM85.0719 20.5989C89.1223 16.5486 95.3312 13.0523 101.36 11.4216C107.46 9.77138 112.969 10.1265 116.009 13.1662L117.423 11.752C113.582 7.91075 107.1 7.7971 100.838 9.49094C94.5036 11.2042 87.9776 14.8648 83.6577 19.1847L85.0719 20.5989ZM75.1112 46.1487C74.5035 42.3153 75.3782 37.5284 77.2509 32.8489C79.1185 28.1821 81.933 23.7378 85.0719 20.5989L83.6577 19.1847C80.2981 22.5442 77.3456 27.2292 75.394 32.1058C73.4475 36.9698 72.4508 42.1404 73.1359 46.4618L75.1112 46.1487ZM22.2627 101.279L73.2078 53.0986L71.8336 51.6455L20.8885 99.8259L22.2627 101.279ZM20.7949 106.099C20.399 104.346 20.9569 102.514 22.2627 101.279L20.8885 99.8259C19.0696 101.546 18.2926 104.098 18.844 106.54L20.7949 106.099ZM24.6394 109.943C22.7236 109.511 21.2275 108.015 20.7949 106.099L18.844 106.54C19.4466 109.208 21.5304 111.292 24.1989 111.894L24.6394 109.943ZM29.4594 108.476C28.2245 109.781 26.3925 110.339 24.6394 109.943L24.1989 111.894C26.6408 112.446 29.1924 111.669 30.9125 109.85L29.4594 108.476ZM78.7996 56.3042L29.4594 108.476L30.9125 109.85L80.2527 57.6784L78.7996 56.3042ZM73.1359 46.4618C73.4547 48.4729 73.0921 50.4553 71.8336 51.6455L73.2078 53.0986C75.1455 51.2661 75.4812 48.4826 75.1112 46.1487L73.1359 46.4618ZM84.6037 54.3141C82.5666 54.1564 80.3335 54.6823 78.7996 56.3042L80.2527 57.6784C81.2505 56.6233 82.813 56.1815 84.4494 56.3082L84.6037 54.3141Z" fill="#A3B9D6" mask="url(#path-1-inside-1_3333_83)"/>
<path d="M47.6258 73.6844C48.2116 73.0986 49.1613 73.0986 49.7471 73.6844L56.5866 80.5239C57.1724 81.1097 57.1724 82.0594 56.5866 82.6452L21.0231 118.209C19.2658 119.966 16.4165 119.966 14.6592 118.209L12.0623 115.612C10.3049 113.854 10.3049 111.005 12.0623 109.248L47.6258 73.6844Z" fill="#F3F4F9" stroke="#A3B9D6"/>
<mask id="path-4-inside-2_3333_83" fill="white">
<path fill-rule="evenodd" clip-rule="evenodd" d="M5.97908 25.1941C5.02778 26.1454 5.02778 27.6878 5.97908 28.6391L25.5821 48.2421L26.2477 48.9077L26.2563 48.9163L26.9061 49.5661C27.027 49.687 27.1575 49.7926 27.295 49.8827C31.1902 53.2572 36.2564 55.0105 41.4397 54.738L42.8498 54.6639C44.9492 54.5536 47.199 54.8949 48.6436 56.4223L98.9336 109.598C100.411 111.161 102.603 111.828 104.7 111.354C106.993 110.837 108.783 109.047 109.3 106.755C109.774 104.657 109.106 102.465 107.544 100.988L53.9078 50.2625C52.5674 48.9948 52.2143 47.045 52.3111 45.2026L52.3852 43.7925C52.6828 38.1311 50.5637 32.6093 46.5549 28.6005L45.9139 27.9595C45.9003 27.9459 45.8783 27.9459 45.8647 27.9595C45.8512 27.973 45.8292 27.973 45.8156 27.9595L26.2372 8.38102C25.2859 7.42972 23.7435 7.42972 22.7922 8.38102C21.8409 9.33231 21.8409 10.8747 22.7922 11.826L41.1823 30.2161C41.8522 30.8859 41.8522 31.972 41.1823 32.6419C40.5124 33.3118 39.4263 33.3118 38.7565 32.6419L20.3664 14.2518C19.4151 13.3005 17.8727 13.3005 16.9214 14.2518C15.9701 15.2031 15.9701 16.7455 16.9214 17.6968L35.4485 36.2238C36.0427 36.8181 36.0427 37.7815 35.4485 38.3757C34.8543 38.9699 33.8909 38.9699 33.2967 38.3757L14.7696 19.8486C13.8183 18.8973 12.2759 18.8973 11.3246 19.8486C10.3733 20.7999 10.3733 22.3423 11.3246 23.2936L29.9773 41.9463C30.5022 42.4711 30.5022 43.322 29.9773 43.8469C29.4525 44.3717 28.6016 44.3717 28.0768 43.8469L9.42403 25.1941C8.47273 24.2428 6.93037 24.2428 5.97908 25.1941Z"/>
</mask>
<path fill-rule="evenodd" clip-rule="evenodd" d="M5.97908 25.1941C5.02778 26.1454 5.02778 27.6878 5.97908 28.6391L25.5821 48.2421L26.2477 48.9077L26.2563 48.9163L26.9061 49.5661C27.027 49.687 27.1575 49.7926 27.295 49.8827C31.1902 53.2572 36.2564 55.0105 41.4397 54.738L42.8498 54.6639C44.9492 54.5536 47.199 54.8949 48.6436 56.4223L98.9336 109.598C100.411 111.161 102.603 111.828 104.7 111.354C106.993 110.837 108.783 109.047 109.3 106.755C109.774 104.657 109.106 102.465 107.544 100.988L53.9078 50.2625C52.5674 48.9948 52.2143 47.045 52.3111 45.2026L52.3852 43.7925C52.6828 38.1311 50.5637 32.6093 46.5549 28.6005L45.9139 27.9595C45.9003 27.9459 45.8783 27.9459 45.8647 27.9595C45.8512 27.973 45.8292 27.973 45.8156 27.9595L26.2372 8.38102C25.2859 7.42972 23.7435 7.42972 22.7922 8.38102C21.8409 9.33231 21.8409 10.8747 22.7922 11.826L41.1823 30.2161C41.8522 30.8859 41.8522 31.972 41.1823 32.6419C40.5124 33.3118 39.4263 33.3118 38.7565 32.6419L20.3664 14.2518C19.4151 13.3005 17.8727 13.3005 16.9214 14.2518C15.9701 15.2031 15.9701 16.7455 16.9214 17.6968L35.4485 36.2238C36.0427 36.8181 36.0427 37.7815 35.4485 38.3757C34.8543 38.9699 33.8909 38.9699 33.2967 38.3757L14.7696 19.8486C13.8183 18.8973 12.2759 18.8973 11.3246 19.8486C10.3733 20.7999 10.3733 22.3423 11.3246 23.2936L29.9773 41.9463C30.5022 42.4711 30.5022 43.322 29.9773 43.8469C29.4525 44.3717 28.6016 44.3717 28.0768 43.8469L9.42403 25.1941C8.47273 24.2428 6.93037 24.2428 5.97908 25.1941Z" fill="#F3F4F9"/>
<path d="M5.97908 28.6391L6.68619 27.932L6.68619 27.932L5.97908 28.6391ZM25.5821 48.2421L24.875 48.9492L25.5821 48.2421ZM26.2477 48.9077L25.5406 49.6148L25.5408 49.6151L26.2477 48.9077ZM26.2563 48.9163L26.9634 48.2092L26.9632 48.209L26.2563 48.9163ZM27.295 49.8827L27.9498 49.1269L27.8992 49.0831L27.8432 49.0464L27.295 49.8827ZM41.4397 54.738L41.4922 55.7367L41.4922 55.7367L41.4397 54.738ZM98.9336 109.598L98.207 110.285L98.9336 109.598ZM104.7 111.354L104.921 112.33L104.921 112.33L104.7 111.354ZM109.3 106.755L110.276 106.975L110.276 106.975L109.3 106.755ZM107.544 100.988L106.857 101.714L107.544 100.988ZM52.3852 43.7925L51.3866 43.74L52.3852 43.7925ZM26.2372 8.38102L25.53 9.08812L26.2372 8.38102ZM22.7922 11.826L22.0851 12.5331L22.7922 11.826ZM20.3664 14.2518L19.6593 14.9589L20.3664 14.2518ZM53.9078 50.2625L53.2207 50.9891L53.9078 50.2625ZM48.6436 56.4223L47.917 57.1095L48.6436 56.4223ZM6.68619 27.932C6.12541 27.3712 6.12541 26.462 6.68618 25.9012L5.27197 24.487C3.93015 25.8289 3.93015 28.0044 5.27197 29.3462L6.68619 27.932ZM26.2892 47.535L6.68619 27.932L5.27197 29.3462L24.875 48.9492L26.2892 47.535ZM26.9548 48.2006L26.2892 47.535L24.875 48.9492L25.5406 49.6148L26.9548 48.2006ZM26.9632 48.209L26.9546 48.2004L25.5408 49.6151L25.5494 49.6237L26.9632 48.209ZM27.6132 48.859L26.9634 48.2092L25.5492 49.6235L26.199 50.2732L27.6132 48.859ZM27.8432 49.0464C27.7626 48.9935 27.6854 48.9312 27.6132 48.859L26.199 50.2732C26.3686 50.4428 26.5523 50.5916 26.7468 50.7191L27.8432 49.0464ZM41.3872 53.7394C36.4631 53.9982 31.6502 52.3327 27.9498 49.1269L26.6402 50.6385C30.7302 54.1818 36.0497 56.0227 41.4922 55.7367L41.3872 53.7394ZM42.7973 53.6653L41.3872 53.7394L41.4922 55.7367L42.9023 55.6625L42.7973 53.6653ZM99.6601 108.911L49.3701 55.7352L47.917 57.1095L98.207 110.285L99.6601 108.911ZM104.48 110.379C102.727 110.775 100.895 110.217 99.6601 108.911L98.207 110.285C99.9271 112.104 102.479 112.881 104.921 112.33L104.48 110.379ZM108.325 106.534C107.892 108.45 106.396 109.946 104.48 110.379L104.921 112.33C107.589 111.727 109.673 109.643 110.276 106.975L108.325 106.534ZM106.857 101.714C108.163 102.949 108.721 104.781 108.325 106.534L110.276 106.975C110.827 104.533 110.05 101.981 108.231 100.261L106.857 101.714ZM53.2207 50.9891L106.857 101.714L108.231 100.261L54.5949 49.536L53.2207 50.9891ZM51.3866 43.74L51.3125 45.1501L53.3097 45.2551L53.3838 43.845L51.3866 43.74ZM45.8478 29.3077C49.6561 33.116 51.6693 38.3616 51.3866 43.74L53.3838 43.845C53.6963 37.9005 51.4712 32.1026 47.262 27.8934L45.8478 29.3077ZM45.2067 28.6666L45.8478 29.3077L47.262 27.8934L46.621 27.2524L45.2067 28.6666ZM46.5718 28.6666C46.1949 29.0435 45.5837 29.0436 45.2067 28.6666L46.621 27.2524C46.2168 26.8483 45.5617 26.8483 45.1576 27.2524L46.5718 28.6666ZM45.1085 28.6666C45.5125 29.0706 46.1677 29.0707 46.5718 28.6666L45.1576 27.2524C45.5346 26.8754 46.1458 26.8755 46.5227 27.2524L45.1085 28.6666ZM25.53 9.08812L45.1085 28.6666L46.5227 27.2524L26.9443 7.67391L25.53 9.08812ZM23.4993 9.08812C24.0601 8.52735 24.9693 8.52735 25.53 9.08812L26.9443 7.67391C25.6024 6.33209 23.4269 6.33209 22.0851 7.67391L23.4993 9.08812ZM23.4993 11.1189C22.9385 10.5581 22.9385 9.6489 23.4993 9.08812L22.0851 7.67391C20.7433 9.01573 20.7433 11.1913 22.0851 12.5331L23.4993 11.1189ZM41.8894 29.509L23.4993 11.1189L22.0851 12.5331L40.4752 30.9232L41.8894 29.509ZM41.8894 33.349C42.9498 32.2886 42.9498 30.5694 41.8894 29.509L40.4752 30.9232C40.7546 31.2025 40.7545 31.6554 40.4752 31.9348L41.8894 33.349ZM38.0494 33.349C39.1098 34.4094 40.829 34.4094 41.8894 33.349L40.4752 31.9348C40.1958 32.2141 39.7429 32.2141 39.4636 31.9348L38.0494 33.349ZM19.6593 14.9589L38.0494 33.349L39.4636 31.9348L21.0735 13.5447L19.6593 14.9589ZM17.6285 14.9589C18.1893 14.3981 19.0985 14.3981 19.6593 14.9589L21.0735 13.5447C19.7317 12.2029 17.5561 12.2029 16.2143 13.5447L17.6285 14.9589ZM17.6285 16.9896C17.0678 16.4289 17.0678 15.5197 17.6285 14.9589L16.2143 13.5447C14.8725 14.8865 14.8725 17.062 16.2143 18.4039L17.6285 16.9896ZM36.1556 35.5167L17.6285 16.9896L16.2143 18.4039L34.7414 36.9309L36.1556 35.5167ZM36.1556 39.0828C37.1404 38.0981 37.1404 36.5015 36.1556 35.5167L34.7414 36.9309C34.9451 37.1346 34.9451 37.4649 34.7414 37.6686L36.1556 39.0828ZM32.5895 39.0828C33.5743 40.0675 35.1709 40.0675 36.1556 39.0828L34.7414 37.6686C34.5377 37.8723 34.2075 37.8723 34.0038 37.6686L32.5895 39.0828ZM14.0625 20.5557L32.5895 39.0828L34.0038 37.6686L15.4767 19.1415L14.0625 20.5557ZM12.0317 20.5557C12.5925 19.9949 13.5017 19.9949 14.0625 20.5557L15.4767 19.1415C14.1349 17.7997 11.9593 17.7997 10.6175 19.1415L12.0317 20.5557ZM12.0317 22.5865C11.471 22.0257 11.471 21.1165 12.0317 20.5557L10.6175 19.1415C9.27569 20.4833 9.27569 22.6589 10.6175 24.0007L12.0317 22.5865ZM30.6844 41.2392L12.0317 22.5865L10.6175 24.0007L29.2702 42.6534L30.6844 41.2392ZM30.6844 44.554C31.5998 43.6386 31.5998 42.1545 30.6844 41.2392L29.2702 42.6534C29.4045 42.7877 29.4045 43.0055 29.2702 43.1398L30.6844 44.554ZM27.3696 44.554C28.285 45.4693 29.7691 45.4693 30.6844 44.554L29.2702 43.1398C29.1359 43.2741 28.9182 43.2741 28.7839 43.1398L27.3696 44.554ZM8.71692 25.9012L27.3696 44.554L28.7839 43.1398L10.1311 24.487L8.71692 25.9012ZM6.68618 25.9012C7.24696 25.3405 8.15615 25.3405 8.71692 25.9012L10.1311 24.487C8.78931 23.1452 6.61379 23.1452 5.27197 24.487L6.68618 25.9012ZM54.5949 49.536C53.57 48.5666 53.2189 46.9832 53.3097 45.2551L51.3125 45.1501C51.2096 47.1067 51.5648 49.423 53.2207 50.9891L54.5949 49.536ZM42.9023 55.6625C44.9166 55.5567 46.7828 55.9101 47.917 57.1095L49.3701 55.7352C47.6153 53.8797 44.9818 53.5505 42.7973 53.6653L42.9023 55.6625Z" fill="#A3B9D6" mask="url(#path-4-inside-2_3333_83)"/>
<path d="M72.0244 82.6452C71.4386 82.0594 71.4386 81.1097 72.0244 80.5239L78.8639 73.6844C79.4497 73.0986 80.3994 73.0986 80.9852 73.6844L116.549 109.248C118.306 111.005 118.306 113.854 116.549 115.612L113.952 118.209C112.194 119.966 109.345 119.966 107.588 118.209L72.0244 82.6452Z" fill="#F3F4F9" stroke="#A3B9D6"/>
</svg>
