<?xml version="1.0" standalone="no"?>
<!DOCTYPE svg PUBLIC "-//W3C//DTD SVG 20010904//EN"
 "http://www.w3.org/TR/2001/REC-SVG-20010904/DTD/svg10.dtd">
<svg version="1.0" xmlns="http://www.w3.org/2000/svg"
 width="72.000000pt" height="72.000000pt" viewBox="0 0 72.000000 72.000000"
 preserveAspectRatio="xMidYMid meet">
<metadata>
Created by potrace 1.14, written by Peter Selinger 2001-2017
</metadata>
<g transform="translate(0.000000,72.000000) scale(0.100000,-0.100000)"
fill="#000000" stroke="none">
<path d="M7 713 c-4 -3 -7 -45 -7 -92 0 -86 0 -87 26 -89 17 -1 24 2 21 11 -2
6 0 20 5 30 6 12 5 17 -4 17 -6 0 -3 7 8 15 19 15 19 15 -1 8 -17 -6 -18 -4
-8 9 7 8 10 17 7 21 -10 9 29 16 84 13 28 -1 52 2 52 7 0 5 8 3 17 -4 14 -12
16 -12 8 0 -6 11 -5 12 6 5 19 -11 58 -13 65 -2 3 4 11 5 17 1 17 -10 127 -10
127 1 0 4 8 2 17 -5 14 -12 16 -12 8 0 -6 11 -5 12 6 5 19 -11 58 -13 65 -2 3
4 11 5 17 1 7 -4 30 -8 52 -9 66 -2 79 -4 72 -11 -4 -3 -2 -12 4 -20 7 -8 8
-13 1 -13 -10 0 -11 -54 -1 -65 4 -3 16 -7 28 -10 20 -4 21 0 21 71 0 124 33
114 -364 114 -188 0 -346 -3 -349 -7z"/>
<path d="M164 422 c-14 -10 -11 -45 6 -63 15 -17 19 -15 50 25 12 16 12 18 1
11 -11 -6 -13 -3 -9 12 3 12 0 20 -8 20 -7 0 -10 -5 -7 -11 4 -6 1 -6 -8 1 -8
6 -19 9 -25 5z"/>
<path d="M339 422 c-1 -4 -1 -10 0 -14 0 -5 -4 -8 -10 -8 -8 0 -9 -4 0 -13 6
-8 9 -16 6 -19 -3 -3 2 -11 12 -19 11 -9 14 -10 9 -1 -5 8 0 12 13 12 17 0 21
6 21 30 0 17 -3 30 -7 31 -5 0 -16 2 -25 4 -10 2 -19 0 -19 -3z"/>
<path d="M519 422 c-18 -8 -18 -47 0 -65 8 -8 16 -9 28 -1 21 13 25 43 8 60
-15 15 -14 15 -36 6z"/>
<path d="M26 228 c5 -8 2 -9 -9 -5 -15 6 -17 -2 -17 -53 0 -78 10 -83 160 -84
63 -1 121 -5 129 -10 10 -6 12 -6 7 2 -4 7 -5 12 -2 12 3 0 14 -20 25 -45 17
-37 24 -45 47 -45 15 0 24 3 21 7 -4 3 1 12 11 20 9 8 12 12 5 8 -8 -4 -8 3 2
22 l15 28 127 2 c150 3 153 4 153 15 0 5 5 6 10 3 6 -4 10 18 10 59 0 64 -1
66 -24 64 -14 -1 -22 -6 -20 -10 3 -4 0 -8 -6 -8 -7 0 -9 -8 -5 -19 6 -20 -18
-46 -35 -36 -5 3 -10 0 -10 -7 0 -8 -3 -9 -8 -3 -9 13 -42 15 -42 3 0 -6 -6
-5 -15 2 -12 10 -15 10 -15 -1 0 -9 -3 -10 -8 -4 -4 6 -18 10 -32 10 -14 0
-28 -4 -32 -10 -5 -7 -8 -7 -8 0 0 6 -11 10 -25 10 -14 0 -25 -4 -25 -8 0 -5
-4 -6 -9 -2 -6 3 -14 -2 -19 -12 -5 -9 -17 -18 -27 -19 -9 -1 -14 0 -11 3 3 3
-1 11 -7 18 -17 16 -77 25 -77 11 0 -7 -3 -7 -8 -1 -10 14 -52 14 -52 1 0 -7
-3 -7 -8 -1 -4 6 -16 10 -27 10 -11 0 -23 -4 -27 -10 -5 -7 -8 -6 -8 0 0 6 -9
11 -20 11 -11 0 -20 -4 -20 -9 0 -5 -6 -4 -13 2 -8 6 -16 8 -19 5 -3 -2 -8 2
-12 11 -3 9 -2 13 4 10 5 -3 8 4 7 15 -1 11 -5 20 -10 20 -4 0 -6 4 -3 9 3 5
-1 12 -10 15 -10 4 -13 2 -8 -6z"/>
</g>
</svg>
