<svg width="20" height="20" viewBox="0 0 20 20" fill="none" xmlns="http://www.w3.org/2000/svg">
    <path fill-rule="evenodd" clip-rule="evenodd"
          d="M10.0017 1.19996C10.1421 1.19984 10.2791 1.20062 10.4093 1.20136L10.4869 1.20179C10.5172 1.20195 10.547 1.20379 10.5764 1.20721C11.7118 1.23806 13.1249 1.39071 14.3205 2.18882C15.5897 3.03613 16.4694 4.50688 16.687 6.87011C16.9293 9.50077 18.2162 11.4613 19.43 12.7209C19.7242 13.0262 19.7938 13.4181 19.8023 13.6907C19.8113 13.9835 19.756 14.2823 19.6667 14.5458C19.5782 14.8073 19.4393 15.084 19.2416 15.3117C19.0537 15.5282 18.7206 15.8 18.2528 15.8H1.75067C1.28282 15.8 0.949682 15.5282 0.761779 15.3117C0.5641 15.084 0.42523 14.8073 0.336688 14.5458C0.247458 14.2823 0.192095 13.9835 0.201164 13.6907C0.209608 13.4181 0.279272 13.0262 0.5734 12.7209C1.78718 11.4613 3.07417 9.50077 3.31643 6.87011C3.53406 4.50688 4.41367 3.03613 5.68294 2.18882C6.87853 1.39071 8.29164 1.23807 9.42704 1.20721C9.4564 1.20379 9.48625 1.20195 9.5165 1.20179L9.59411 1.20136M10.001 2.79996C9.86599 2.79985 9.73357 2.80059 9.60203 2.80134L9.59619 2.80137C9.57633 2.8033 9.55623 2.80451 9.53591 2.80498C8.44548 2.83014 7.39244 2.97139 6.57128 3.51956C5.79843 4.03548 5.09468 5.00807 4.90969 7.01684C4.63009 10.0529 3.16651 12.3095 1.8002 13.753C1.80009 13.8214 1.8149 13.9226 1.85216 14.0326C1.87595 14.1029 1.90285 14.159 1.92671 14.2H18.0767C18.1006 14.159 18.1275 14.1029 18.1513 14.0326C18.1885 13.9226 18.2033 13.8214 18.2032 13.753C16.8369 12.3095 15.3733 10.0529 15.0937 7.01684C14.9087 5.00807 14.205 4.03548 13.4321 3.51956C12.611 2.97139 11.5579 2.83014 10.4675 2.80498C10.4472 2.80451 10.4271 2.8033 10.4072 2.80137L10.4014 2.80134C10.2699 2.80059 10.1374 2.79985 10.0024 2.79996H10.001Z"
          fill="currentColor"/>
    <path fill-rule="evenodd" clip-rule="evenodd"
          d="M6.8002 15C6.8002 16.7673 8.23288 18.2 10.0002 18.2C11.7675 18.2 13.2002 16.7673 13.2002 15H14.8002C14.8002 17.651 12.6512 19.8 10.0002 19.8C7.34923 19.8 5.2002 17.651 5.2002 15H6.8002Z"
          fill="currentColor"/>
</svg>
