<svg width="20" height="20" viewBox="0 0 20 20" fill="none" xmlns="http://www.w3.org/2000/svg">
    <path fill-rule="evenodd" clip-rule="evenodd"
          d="M10.0017 0.200024C10.1421 0.199905 10.2791 0.20068 10.4093 0.201417L10.4869 0.20185C10.5172 0.202013 10.547 0.203849 10.5764 0.207271C11.7118 0.238126 13.1249 0.390767 14.3205 1.18889C15.5897 2.0362 16.4694 3.50694 16.687 5.87017C16.9293 8.50083 18.2162 10.4613 19.43 11.721C19.7242 12.0263 19.7938 12.4182 19.8023 12.6908C19.8113 12.9835 19.756 13.2823 19.6667 13.5458C19.5782 13.8073 19.4393 14.0841 19.2416 14.3118C19.0537 14.5282 18.7206 14.8 18.2528 14.8H1.75067C1.28282 14.8 0.949682 14.5282 0.761779 14.3118C0.5641 14.0841 0.42523 13.8073 0.336688 13.5458C0.247458 13.2823 0.192095 12.9835 0.201164 12.6908C0.209608 12.4182 0.279272 12.0263 0.5734 11.721C1.78718 10.4613 3.07417 8.50083 3.31643 5.87017C3.53406 3.50694 4.41367 2.0362 5.68294 1.18889C6.87853 0.390767 8.29164 0.238126 9.42704 0.207271C9.4564 0.203849 9.48625 0.202013 9.5165 0.20185L9.59411 0.201417M10.001 1.80002C9.86599 1.79991 9.73357 1.80065 9.60203 1.8014L9.59619 1.80143C9.57633 1.80336 9.55623 1.80457 9.53591 1.80504C8.44548 1.8302 7.39244 1.97145 6.57128 2.51962C5.79843 3.03554 5.09468 4.00813 4.90969 6.0169C4.63009 9.05299 3.16651 11.3095 1.8002 12.753C1.80009 12.8215 1.8149 12.9226 1.85216 13.0327C1.87595 13.1029 1.90285 13.1591 1.92671 13.2H18.0767C18.1006 13.1591 18.1275 13.1029 18.1513 13.0327C18.1885 12.9226 18.2033 12.8215 18.2032 12.753C16.8369 11.3095 15.3733 9.05299 15.0937 6.0169C14.9087 4.00813 14.205 3.03554 13.4321 2.51962C12.611 1.97145 11.5579 1.8302 10.4675 1.80504C10.4472 1.80457 10.4271 1.80336 10.4072 1.80143L10.4014 1.8014C10.2699 1.80065 10.1374 1.79991 10.0024 1.80002H10.001Z"
          fill="currentColor"/>
    <path fill-rule="evenodd" clip-rule="evenodd"
          d="M6.8002 14C6.8002 15.7673 8.23288 17.2 10.0002 17.2C11.7675 17.2 13.2002 15.7673 13.2002 14H14.8002C14.8002 16.651 12.6512 18.8 10.0002 18.8C7.34923 18.8 5.2002 16.651 5.2002 14H6.8002Z"
          fill="currentColor"/>
</svg>
