<svg width="16" height="16" viewBox="0 0 16 16" fill="none" xmlns="http://www.w3.org/2000/svg">
    <path fill-rule="evenodd" clip-rule="evenodd"
          d="M7.74027 0.58564C7.96912 0.793684 7.98599 1.14785 7.77794 1.3767L1.75676 8.00001L7.77794 14.6233C7.98599 14.8522 7.96912 15.2063 7.74027 15.4144C7.51143 15.6224 7.15726 15.6056 6.94921 15.3767L0.585575 8.3767C0.391397 8.16311 0.391397 7.83691 0.585575 7.62331L6.94921 0.62331C7.15726 0.394461 7.51143 0.377596 7.74027 0.58564Z"
          fill="currentColor"/>
    <path fill-rule="evenodd" clip-rule="evenodd"
          d="M0.439941 8C0.439941 7.69072 0.690662 7.44 0.999941 7.44H14.9999C15.3092 7.44 15.5599 7.69072 15.5599 8C15.5599 8.30928 15.3092 8.56 14.9999 8.56H0.999941C0.690662 8.56 0.439941 8.30928 0.439941 8Z"
          fill="currentColor"/>
</svg>
