<svg width="22" height="20" viewBox="0 0 22 20" fill="none" xmlns="http://www.w3.org/2000/svg">
    <path fill-rule="evenodd" clip-rule="evenodd"
          d="M0.203613 2.97456C0.203613 2.53273 0.561785 2.17456 1.00361 2.17456H21.0036C21.4454 2.17456 21.8036 2.53273 21.8036 2.97456V17.9089C21.8036 18.3507 21.4454 18.7089 21.0036 18.7089H1.00361C0.561785 18.7089 0.203613 18.3507 0.203613 17.9089V2.97456ZM1.80361 3.77456V17.1089H20.2036V3.77456H1.80361Z"
          fill="currentColor"/>
    <path fill-rule="evenodd" clip-rule="evenodd"
          d="M5.48164 0.108887C5.92347 0.108887 6.28164 0.467059 6.28164 0.908887V4.94498C6.28164 5.38681 5.92347 5.74498 5.48164 5.74498C5.03981 5.74498 4.68164 5.38681 4.68164 4.94498V0.908887C4.68164 0.467059 5.03981 0.108887 5.48164 0.108887Z"
          fill="currentColor"/>
    <path fill-rule="evenodd" clip-rule="evenodd"
          d="M11.0036 0.108887C11.4454 0.108887 11.8036 0.467059 11.8036 0.908887V4.94498C11.8036 5.38681 11.4454 5.74498 11.0036 5.74498C10.5618 5.74498 10.2036 5.38681 10.2036 4.94498V0.908887C10.2036 0.467059 10.5618 0.108887 11.0036 0.108887Z"
          fill="currentColor"/>
    <path fill-rule="evenodd" clip-rule="evenodd"
          d="M16.5261 0.108887C16.9679 0.108887 17.3261 0.467059 17.3261 0.908887V4.94498C17.3261 5.38681 16.9679 5.74498 16.5261 5.74498C16.0842 5.74498 15.7261 5.38681 15.7261 4.94498V0.908887C15.7261 0.467059 16.0842 0.108887 16.5261 0.108887Z"
          fill="currentColor"/>
</svg>
