<svg width="21" height="22" viewBox="0 0 21 22" fill="none" xmlns="http://www.w3.org/2000/svg">
    <path fill-rule="evenodd" clip-rule="evenodd"
          d="M15.3645 8.83496C15.8063 8.83496 16.1645 9.19313 16.1645 9.63496V21C16.1645 21.4419 15.8063 21.8 15.3645 21.8C14.9226 21.8 14.5645 21.4419 14.5645 21V9.63496C14.5645 9.19313 14.9226 8.83496 15.3645 8.83496Z"
          fill="currentColor"/>
    <path fill-rule="evenodd" clip-rule="evenodd"
          d="M15.3638 1.79995C14.0985 1.79995 12.7743 3.17543 12.7743 5.2857C12.7743 7.39596 14.0985 8.77144 15.3638 8.77144C16.6292 8.77144 17.9533 7.39596 17.9533 5.2857C17.9533 3.17543 16.6292 1.79995 15.3638 1.79995ZM11.1743 5.2857C11.1743 2.66206 12.8852 0.199951 15.3638 0.199951C17.8424 0.199951 19.5533 2.66206 19.5533 5.2857C19.5533 7.90933 17.8424 10.3714 15.3638 10.3714C12.8852 10.3714 11.1743 7.90933 11.1743 5.2857Z"
          fill="currentColor"/>
    <path fill-rule="evenodd" clip-rule="evenodd"
          d="M4.37129 1.1521C4.81312 1.1521 5.17129 1.51027 5.17129 1.9521V20.9998C5.17129 21.4416 4.81312 21.7998 4.37129 21.7998C3.92946 21.7998 3.57129 21.4416 3.57129 20.9998V1.9521C3.57129 1.51027 3.92946 1.1521 4.37129 1.1521Z"
          fill="currentColor"/>
    <path fill-rule="evenodd" clip-rule="evenodd"
          d="M1.25361 1.19214C1.69544 1.19214 2.05361 1.55031 2.05361 1.99214V5.73823C2.05361 7.66295 3.26753 8.90655 4.37096 8.90655C5.47205 8.90655 6.68005 7.66593 6.68005 5.73823V1.99214C6.68005 1.55031 7.03823 1.19214 7.48005 1.19214C7.92188 1.19214 8.28005 1.55031 8.28005 1.99214V5.73823C8.28005 8.1598 6.70059 10.5065 4.37096 10.5065C2.04365 10.5065 0.453613 8.16279 0.453613 5.73823V1.99214C0.453613 1.55031 0.811785 1.19214 1.25361 1.19214Z"
          fill="currentColor"/>
</svg>
