<svg width="22" height="20" viewBox="0 0 22 20" fill="none" xmlns="http://www.w3.org/2000/svg">
    <path fill-rule="evenodd" clip-rule="evenodd"
          d="M10.7029 0.311026C11.0113 0.0371005 11.4774 0.0425302 11.7793 0.323565L21.5453 9.41434C21.8687 9.71538 21.8868 10.2216 21.5858 10.545C21.2847 10.8684 20.7785 10.8865 20.4551 10.5855L11.2216 1.99037L1.5315 10.598C1.20117 10.8914 0.695523 10.8615 0.402099 10.5312C0.108675 10.2009 0.138589 9.69522 0.468913 9.4018L10.7029 0.311026Z"
          fill="currentColor"/>
    <path fill-rule="evenodd" clip-rule="evenodd"
          d="M3.47285 7.01294C3.91468 7.01294 4.27285 7.37111 4.27285 7.81294V18.2909H17.7353V7.81294C17.7353 7.37111 18.0934 7.01294 18.5353 7.01294C18.9771 7.01294 19.3353 7.37111 19.3353 7.81294V19.0909C19.3353 19.5327 18.9771 19.8909 18.5353 19.8909H3.47285C3.03102 19.8909 2.67285 19.5327 2.67285 19.0909V7.81294C2.67285 7.37111 3.03102 7.01294 3.47285 7.01294Z"
          fill="currentColor"/>
    <path fill-rule="evenodd" clip-rule="evenodd"
          d="M11.1729 11.513C11.1174 11.5252 11.0597 11.5316 11.0004 11.5316C10.3506 11.5316 9.72023 11.8004 9.25013 12.2905C8.77895 12.7817 8.50869 13.4547 8.50869 14.163V18.2418H13.5V14.1576C13.5024 13.8054 13.4378 13.4569 13.3106 13.1325C13.1834 12.8082 12.9967 12.5155 12.7628 12.2704C12.5289 12.0255 12.2526 11.8332 11.9508 11.7029C11.7021 11.5955 11.4393 11.5316 11.1729 11.513ZM10.781 9.93771C10.8501 9.91804 10.923 9.90743 10.9984 9.90724C11.5438 9.90588 12.0832 10.0172 12.5851 10.2339C13.0869 10.4506 13.5403 10.7678 13.92 11.1655C14.2997 11.5632 14.5983 12.0335 14.8002 12.5485C15.0017 13.0626 15.1034 13.6121 15.1 14.1656V19.0418C15.1 19.4837 14.7418 19.8418 14.3 19.8418H7.70869C7.26686 19.8418 6.90869 19.4837 6.90869 19.0418V14.163C6.90869 13.0513 7.33205 11.9787 8.0955 11.1829C8.80885 10.4392 9.76566 9.994 10.781 9.93771Z"
          fill="currentColor"/>
</svg>
