<svg width="20" height="20" viewBox="0 0 20 20" fill="none" xmlns="http://www.w3.org/2000/svg">
    <path fill-rule="evenodd" clip-rule="evenodd"
          d="M0.450195 4.74995C0.450195 3.75584 1.25608 2.94995 2.2502 2.94995H17.7502C18.7443 2.94995 19.5502 3.75584 19.5502 4.74995V15.25C19.5502 16.2441 18.7443 17.05 17.7502 17.05H2.2502C1.25608 17.05 0.450195 16.2441 0.450195 15.25V4.74995ZM2.2502 4.54995C2.13974 4.54995 2.0502 4.63949 2.0502 4.74995V15.25C2.0502 15.3604 2.13974 15.45 2.2502 15.45H17.7502C17.8607 15.45 17.9502 15.3604 17.9502 15.25V4.74995C17.9502 4.63949 17.8607 4.54995 17.7502 4.54995H2.2502Z"
          fill="currentColor"/>
    <path fill-rule="evenodd" clip-rule="evenodd"
          d="M18.8348 4.80485L10.9009 10.797C10.2466 11.2911 9.34113 11.2807 8.69843 10.7716L1.15137 4.79356L2.14483 3.53936L9.69189 9.5174C9.7633 9.57397 9.86391 9.57513 9.93661 9.52022L17.8705 3.52808L18.8348 4.80485Z"
          fill="currentColor"/>
</svg>
