<svg width="21" height="20" viewBox="0 0 21 20" fill="none" xmlns="http://www.w3.org/2000/svg">
    <path fill-rule="evenodd" clip-rule="evenodd"
          d="M9.97121 12.6425C5.89216 12.6425 2.68027 15.0054 2.00433 17.8902C2.00381 17.8924 2.00352 17.8941 2.00335 17.8952C2.00439 17.897 2.00639 17.9001 2.01001 17.9041C2.02768 17.9238 2.06931 17.9501 2.13103 17.9501H17.8114C17.8731 17.9501 17.9147 17.9238 17.9324 17.9041C17.936 17.9001 17.938 17.897 17.9391 17.8952C17.9389 17.8941 17.9386 17.8924 17.9381 17.8902C17.2621 15.0054 14.0503 12.6425 9.97121 12.6425ZM0.446525 17.5252C1.3358 13.7299 5.36004 11.0425 9.97121 11.0425C14.5824 11.0425 18.6066 13.7299 19.4959 17.5252C19.7674 18.6838 18.7936 19.5501 17.8114 19.5501H2.13103C1.14887 19.5501 0.175051 18.6838 0.446525 17.5252Z"
          fill="currentColor"/>
    <path fill-rule="evenodd" clip-rule="evenodd"
          d="M9.97214 2.04995C7.99753 2.04995 6.39688 3.65059 6.39688 5.62498C6.39688 7.59938 7.99753 9.20002 9.97214 9.20002C11.9467 9.20002 13.5474 7.59938 13.5474 5.62498C13.5474 3.65059 11.9467 2.04995 9.97214 2.04995ZM4.79688 5.62498C4.79688 2.76685 7.11396 0.449951 9.97214 0.449951C12.8303 0.449951 15.1474 2.76685 15.1474 5.62498C15.1474 8.48312 12.8303 10.8 9.97214 10.8C7.11396 10.8 4.79688 8.48312 4.79688 5.62498Z"
          fill="currentColor"/>
</svg>
