<svg width="21" height="20" viewBox="0 0 21 20" fill="none" xmlns="http://www.w3.org/2000/svg">
    <path fill-rule="evenodd" clip-rule="evenodd"
          d="M5.18205 2.14476C6.46252 0.843413 8.19248 0.109131 10.0003 0.109131C11.8079 0.109131 13.5377 0.843231 14.8181 2.14428C16.157 3.44131 16.9812 5.19852 17.1392 7.07726C17.2974 8.95658 16.7787 10.8328 15.6778 12.3463L10.6566 19.5485C10.5069 19.7631 10.2617 19.891 10.0001 19.8909C9.73839 19.8909 9.49329 19.7628 9.34377 19.5481L4.32949 12.3461C3.22949 10.8329 2.71056 8.95796 2.86724 7.07942C3.0239 5.20116 3.84567 3.44363 5.18205 2.14476ZM10.0003 1.70913C8.62666 1.70913 7.30293 2.26767 6.3171 3.27248L6.30287 3.28662C5.24521 4.31188 4.58708 5.70924 4.46171 7.21241C4.33633 8.71568 4.75336 10.211 5.62777 11.4109L5.63778 11.4249L10.0008 17.6915L14.37 11.4245L14.3798 11.4107C15.2546 10.2108 15.6714 8.71492 15.5449 7.21142C15.4184 5.70804 14.7583 4.31113 13.6988 3.28759L13.6835 3.27248C12.6977 2.26767 11.374 1.70913 10.0003 1.70913Z"
          fill="currentColor"/>
    <path fill-rule="evenodd" clip-rule="evenodd"
          d="M9.90476 5.59292C8.98299 5.59292 8.1918 6.37228 8.1918 7.38877C8.1918 8.40527 8.98299 9.18463 9.90476 9.18463C10.8265 9.18463 11.6177 8.40527 11.6177 7.38877C11.6177 6.37228 10.8265 5.59292 9.90476 5.59292ZM6.5918 7.38877C6.5918 5.53797 8.05079 3.99292 9.90476 3.99292C11.7587 3.99292 13.2177 5.53797 13.2177 7.38877C13.2177 9.23958 11.7587 10.7846 9.90476 10.7846C8.05079 10.7846 6.5918 9.23958 6.5918 7.38877Z"
          fill="currentColor"/>
</svg>
