<svg width="21" height="20" viewBox="0 0 21 20" fill="none" xmlns="http://www.w3.org/2000/svg">
    <path fill-rule="evenodd" clip-rule="evenodd"
          d="M20.1861 1.36339C20.3849 1.51469 20.5016 1.75016 20.5016 1.99996V17.1444C20.5016 17.405 20.3747 17.6492 20.1615 17.799C19.9483 17.9488 19.6755 17.9854 19.4304 17.8971L6.29397 13.1637H1.0002C0.558368 13.1637 0.200195 12.8055 0.200195 12.3637V5.75399C0.200195 5.31217 0.558368 4.95399 1.0002 4.95399H6.00511L19.4885 1.22885C19.7293 1.16232 19.9874 1.21209 20.1861 1.36339ZM18.9016 3.05095L6.32663 6.52511C6.25724 6.54428 6.18558 6.55399 6.11359 6.55399H1.8002V11.5637H6.43371C6.52616 11.5637 6.61792 11.5797 6.7049 11.611L18.9016 16.0058V3.05095Z"
          fill="currentColor"/>
    <path fill-rule="evenodd" clip-rule="evenodd"
          d="M4.63643 12.1091C5.07825 12.1091 5.43643 12.4673 5.43643 12.9091V17.5637H7.47279V13.5713C7.47279 13.1295 7.83096 12.7713 8.27279 12.7713C8.71462 12.7713 9.07279 13.1295 9.07279 13.5713V18.3637C9.07279 18.8055 8.71462 19.1637 8.27279 19.1637H4.63643C4.1946 19.1637 3.83643 18.8055 3.83643 18.3637V12.9091C3.83643 12.4673 4.1946 12.1091 4.63643 12.1091Z"
          fill="currentColor"/>
</svg>
