<svg width="24" height="24" viewBox="0 0 24 24" fill="none" xmlns="http://www.w3.org/2000/svg">
    <path fill-rule="evenodd" clip-rule="evenodd"
          d="M21.6 5.27818H2.4C2.1349 5.27818 1.92 5.49852 1.92 5.77033V18.0741C1.92 18.346 2.1349 18.5663 2.4 18.5663H21.6C21.8651 18.5663 22.08 18.346 22.08 18.0741V5.77033C22.08 5.49853 21.8651 5.27818 21.6 5.27818ZM2.4 3.30957C1.07452 3.30957 0 4.41129 0 5.77033V18.0741C0 19.4332 1.07452 20.5349 2.4 20.5349H21.6C22.9255 20.5349 24 19.4332 24 18.0741V5.77033C24 4.41129 22.9255 3.30957 21.6 3.30957H2.4Z"
          fill="currentColor"/>
    <path fill-rule="evenodd" clip-rule="evenodd"
          d="M4.04004 9.46136C4.04004 8.91774 4.46985 8.47705 5.00004 8.47705H19C19.5302 8.47705 19.96 8.91774 19.96 9.46136C19.96 10.005 19.5302 10.4457 19 10.4457H5.00004C4.46985 10.4457 4.04004 10.005 4.04004 9.46136Z"
          fill="currentColor"/>
    <path fill-rule="evenodd" clip-rule="evenodd"
          d="M4.04004 14.3832C4.04004 13.8396 4.46985 13.3989 5.00004 13.3989H19C19.5302 13.3989 19.96 13.8396 19.96 14.3832C19.96 14.9268 19.5302 15.3675 19 15.3675H5.00004C4.46985 15.3675 4.04004 14.9268 4.04004 14.3832Z"
          fill="currentColor"/>
</svg>
