<svg width="20" height="20" viewBox="0 0 20 20" fill="none" xmlns="http://www.w3.org/2000/svg">
    <path fill-rule="evenodd" clip-rule="evenodd"
          d="M10.0017 1.19996C10.1421 1.19984 10.2791 1.20062 10.4093 1.20136L10.4869 1.20179C10.5172 1.20195 10.547 1.20379 10.5764 1.20721C11.7118 1.23806 13.1249 1.39071 14.3205 2.18882C14.9465 2.60675 15.4778 3.17635 15.8816 3.92992L17.4553 2.45233C17.7774 2.14991 18.2996 2.14991 18.6217 2.45233C18.9439 2.75476 18.9439 3.24508 18.6217 3.54751L16.4796 5.55882C16.5737 5.96175 16.6435 6.39813 16.687 6.87011C16.9293 9.50077 18.2162 11.4613 19.43 12.7209C19.7242 13.0262 19.7938 13.4181 19.8023 13.6907C19.8113 13.9835 19.756 14.2823 19.6667 14.5458C19.5782 14.8073 19.4393 15.084 19.2416 15.3117C19.0537 15.5282 18.7206 15.8 18.2528 15.8H14.7338C14.353 18.0701 12.3786 19.8 10.0002 19.8C7.70724 19.8 5.78979 18.1922 5.31372 16.0425L2.58316 18.6062C2.26106 18.9086 1.73882 18.9086 1.41672 18.6062C1.09461 18.3038 1.09461 17.8134 1.41672 17.511L3.23912 15.8H1.75067C1.28282 15.8 0.949682 15.5282 0.761779 15.3117C0.5641 15.084 0.42523 14.8073 0.336688 14.5458C0.247458 14.2823 0.192095 13.9835 0.201164 13.6907C0.209608 13.4181 0.279272 13.0262 0.5734 12.7209C1.78718 11.4613 3.07417 9.50077 3.31643 6.87011C3.53406 4.50688 4.41367 3.03613 5.68294 2.18882C6.87853 1.39071 8.29164 1.23807 9.42704 1.20721C9.4564 1.20379 9.48625 1.20195 9.5165 1.20179L9.59411 1.20136L10.0017 1.19996ZM6.90101 15.8C7.25624 17.1801 8.50912 18.2 10.0002 18.2C11.4913 18.2 12.7441 17.1801 13.0994 15.8H6.90101ZM13.4321 3.51956C13.8985 3.83088 14.3397 4.30849 14.6569 5.07972L4.94323 14.2H1.92671C1.90285 14.159 1.87595 14.1029 1.85216 14.0326C1.8149 13.9226 1.80009 13.8214 1.8002 13.753C3.16651 12.3095 4.63009 10.0529 4.90969 7.01684C5.09468 5.00807 5.79843 4.03548 6.57128 3.51956C7.39244 2.97139 8.44548 2.83014 9.53591 2.80498C9.55623 2.80451 9.57633 2.8033 9.59619 2.80137L9.60203 2.80134C9.73357 2.80059 9.86599 2.79985 10.001 2.79996H10.0024C10.1374 2.79985 10.2699 2.80059 10.4014 2.80134L10.4072 2.80137C10.4271 2.8033 10.4472 2.80451 10.4675 2.80498C11.5579 2.83014 12.611 2.97139 13.4321 3.51956ZM18.0767 14.2H7.27612L15.0795 6.87337C15.0845 6.9206 15.0893 6.96842 15.0937 7.01684C15.3733 10.0529 16.8369 12.3095 18.2032 13.753C18.2033 13.8214 18.1885 13.9226 18.1513 14.0326C18.1275 14.1029 18.1006 14.159 18.0767 14.2Z"
          fill="currentColor"/>
</svg>
