<svg width="20" height="20" viewBox="0 0 20 20" fill="none" xmlns="http://www.w3.org/2000/svg">
    <path fill-rule="evenodd" clip-rule="evenodd"
          d="M12.0021 0.439956C12.1706 0.439813 12.3349 0.440743 12.4912 0.441627L12.5843 0.442146C12.6206 0.442342 12.6564 0.444546 12.6917 0.448652C14.0541 0.485678 15.7499 0.668847 17.1846 1.62659C17.9358 2.1281 18.5734 2.81162 19.0579 3.7159L20.9464 1.9428C21.3329 1.57989 21.9596 1.57989 22.3461 1.9428C22.7326 2.30571 22.7326 2.8941 22.3461 3.25701L19.7755 5.67059C19.8884 6.1541 19.9722 6.67776 20.0244 7.24414C20.3151 10.4009 21.8595 12.7535 23.316 14.2651C23.669 14.6314 23.7526 15.1017 23.7627 15.4289C23.7736 15.7802 23.7072 16.1387 23.6001 16.4549C23.4938 16.7687 23.3272 17.1008 23.09 17.3741C22.8645 17.6338 22.4647 17.9599 21.9033 17.9599H17.6806C17.2236 20.6841 14.8543 22.7599 12.0002 22.7599C9.24868 22.7599 6.94775 20.8306 6.37646 18.2509L3.09979 21.3274C2.71327 21.6903 2.08659 21.6903 1.70006 21.3274C1.31354 20.9645 1.31354 20.3761 1.70006 20.0132L3.88694 17.9599H2.10081C1.53938 17.9599 1.13962 17.6338 0.914135 17.3741C0.67692 17.1008 0.510276 16.7687 0.404025 16.4549C0.296949 16.1387 0.230514 15.7802 0.241396 15.4289C0.25153 15.1017 0.335126 14.6314 0.68808 14.2651C2.14462 12.7535 3.689 10.4009 3.97971 7.24414C4.24087 4.40825 5.29641 2.64336 6.81953 1.62659C8.25423 0.668848 9.94996 0.485678 11.3125 0.448652C11.3477 0.444546 11.3835 0.442342 11.4198 0.442146L11.5129 0.441627L12.0021 0.439956ZM8.28121 17.9599C8.70749 19.6162 10.2109 20.8399 12.0002 20.8399C13.7895 20.8399 15.293 19.6162 15.7193 17.9599H8.28121ZM16.1186 3.22347C16.6782 3.59706 17.2076 4.17019 17.5883 5.09567L5.93188 16.0399H2.31206C2.28342 15.9908 2.25114 15.9234 2.22259 15.8391C2.17788 15.7071 2.1601 15.5857 2.16024 15.5036C3.79981 13.7714 5.55611 11.0635 5.89162 7.42021C6.11361 5.00968 6.95812 3.84258 7.88554 3.22347C8.87092 2.56567 10.1346 2.39616 11.4431 2.36597C11.4675 2.36541 11.4916 2.36396 11.5154 2.36164L11.5224 2.3616C11.6803 2.36071 11.8392 2.35982 12.0012 2.35996H12.0029C12.1649 2.35982 12.3238 2.36071 12.4817 2.3616L12.4887 2.36164C12.5125 2.36396 12.5366 2.36541 12.561 2.36597C13.8695 2.39616 15.1332 2.56567 16.1186 3.22347ZM21.6921 16.0399H8.73134L18.0954 7.24805C18.1014 7.30472 18.1071 7.3621 18.1125 7.42021C18.448 11.0635 20.2043 13.7714 21.8439 15.5036C21.844 15.5857 21.8262 15.7071 21.7815 15.8391C21.753 15.9234 21.7207 15.9908 21.6921 16.0399Z"
          fill="currentColor"/>
</svg>
