<svg width="24" height="24" viewBox="0 0 24 24" fill="none" xmlns="http://www.w3.org/2000/svg">
<path fill-rule="evenodd" clip-rule="evenodd" d="M21.6 6.2384H2.4C2.1349 6.2384 1.92 6.42727 1.92 6.66024V17.2063C1.92 17.4393 2.1349 17.6282 2.4 17.6282H21.6C21.8651 17.6282 22.08 17.4393 22.08 17.2063V6.66024C22.08 6.42727 21.8651 6.2384 21.6 6.2384ZM2.4 4.55103C1.07452 4.55103 0 5.49535 0 6.66024V17.2063C0 18.3712 1.07452 19.3156 2.4 19.3156H21.6C22.9255 19.3156 24 18.3712 24 17.2063V6.66024C24 5.49535 22.9255 4.55103 21.6 4.55103H2.4Z" fill="currentColor"/>
<path fill-rule="evenodd" clip-rule="evenodd" d="M4.04004 9.82391C4.04004 9.35796 4.46985 8.98022 5.00004 8.98022H19C19.5302 8.98022 19.96 9.35796 19.96 9.82391C19.96 10.2899 19.5302 10.6676 19 10.6676H5.00004C4.46985 10.6676 4.04004 10.2899 4.04004 9.82391Z" fill="currentColor"/>
<path fill-rule="evenodd" clip-rule="evenodd" d="M4.04004 14.0429C4.04004 13.577 4.46985 13.1992 5.00004 13.1992H19C19.5302 13.1992 19.96 13.577 19.96 14.0429C19.96 14.5089 19.5302 14.8866 19 14.8866H5.00004C4.46985 14.8866 4.04004 14.5089 4.04004 14.0429Z" fill="currentColor"/>
<path fill-rule="evenodd" clip-rule="evenodd" d="M5.83138 21.8637C6.29055 22.0967 6.87767 21.9585 7.14277 21.5549L19.1428 3.28856C19.4079 2.88502 19.2505 2.36903 18.7914 2.13606C18.3322 1.90308 17.7451 2.04134 17.48 2.44487L5.48 20.7112C5.2149 21.1148 5.37222 21.6308 5.83138 21.8637Z" fill="currentColor"/>
</svg>
