<svg width="22" height="20" viewBox="0 0 22 20" fill="none" xmlns="http://www.w3.org/2000/svg">
    <path fill-rule="evenodd" clip-rule="evenodd"
          d="M11.0909 2.18299C11.0356 2.156 10.9709 2.156 10.9156 2.18299L2.82805 6.12794L11.0033 10.1157L19.1785 6.12794L11.0909 2.18299ZM10.2141 0.744946C10.7122 0.502009 11.2943 0.502011 11.7924 0.744947L20.4327 4.95953C21.4061 5.43435 21.4061 6.82153 20.4327 7.29635L11.5732 11.6179C11.2135 11.7933 10.793 11.7933 10.4333 11.6179L1.57382 7.29635C0.60039 6.82153 0.600396 5.43435 1.57382 4.95953L10.2141 0.744946Z"
          fill="currentColor"/>
    <path fill-rule="evenodd" clip-rule="evenodd"
          d="M3.4186 8.8668C3.64538 9.24599 3.52183 9.73722 3.14264 9.964L2.66868 10.2475L10.6842 14.2423L18.6996 10.2475L18.2257 9.964C17.8465 9.73722 17.7229 9.24599 17.9497 8.8668C18.1765 8.48761 18.6677 8.36406 19.0469 8.59084L19.9914 9.15571C20.8731 9.68305 20.8235 10.9766 19.904 11.4349L11.264 15.741C10.8989 15.9229 10.4694 15.9229 10.1043 15.741L1.46429 11.4349C0.544754 10.9766 0.495159 9.68305 1.37691 9.15571L2.3214 8.59084C2.70059 8.36406 3.19182 8.48761 3.4186 8.8668Z"
          fill="currentColor"/>
    <path fill-rule="evenodd" clip-rule="evenodd"
          d="M3.4186 12.7584C3.64538 13.1376 3.52183 13.6288 3.14264 13.8556L2.66868 14.1391L10.6842 18.1339L18.6996 14.1391L18.2257 13.8556C17.8465 13.6288 17.7229 13.1376 17.9497 12.7584C18.1765 12.3792 18.6677 12.2557 19.0469 12.4824L19.9914 13.0473C20.8731 13.5746 20.8235 14.8682 19.904 15.3265L11.264 19.6326C10.8989 19.8145 10.4694 19.8145 10.1043 19.6326L1.46429 15.3265C0.544754 14.8682 0.495159 13.5746 1.37691 13.0473L2.3214 12.4824C2.70059 12.2557 3.19182 12.3792 3.4186 12.7584Z"
          fill="currentColor"/>
</svg>
