<svg width="16" height="16" viewBox="0 0 16 16" fill="none" xmlns="http://www.w3.org/2000/svg">
    <path fill-rule="evenodd" clip-rule="evenodd"
          d="M0.303913 0.304035C0.522606 0.0853413 0.877179 0.0853413 1.09587 0.304035L13.6959 12.904C13.9146 13.1227 13.9146 13.4773 13.6959 13.696C13.4772 13.9147 13.1226 13.9147 12.9039 13.696L0.303913 1.09599C0.0852192 0.877301 0.0852192 0.522728 0.303913 0.304035Z"
          fill="currentColor"/>
    <path fill-rule="evenodd" clip-rule="evenodd"
          d="M0.303913 13.696C0.522606 13.9147 0.877179 13.9147 1.09587 13.696L13.6959 1.09597C13.9146 0.877272 13.9146 0.5227 13.6959 0.304007C13.4772 0.0853128 13.1226 0.0853128 12.9039 0.304007L0.303913 12.904C0.0852192 13.1227 0.0852192 13.4773 0.303913 13.696Z"
          fill="currentColor"/>
</svg>
